<svg width="1015" height="946" viewBox="0 0 1015 946" fill="none" xmlns="http://www.w3.org/2000/svg">
<path d="M988.527 320.099C982.376 303.074 975.237 286.489 967.438 270.453C897.911 128.871 768.301 32.7624 608.706 7.49957C601.823 6.40118 594.94 5.44925 588.057 4.64377C457.788 -10.9533 275.457 8.48811 201.206 128.871C162.543 191.479 178.36 270.233 137.5 331.083C84.448 409.837 16.3482 449.269 3.71677 572.288C-5.61948 662.795 -1.22595 760.661 62.7 832.825C138.159 917.949 267.658 947.276 378.265 930.91C485.577 915.094 581.686 862.152 675.488 812.285C764.567 765.054 866.497 730.785 938.77 658.511C1029.72 567.345 1029.72 434.002 988.527 320.099Z" fill="#CADBBE"/>
<path opacity="0.7" d="M988.527 320.099C982.376 303.074 975.237 286.489 967.438 270.453C897.911 128.871 768.301 32.7624 608.706 7.49957C601.823 6.40118 594.94 5.44925 588.057 4.64377C457.788 -10.9533 275.457 8.48811 201.206 128.871C162.543 191.479 178.36 270.233 137.5 331.083C84.448 409.837 16.3482 449.269 3.71677 572.288C-5.61948 662.795 -1.22595 760.661 62.7 832.825C138.159 917.949 267.658 947.276 378.265 930.91C485.577 915.094 581.686 862.152 675.488 812.285C764.567 765.054 866.497 730.785 938.77 658.511C1029.72 567.345 1029.72 434.002 988.527 320.099Z" fill="white"/>
<path d="M62.92 342.945C72.1464 345.142 93.1255 340.858 93.1255 340.858C93.3452 340.858 86.0959 327.897 85.5467 327.238C79.1761 318.342 61.7118 305.161 50.1787 308.895C41.831 311.532 38.6457 320.978 42.0507 328.666C45.4557 336.575 55.0116 341.078 62.92 342.945Z" fill="#CCCCCC"/>
<path d="M276.117 309.005C276.336 309.115 277.435 294.397 277.435 293.408C276.995 282.534 269.746 261.885 257.993 258.59C249.536 256.283 241.737 262.324 240.309 270.672C238.772 279.129 244.263 288.136 249.755 294.067C256.346 300.987 276.117 309.005 276.117 309.005Z" fill="#CCCCCC"/>
<path d="M324.993 221.574C312.911 222.453 301.708 241.235 299.072 251.78C298.852 252.768 297.095 267.377 297.314 267.377L297.534 267.267C295.777 270.233 293.909 273.418 291.932 277.043C288.308 283.523 284.243 290.992 280.399 299.45C276.555 307.797 272.601 317.024 269.305 327.129C266.01 337.234 263.045 347.998 261.507 359.531C261.434 359.678 261.397 359.788 261.397 359.861C260.848 356.346 258.871 346.57 258.651 345.911C255.356 335.587 242.944 317.463 230.752 317.463C221.965 317.463 216.034 325.372 216.803 333.719C217.681 342.287 225.37 349.536 232.29 353.82C240.088 358.653 259.75 361.069 261.287 361.179C259.859 372.163 259.31 383.586 259.31 395.119C259.31 401.709 259.53 408.409 259.859 415.109C259.31 412.034 258.761 409.288 258.651 408.959C255.356 398.634 242.834 380.62 230.752 380.51C221.965 380.51 216.034 388.419 216.803 396.876C217.681 405.334 225.26 412.693 232.18 416.867C239.21 421.26 255.905 423.567 260.409 424.226C260.555 426.789 260.701 429.315 260.848 431.805C261.507 444.107 262.386 456.409 262.825 468.381C262.935 472.665 262.935 476.839 262.935 481.012C262.386 478.267 261.946 476.07 261.836 475.74C258.541 465.415 246.02 447.292 233.938 447.292C225.15 447.292 219.219 455.2 219.988 463.548C220.867 472.116 228.446 479.365 235.365 483.649C242.066 487.713 257.553 490.129 262.825 490.788C262.605 495.072 262.496 499.355 262.276 503.529C261.946 506.385 261.836 509.131 261.397 511.877C261.031 514.733 260.665 517.515 260.299 520.225C259.42 525.497 258.541 530.989 257.553 536.042C256.894 539.666 256.125 542.961 255.466 546.366C255.356 542.192 255.027 533.955 254.917 533.296C253.708 526.156 249.095 515.062 242.615 507.813C242.468 506.788 242.212 505.763 241.846 504.738C239.1 496.829 230.313 492.106 222.405 495.841C211.421 501.113 207.686 522.641 209.114 533.515C209.224 534.064 210.871 540.874 211.97 545.158C210.981 542.742 209.993 540.435 208.894 537.909C206.698 533.076 204.501 528.243 201.975 522.971C200.73 520.554 199.448 518.065 198.13 515.502C196.922 512.975 195.384 510.559 193.956 507.923C190.551 502.101 186.707 496.39 182.863 490.678C187.146 488.811 202.194 481.891 207.686 475.85C213.178 469.809 218.45 460.692 216.803 452.235C215.265 443.997 207.247 438.066 198.899 440.482C187.256 443.997 180.336 464.756 180.117 475.63C180.117 476.289 180.776 484.088 181.215 488.372C178.909 484.967 176.492 481.562 173.966 478.267C166.717 468.491 159.028 458.825 151.449 449.159C149.142 446.304 146.836 443.338 144.529 440.372C146.067 439.713 164.19 431.805 170.341 425.105C175.833 419.064 181.105 409.947 179.458 401.49C177.92 393.252 170.012 387.211 161.554 389.737C149.911 393.252 142.991 414.011 142.772 424.885C142.772 425.654 143.76 436.967 144.2 439.823C139.147 433.233 134.095 426.642 129.481 420.052C123.001 410.826 117.289 401.49 112.347 392.043C113.006 391.714 132.008 383.586 138.268 376.666C143.76 370.735 149.033 361.508 147.385 353.051C145.847 344.813 137.829 338.882 129.481 341.408C117.838 344.813 110.919 365.682 110.699 376.446C110.699 377.215 111.468 385.783 111.907 389.847C111.468 389.956 111.578 389.957 111.248 390.066C106.086 379.851 102.351 369.197 99.2758 359.202C97.5184 353.38 96.2003 347.669 94.9921 342.177C98.7266 341.078 115.532 335.587 121.902 329.985C127.944 324.603 134.204 316.145 133.545 307.578C132.886 299.12 125.637 292.42 116.96 293.958C104.987 296.045 95.8708 316.035 94.4429 326.799C94.333 327.349 94.2232 333.39 94.2232 337.783C93.674 335.257 93.1248 332.731 92.6855 330.314C91.0379 321.308 90.1592 312.85 89.3903 305.491C88.951 301.207 88.7313 297.363 88.5116 293.738C91.4772 290.772 103.559 278.471 106.525 270.782C109.491 263.203 111.028 252.768 106.525 245.409C102.132 238.27 92.5756 235.634 85.546 241.016C75.99 248.375 77.0884 270.343 80.7131 280.558C81.0426 281.436 87.6329 294.617 87.7427 294.507L87.9624 294.287C88.0723 297.802 88.2919 301.427 88.6214 305.491C89.1706 312.96 89.9395 321.417 91.3674 330.534C92.7953 339.651 94.5527 349.536 97.4085 359.751C100.264 369.966 103.669 380.62 108.722 391.055C108.795 391.201 108.868 391.348 108.942 391.494C106.525 388.858 99.4954 381.719 98.8364 381.279C90.3789 374.469 70.0588 366.341 59.9536 372.932C52.5945 377.764 52.0453 387.65 57.3175 394.24C62.6996 400.83 73.1342 402.808 81.2623 402.478C90.3789 402.149 108.173 393.361 109.491 392.593C114.433 402.588 120.145 412.364 126.626 422.029C130.25 427.521 134.095 432.903 138.049 438.285C135.852 436.089 133.985 434.221 133.655 433.892C125.198 427.082 104.878 418.954 94.6626 425.654C87.4132 430.377 86.7542 440.372 92.0264 446.853C97.5184 453.553 107.843 455.42 115.971 455.091C124.209 454.871 139.477 447.622 143.541 445.645C145.078 447.731 146.506 449.818 148.154 451.796C155.513 461.681 162.872 471.347 169.902 481.232C172.318 484.637 174.625 488.152 176.931 491.667C175.064 489.69 173.417 488.042 173.087 487.822C164.63 481.012 144.309 472.884 134.204 479.475C126.845 484.308 126.296 494.303 131.568 500.783C136.95 507.483 147.385 509.351 155.513 509.021C163.312 508.802 177.481 502.211 182.314 499.905C184.51 503.529 186.817 507.154 188.794 510.779C190.112 513.305 191.65 515.612 192.748 518.248C193.993 520.811 195.238 523.337 196.483 525.826C198.57 530.659 200.876 535.712 202.853 540.545C204.281 543.84 205.489 547.135 206.807 550.32C204.391 546.806 199.558 540.215 199.119 539.666C191.76 531.648 172.867 520.444 161.884 525.497C153.865 529.231 151.778 538.897 156.062 546.147C160.346 553.506 170.341 557.021 178.469 557.899C187.256 558.998 205.489 553.286 207.686 552.517C209.883 557.899 211.86 563.062 213.727 568.114C219.988 585.139 224.601 599.528 227.677 609.743L235.805 608.315C235.732 608.095 235.658 607.839 235.585 607.546C232.18 597.331 227.237 582.723 220.427 565.478C218.231 560.096 215.924 554.275 213.398 548.343C214.716 547.574 222.075 542.961 228.336 537.689C235.695 543.181 252.72 548.124 255.027 548.783C253.818 554.384 252.61 559.876 251.402 565.039C247.228 582.723 243.164 597.221 240.088 607.546L248.985 605.899C251.731 595.794 255.027 582.393 258.432 566.577C259.64 560.865 260.848 554.714 261.946 548.453C264.363 548.453 283.365 548.893 291.603 545.378C299.072 542.192 307.749 536.042 309.836 527.804C311.813 519.566 307.09 510.888 298.413 509.57C286.44 507.813 271.502 523.849 266.669 533.625C266.34 534.174 264.033 540.765 262.605 544.938C263.045 542.412 263.594 539.886 264.033 537.25C264.912 531.977 265.681 526.705 266.45 520.994C266.816 518.211 267.145 515.428 267.438 512.646C267.768 509.9 267.878 506.934 268.097 503.969C268.427 497.269 268.427 490.349 268.317 483.429C272.93 484.198 289.406 486.834 297.204 484.747C305.113 482.77 314.559 478.047 317.854 470.138C321.149 462.34 317.744 453.004 309.396 450.477C297.754 446.963 280.509 460.473 274.358 469.37C273.919 469.919 270.184 476.839 268.207 480.683C268.097 476.509 268.097 472.335 267.878 468.161C267.109 456.079 266.12 443.777 265.022 431.585C264.729 427.851 264.473 424.116 264.253 420.382C265.791 420.601 285.232 424.116 294.129 421.81C302.037 419.833 311.483 415.109 314.779 407.201C317.964 399.403 314.669 390.066 306.321 387.54C294.678 384.025 277.434 397.535 271.173 406.432C270.733 407.091 265.351 417.087 264.143 419.613C263.594 411.375 263.045 403.247 262.825 395.119C262.496 383.915 262.825 372.822 263.923 362.277C264.692 362.387 285.012 366.122 294.019 363.815C301.927 361.728 311.374 357.005 314.669 349.097C317.964 341.408 314.559 332.072 306.211 329.436C294.568 325.921 277.324 339.431 271.173 348.438C270.733 348.987 266.669 356.566 264.802 360.19C264.473 360.08 264.473 360.081 264.143 359.971C265.461 348.547 268.207 337.783 271.173 327.678C272.93 321.857 275.017 316.365 276.994 311.093C280.729 312.191 297.754 316.914 306.101 315.816C314.12 314.607 324.005 310.983 328.179 303.514C332.353 296.155 330.046 286.489 321.918 282.974C310.824 278.251 292.152 289.784 285.012 298.022C284.683 298.461 281.168 303.404 278.752 307.029C279.74 304.612 280.619 302.196 281.607 299.999C285.232 291.541 289.076 283.963 292.591 277.372C294.568 273.638 296.436 270.233 298.303 267.157C302.477 266.279 319.282 262.764 326.092 257.931C332.682 253.208 339.712 245.409 340.041 236.842C340.261 228.384 333.781 220.915 324.993 221.574Z" fill="#CCCCCC"/>
<path d="M468.116 652.799C476.903 656.644 498.212 656.204 498.212 656.204C498.431 656.095 493.598 642.145 493.269 641.376C488.546 631.491 473.718 615.345 461.745 616.992C453.068 618.2 448.235 626.878 450.102 635.006C452.189 643.353 460.757 649.614 468.116 652.799Z" fill="#CCCCCC"/>
<path d="M684.059 657.523C684.168 657.633 687.903 643.354 688.013 642.365C689.55 631.601 686.036 609.963 675.162 604.691C667.253 600.846 658.466 605.459 655.61 613.368C652.645 621.386 656.379 631.381 660.773 638.191C665.935 646.1 683.949 657.523 684.059 657.523Z" fill="#CCCCCC"/>
<path d="M747.653 580.196C735.571 578.878 721.292 595.464 716.789 605.349C716.459 606.228 712.066 620.287 712.285 620.287H712.505C710.199 622.923 707.782 625.669 705.256 628.855C700.533 634.676 695.151 641.266 689.878 648.845C684.606 656.424 679.114 664.772 674.062 674.108C669.009 683.444 664.176 693.549 660.552 704.533C660.478 704.68 660.442 704.826 660.442 704.973C660.442 701.458 660.332 691.463 660.222 690.694C658.794 679.93 649.787 659.939 637.815 657.742C629.248 656.095 621.889 662.905 621.23 671.252C620.57 679.82 626.721 688.387 632.763 693.769C639.572 699.81 658.575 705.742 660.112 706.181C656.707 716.725 654.071 727.929 652.094 739.242C650.886 745.723 649.897 752.313 649.019 759.013C649.019 755.828 648.909 753.082 648.909 752.752C647.481 741.988 638.474 721.998 626.502 719.801C617.934 718.153 610.575 724.963 609.916 733.311C609.257 741.878 615.408 750.446 621.449 755.828C627.6 761.32 643.637 766.702 647.92 768.02C647.554 770.583 647.225 773.109 646.932 775.599C645.504 787.901 644.076 799.983 642.318 811.955C641.769 816.129 641 820.303 640.232 824.367C640.232 821.621 640.122 819.314 640.122 818.985C638.694 808.221 629.687 788.23 617.715 786.033C609.147 784.386 601.788 791.196 601.129 799.543C600.47 808.111 606.621 816.678 612.662 822.06C618.484 827.333 633.312 832.385 638.364 834.033C637.486 838.207 636.607 842.38 635.508 846.444C634.74 849.19 634.19 851.827 633.202 854.573C632.396 857.209 631.554 859.845 630.676 862.481C628.808 867.533 626.941 872.696 625.074 877.639C623.756 880.934 622.438 884.229 621.23 887.414C621.889 883.24 622.987 875.002 622.987 874.343C623.097 867.094 620.57 855.451 615.518 847.213C615.518 846.115 615.445 845.053 615.298 844.028C613.98 835.68 606.182 829.529 597.724 831.836C585.971 834.911 578.502 855.561 577.953 866.325C577.953 866.984 578.283 874.014 578.612 878.407C578.063 875.881 577.514 873.355 576.855 870.719C575.647 865.556 574.219 860.394 572.791 854.792C571.985 852.156 571.18 849.483 570.374 846.774C569.606 844.138 568.507 841.392 567.519 838.536C565.212 832.275 562.576 825.905 559.72 819.534C564.223 818.546 580.37 814.372 586.85 809.429C593.221 804.486 600.031 796.468 600.031 787.791C599.921 779.443 593.221 772.194 584.434 773.072C572.351 774.391 561.917 793.722 559.72 804.266C559.61 804.926 558.841 812.834 558.512 817.118C556.864 813.273 555.107 809.539 553.24 805.694C547.857 794.82 542.036 784.056 536.325 773.182C534.567 769.887 532.81 766.482 531.052 763.187C532.7 762.857 551.922 758.354 559.171 752.752C565.651 747.919 572.461 739.791 572.351 731.224C572.351 722.766 565.542 715.517 556.864 716.506C544.782 717.824 534.238 737.045 532.041 747.7C531.931 748.469 530.833 759.672 530.723 762.638C526.988 755.279 523.254 747.919 519.849 740.56C515.126 730.345 511.172 720.13 507.986 709.915C508.755 709.696 528.855 705.192 536.215 699.481C542.695 694.538 549.505 686.41 549.395 677.843C549.395 669.495 542.585 662.136 533.908 663.124C521.826 664.442 511.281 683.664 509.085 694.318C508.975 695.087 508.206 703.545 507.876 707.719C507.547 707.719 507.657 707.719 507.217 707.719C503.922 696.735 502.165 685.751 501.066 675.316C500.407 669.275 500.078 663.454 499.858 657.742C503.703 657.303 521.167 654.996 528.416 650.603C535.336 646.429 543.025 639.07 543.903 630.612C544.782 622.264 538.851 614.246 530.064 614.246C517.981 614.246 505.35 632.15 502.055 642.475C501.835 643.134 500.627 648.955 499.858 653.349C499.748 650.713 499.638 648.076 499.748 645.66C499.748 636.434 500.298 628.086 500.847 620.617C501.286 616.333 501.616 612.599 502.055 608.974C505.57 606.558 519.629 596.672 524.023 589.533C528.196 582.613 531.601 572.618 528.526 564.599C525.45 556.801 516.444 552.517 508.645 556.471C497.881 562.073 495.025 583.821 496.893 594.585C497.002 595.464 501.066 609.633 501.286 609.523C501.286 609.523 501.396 609.413 501.506 609.413C500.957 612.818 500.517 616.553 500.078 620.507C499.309 627.976 498.54 636.434 498.32 645.66C498.101 654.886 498.101 664.882 499.089 675.426C499.968 686.08 501.506 697.174 504.581 708.378C504.654 708.524 504.691 708.634 504.691 708.707C502.824 705.742 497.222 697.504 496.673 696.954C489.533 688.717 470.971 677.074 459.877 681.797C451.749 685.202 449.442 694.868 453.506 702.227C457.57 709.696 467.456 713.43 475.474 714.638C484.591 715.956 503.593 710.465 505.13 710.025C508.096 720.68 512.05 731.334 516.663 741.988C519.3 748.029 522.155 754.07 525.011 760.002C523.254 757.475 521.716 755.279 521.496 754.949C514.357 746.711 495.794 735.068 484.591 739.791C476.572 743.196 474.156 752.862 478.22 760.221C482.394 767.8 492.279 771.535 500.298 772.633C508.426 773.841 524.791 769.448 529.075 768.24C530.247 770.51 531.382 772.816 532.48 775.159C537.972 786.143 543.574 797.017 548.626 807.891C550.494 811.736 552.141 815.58 553.789 819.424C552.251 817.227 550.933 815.36 550.713 815.031C543.574 806.793 525.011 795.15 513.808 799.873C505.789 803.278 503.373 812.944 507.437 820.303C511.611 827.882 521.496 831.616 529.515 832.715C537.313 833.923 552.361 829.969 557.523 828.541C559.061 832.495 560.709 836.559 562.027 840.403C562.905 843.149 563.894 845.676 564.553 848.422C565.358 851.204 566.127 853.913 566.86 856.55C568.068 861.712 569.386 867.094 570.484 872.256C571.253 875.771 571.912 879.176 572.681 882.581C570.924 878.737 567.299 871.268 566.969 870.719C561.148 861.492 544.562 847.103 532.81 850.069C524.352 852.266 520.508 861.492 523.364 869.401C526.329 877.419 535.556 882.581 543.354 884.998C551.922 887.524 570.814 885.217 573.12 884.888C574.219 890.49 575.317 895.982 576.196 901.254C579.381 919.157 581.358 934.205 582.566 944.75H590.804C590.804 944.53 590.768 944.31 590.694 944.091C589.267 933.327 586.96 918.059 583.335 899.936C582.237 894.224 580.809 888.073 579.491 881.812C580.919 881.263 588.937 877.968 596.076 874.014C602.337 880.714 618.264 888.622 620.351 889.611C618.154 894.993 615.957 900.155 613.87 904.988C606.621 921.574 599.921 935.194 595.088 944.75H604.205C608.708 935.304 614.42 922.782 620.461 907.734C622.767 902.352 624.964 896.531 627.271 890.49C629.577 891.039 648.25 894.773 657.037 892.796C664.945 891.039 674.501 886.535 678.016 878.737C681.531 871.158 678.345 861.712 670.108 858.856C658.575 855.012 641 868.083 634.52 876.87C634.19 877.309 630.676 883.35 628.479 887.304C629.358 884.778 630.346 882.471 631.225 879.835C633.092 874.893 634.74 869.84 636.607 864.348C637.412 861.712 638.218 859.039 639.023 856.33C639.902 853.694 640.451 850.728 641.22 847.872C642.758 841.282 643.966 834.582 645.174 827.772C649.568 829.31 665.165 834.802 673.293 834.252C681.421 833.703 691.526 830.738 696.249 823.488C700.862 816.459 699.215 806.683 691.416 802.619C680.652 797.017 661.211 807.342 653.522 815.031C653.083 815.47 648.14 821.621 645.504 825.026C646.163 820.852 646.822 816.788 647.371 812.614C648.909 800.532 650.007 788.34 651.215 776.148C651.581 772.413 651.948 768.679 652.314 764.944C653.961 765.494 672.414 772.413 681.531 771.754C689.659 771.205 699.764 768.24 704.487 760.99C708.99 753.961 707.343 744.185 699.654 740.121C688.78 734.629 669.449 744.844 661.76 752.533C661.101 753.082 654.071 761.869 652.424 764.285C653.302 756.048 654.181 747.81 655.499 739.791C657.256 728.698 659.453 717.934 662.529 707.719C663.188 707.938 682.519 715.297 691.856 714.638C699.874 714.089 710.089 711.124 714.702 703.874C719.315 696.845 717.668 687.069 709.869 683.005C699.105 677.403 679.773 687.728 672.085 695.417C671.535 695.856 666.153 702.556 663.627 705.851C663.298 705.632 663.407 705.742 663.078 705.522C666.373 694.538 670.986 684.323 675.819 674.987C678.565 669.605 681.531 664.552 684.496 659.829C687.901 661.477 703.828 669.165 712.285 669.495C720.414 669.824 730.738 668.067 736.23 661.367C741.612 654.886 741.063 645.001 733.704 640.168C723.599 633.358 703.169 641.486 694.711 648.296C694.272 648.626 689.988 652.909 686.913 655.985C688.231 653.898 689.659 651.591 690.977 649.614C696.139 641.925 701.192 635.225 705.805 629.294C708.441 625.999 710.858 623.033 713.274 620.287C717.558 620.177 734.693 619.738 742.271 616.113C749.521 612.708 757.978 606.338 759.736 597.88C761.493 589.642 756.44 581.075 747.653 580.196Z" fill="#CCCCCC"/>
<path d="M96.9702 665.211C105.977 668.177 127.176 665.651 127.176 665.651C127.395 665.651 121.244 652.141 120.805 651.372C115.203 642.036 98.9473 627.427 87.0848 630.173C78.5174 632.15 74.5632 641.267 77.3091 649.285C80.1649 657.413 89.2815 662.685 96.9702 665.211Z" fill="#CCCCCC"/>
<path d="M312.255 649.065C312.474 649.175 314.781 634.567 314.781 633.688C315.22 622.814 309.728 601.615 298.305 597.332C290.067 594.366 281.829 599.748 279.633 607.876C277.546 616.224 282.159 625.67 287.211 632.04C293.143 639.51 312.255 649.065 312.255 649.065Z" fill="#CCCCCC"/>
<path d="M368.162 565.918C356.079 565.808 343.338 583.712 339.933 594.037C339.604 594.915 336.528 609.304 336.748 609.304C336.748 609.304 336.967 609.304 337.077 609.304C334.99 612.05 332.903 615.126 330.597 618.531C326.423 624.682 321.81 631.821 317.306 639.839C312.803 647.858 308.08 656.754 304.016 666.53C299.842 676.306 295.998 686.85 293.472 698.163C293.398 698.31 293.362 698.456 293.362 698.603C293.032 694.978 291.934 685.093 291.824 684.324C289.298 673.779 278.424 654.777 266.341 653.679C257.554 653.02 250.964 660.379 251.074 668.837C251.294 677.404 258.213 685.312 264.804 690.145C272.163 695.527 291.604 699.591 293.142 699.811C290.835 710.685 289.298 721.998 288.309 733.531C287.87 740.122 287.54 746.712 287.211 753.412C286.881 750.337 286.552 747.591 286.442 747.261C284.025 736.607 273.151 717.605 261.069 716.616C252.282 715.847 245.692 723.207 245.802 731.664C245.912 740.232 252.941 748.14 259.531 752.973C266.122 757.806 282.598 761.65 286.991 762.529C286.918 765.092 286.845 767.654 286.771 770.217C286.552 782.519 286.332 794.821 285.673 806.794C285.453 811.077 285.124 815.141 284.794 819.315C284.465 816.679 284.245 814.372 284.135 814.043C281.719 803.389 270.735 784.387 258.653 783.398C249.976 782.629 243.385 789.988 243.495 798.446C243.605 807.013 250.635 814.922 257.115 819.754C263.486 824.368 278.643 827.992 283.806 829.091C283.366 833.374 282.927 837.658 282.268 841.722C281.719 844.578 281.389 847.324 280.73 850.07C280.144 852.852 279.559 855.598 278.973 858.308C277.655 863.47 276.337 868.742 274.909 873.795C273.92 877.31 272.932 880.605 271.943 883.9C272.163 879.726 272.492 871.488 272.492 870.829C271.943 863.58 268.209 852.157 262.387 844.468C262.314 843.37 262.131 842.308 261.838 841.283C259.751 833.155 251.403 827.773 243.166 830.848C231.742 835.132 226.36 856.331 226.8 867.205C226.909 867.864 228.008 874.784 228.667 879.067C227.898 876.651 227.129 874.124 226.25 871.598C224.493 866.546 222.626 861.603 220.649 856.221C219.55 853.658 218.489 851.058 217.463 848.422C216.365 845.786 215.047 843.15 213.839 840.514C210.873 834.473 207.578 828.432 204.173 822.391C208.566 820.853 224.273 815.251 230.205 809.649C236.136 804.157 242.177 795.37 241.188 786.913C240.42 778.565 232.951 771.975 224.383 773.732C212.411 776.149 203.843 796.359 202.745 807.123C202.635 807.892 202.635 815.69 202.745 819.974C200.658 816.35 198.681 812.835 196.374 809.21C190.004 798.885 183.194 788.67 176.384 778.455C174.297 775.27 172.32 772.194 170.233 769.009C171.771 768.46 190.553 762.199 197.253 755.938C203.075 750.446 209.116 741.769 208.237 733.202C207.358 724.854 199.889 718.264 191.322 720.021C179.459 722.548 170.892 742.648 169.684 753.522C169.684 754.291 169.684 765.604 169.903 768.46C165.4 761.54 160.897 754.62 156.833 747.591C151.231 737.815 146.288 728.04 142.114 718.154C142.883 717.934 162.434 711.454 169.244 705.083C175.176 699.591 181.217 690.804 180.228 682.347C179.459 673.999 171.99 667.409 163.423 669.166C151.451 671.583 142.883 691.793 141.785 702.557C141.675 703.326 141.675 711.893 141.895 715.957C141.455 716.067 141.565 716.067 141.126 716.177C136.842 705.523 133.986 694.649 131.899 684.434C130.581 678.502 129.703 672.681 129.044 667.079C132.778 666.31 149.913 662.246 156.723 657.194C163.203 652.361 170.123 644.343 170.233 635.775C170.233 627.318 163.643 619.959 154.856 620.837C142.773 621.936 132.009 641.157 129.703 651.702C129.593 652.251 128.934 658.292 128.494 662.686C128.275 660.159 127.945 657.523 127.725 655.107C126.847 645.88 126.517 637.533 126.407 630.064C126.407 625.78 126.407 621.936 126.517 618.311C129.703 615.565 142.773 604.362 146.398 596.893C149.913 589.533 152.439 579.318 148.485 571.63C144.641 564.161 135.414 560.646 128.055 565.479C117.84 572.069 117.071 593.927 119.927 604.471C120.147 605.35 125.529 619.08 125.748 618.97C125.748 618.97 125.858 618.86 125.968 618.75C125.748 622.265 125.639 626 125.639 630.064C125.639 637.533 125.639 645.99 126.298 655.217C126.957 664.333 127.945 674.329 129.922 684.763C131.899 695.198 134.426 706.072 138.599 716.946C138.673 717.092 138.709 717.239 138.709 717.385C136.513 714.529 130.142 706.951 129.593 706.401C121.794 698.932 102.133 689.047 91.4788 694.868C83.7902 699.042 82.3623 708.928 87.0853 715.847C91.9182 722.877 102.133 725.623 110.261 726.062C119.378 726.502 137.831 719.143 139.259 718.593C143.323 728.918 148.265 739.133 153.867 749.238C157.052 755.06 160.457 760.771 163.972 766.483C161.995 764.066 160.128 761.98 159.908 761.76C152 754.291 132.449 744.405 121.794 750.227C113.996 754.401 112.678 764.286 117.401 771.206C122.234 778.236 132.449 780.982 140.577 781.421C148.705 781.75 164.521 775.819 168.695 774.281C170.086 776.405 171.441 778.565 172.759 780.762C179.349 791.197 185.94 801.521 192.091 811.846C194.288 815.471 196.265 819.205 198.242 822.83C196.484 820.743 194.947 818.986 194.727 818.766C186.928 811.297 167.267 801.411 156.613 807.233C148.924 811.407 147.496 821.182 152.219 828.212C157.052 835.242 167.267 837.988 175.395 838.427C183.194 838.757 197.912 833.374 202.855 831.507C204.832 835.352 206.809 839.196 208.457 842.93C209.555 845.566 210.873 847.983 211.862 850.619C212.887 853.255 213.875 855.891 214.827 858.527C216.585 863.58 218.452 868.742 219.99 873.685C221.088 877.2 222.077 880.495 223.175 883.79C220.978 880.166 216.695 873.026 216.365 872.477C209.665 863.91 191.761 851.278 180.338 855.342C172.1 858.308 169.244 867.864 172.869 875.443C176.604 883.131 186.269 887.415 194.178 889.062C202.965 890.82 221.527 886.646 223.834 886.097C225.482 891.589 227.129 896.971 228.557 902.023C233.39 919.598 236.795 934.316 238.992 944.751L247.23 943.982C247.156 943.762 247.083 943.506 247.01 943.213C244.593 932.778 240.749 917.73 235.477 900.046C233.719 894.445 231.852 888.513 229.875 882.362C231.193 881.703 238.882 877.639 245.582 873.026C252.502 879.067 269.087 885.438 271.284 886.207C269.637 891.699 267.989 897.081 266.341 902.133C260.74 919.378 255.358 933.547 251.513 943.542L260.52 942.664C264.035 932.888 268.538 919.817 273.151 904.33C274.909 898.728 276.556 892.687 278.314 886.426C280.62 886.756 299.622 888.733 308.08 885.877C315.769 883.351 324.885 877.969 327.631 869.841C330.377 861.932 326.313 852.816 317.856 850.839C305.993 848.093 289.737 862.811 284.135 872.147C283.806 872.697 280.95 879.067 279.193 883.131C279.852 880.605 280.511 878.079 281.17 875.443C282.488 870.28 283.696 865.118 285.014 859.516C285.6 856.807 286.149 854.061 286.662 851.278C287.211 848.532 287.54 845.566 287.98 842.711C288.968 836.011 289.517 829.201 289.957 822.281C294.57 823.379 310.716 827.333 318.734 826.015C326.643 824.697 336.528 820.743 340.482 813.054C344.327 805.695 341.8 796.029 333.672 792.844C322.359 788.341 304.016 800.423 297.096 808.771C296.767 809.32 292.373 815.8 290.176 819.535C290.396 815.361 290.616 811.187 290.726 807.013C291.055 794.821 291.055 782.519 291.055 770.327C291.055 766.52 291.092 762.748 291.165 759.014C292.703 759.453 311.814 764.506 320.821 762.968C328.839 761.65 338.615 757.696 342.569 750.117C346.414 742.648 343.887 733.092 335.759 729.797C324.446 725.294 306.213 737.376 299.293 745.723C298.744 746.382 292.593 755.829 291.165 758.355C291.165 750.117 291.385 741.879 291.824 733.751C292.483 722.548 293.691 711.564 295.668 701.129C296.437 701.349 316.318 706.731 325.544 705.193C333.562 703.765 343.338 699.811 347.292 692.232C351.246 684.763 348.61 675.207 340.482 671.912C329.169 667.409 310.936 679.491 304.016 687.949C303.577 688.498 298.854 695.637 296.657 699.152C296.327 698.932 296.437 699.042 295.998 698.822C298.304 687.619 301.929 677.075 305.773 667.299C307.97 661.587 310.496 656.315 312.913 651.262C316.538 652.69 333.123 658.841 341.581 658.292C349.599 657.853 359.814 654.997 364.647 647.858C369.26 640.938 367.832 631.052 360.034 626.988C349.379 621.277 329.828 631.272 322.029 638.851C321.59 639.18 317.746 643.903 315 647.308C316.208 645.002 317.306 642.695 318.515 640.498C322.798 632.37 327.302 625.231 331.256 618.86C333.562 615.345 335.759 612.16 337.736 609.194C342.02 608.755 359.045 606.558 366.184 602.275C373.214 598.101 380.903 590.961 381.891 582.394C382.77 574.046 376.949 566.028 368.162 565.918Z" fill="#CCCCCC"/>
<path d="M801.912 83.0678C801.912 66.4822 788.402 53.0819 771.816 53.0819C755.231 53.0819 741.721 66.4822 741.721 83.0678C741.721 99.7632 755.231 113.163 771.816 113.163C788.402 113.163 801.912 99.7632 801.912 83.0678Z" stroke="#ABABAB" stroke-width="2" stroke-miterlimit="10"/>
<path d="M841.564 91.7454V74.5007H821.573C820.255 67.0317 817.289 60.0021 813.006 54.0708L827.285 39.7918L815.093 27.7096L800.923 41.8788C794.882 37.7049 787.963 34.7393 780.384 33.4212V13.3208H763.249V33.4212C755.67 34.7393 748.75 37.7049 742.709 41.8788L728.54 27.7096L716.348 39.7918L730.627 54.0708C726.343 60.0021 723.378 67.0317 722.06 74.5007H702.069V91.7454H722.06C723.378 99.2144 726.343 106.244 730.627 112.175L716.348 126.344L728.54 138.536L742.709 124.367C748.75 128.541 755.67 131.507 763.249 132.825V152.925H780.384V132.825C787.963 131.507 794.882 128.541 800.923 124.367L815.093 138.536L827.285 126.344L813.006 112.175C817.289 106.244 820.255 99.2144 821.573 91.7454H841.564Z" stroke="#ABABAB" stroke-width="2" stroke-miterlimit="10"/>
<path d="M871.659 192.577C871.659 175.992 858.259 162.592 841.563 162.592C824.978 162.592 811.577 175.992 811.577 192.577C811.577 209.273 824.978 222.673 841.563 222.673C858.259 222.673 871.659 209.273 871.659 192.577Z" stroke="#ABABAB" stroke-width="2" stroke-miterlimit="10"/>
<path d="M911.42 201.254V184.01H891.319C890.001 176.541 887.036 169.511 882.862 163.58L897.031 149.301L884.839 137.219L870.67 151.388C864.738 147.214 857.709 144.248 850.24 142.93V122.83H832.995V142.93C825.526 144.248 818.497 147.214 812.565 151.388L798.286 137.219L786.204 149.301L800.373 163.58C796.089 169.511 793.234 176.541 791.916 184.01H771.815V201.254H791.916C793.234 208.723 796.089 215.753 800.373 221.684L786.204 235.853L798.286 248.045L812.565 233.876C818.497 238.05 825.526 241.016 832.995 242.334V262.434H850.24V242.334C857.709 241.016 864.738 238.05 870.67 233.876L884.839 248.045L897.031 235.853L882.862 221.684C887.036 215.753 890.001 208.723 891.319 201.254H911.42Z" stroke="#ABABAB" stroke-width="2" stroke-miterlimit="10"/>
<path d="M143.102 133.264C143.102 122.28 134.205 113.383 123.221 113.383C112.237 113.383 103.34 122.28 103.34 133.264C103.34 144.248 112.237 153.145 123.221 153.145C134.205 153.145 143.102 144.248 143.102 133.264Z" stroke="#ABABAB" stroke-width="2" stroke-miterlimit="10"/>
<path d="M169.352 138.866V127.553H156.062C155.183 122.61 153.206 117.997 150.46 114.043L159.796 104.597L151.778 96.5785L142.442 106.025C138.488 103.169 133.874 101.192 128.822 100.313V87.1324H117.509V100.313C112.566 101.192 107.953 103.169 103.998 106.025L94.5524 96.5785L86.5342 104.597L95.9803 114.043C93.1245 117.997 91.1474 122.61 90.3785 127.553H77.0881V138.866H90.3785C91.1474 143.919 93.1245 148.532 95.9803 152.486L86.5342 161.823L94.5524 169.841L103.998 160.504C107.953 163.25 112.566 165.228 117.509 166.106V179.397H128.822V166.106C133.874 165.228 138.488 163.25 142.442 160.504L151.778 169.841L159.796 161.823L150.46 152.486C153.206 148.532 155.183 143.919 156.062 138.866H169.352Z" stroke="#ABABAB" stroke-width="2" stroke-miterlimit="10"/>
<path d="M907.576 684.653C907.576 673.669 898.679 664.772 887.695 664.772C876.711 664.772 867.814 673.669 867.814 684.653C867.814 695.636 876.711 704.533 887.695 704.533C898.679 704.533 907.576 695.636 907.576 684.653Z" stroke="#ABABAB" stroke-width="2" stroke-miterlimit="10"/>
<path d="M933.827 690.255V678.941H920.536C919.658 673.999 917.681 669.385 914.935 665.431L924.271 655.985L916.253 647.967L906.916 657.413C902.962 654.557 898.349 652.58 893.296 651.701V638.521H881.983V651.701C877.04 652.58 872.427 654.557 868.473 657.413L859.027 647.967L851.009 655.985L860.455 665.431C857.599 669.385 855.622 673.999 854.853 678.941H841.562V690.255H854.853C855.622 695.307 857.599 699.92 860.455 703.875L851.009 713.211L859.027 721.229L868.473 711.893C872.427 714.639 877.04 716.616 881.983 717.494V730.785H893.296V717.494C898.349 716.616 902.962 714.639 906.916 711.893L916.253 721.229L924.271 713.211L914.935 703.875C917.681 699.92 919.658 695.307 920.536 690.255H933.827Z" stroke="#ABABAB" stroke-width="2" stroke-miterlimit="10"/>
<path d="M649.893 902.463H211.967V91.3066H649.893V902.463Z" fill="white"/>
<path fill-rule="evenodd" clip-rule="evenodd" d="M662.197 83.6181V907.735C662.197 927.176 646.49 942.883 627.049 942.883H239.1C219.658 942.883 203.951 927.176 203.951 907.735V83.6181C203.951 64.1767 219.658 48.4698 239.1 48.4698H627.049C646.49 48.4698 662.197 64.1767 662.197 83.6181ZM641.877 109.21H224.272V889.831H641.877V109.21Z" fill="#174D47"/>
<path opacity="0.3" d="M224.272 109.21H468.552L492.387 48.4698H239.1C219.658 48.4698 203.951 64.1767 203.951 83.6181V784.167L224.272 732.213V109.21Z" fill="white"/>
<path d="M627.71 136.34H593.001V117.338H627.71V136.34Z" stroke="#174D47" stroke-width="1.6" stroke-linecap="round" stroke-linejoin="round"/>
<path d="M620.021 136.34H593.001V117.338H620.021V136.34Z" fill="#174D47" stroke="#174D47" stroke-width="1.5" stroke-linecap="round" stroke-linejoin="round"/>
<path d="M632.432 130.958H627.599V122.61H632.432V130.958Z" fill="#174D47" stroke="#174D47" stroke-width="1.5" stroke-linecap="round" stroke-linejoin="round"/>
<path d="M240.09 123.16H233.72V134.034H240.09V123.16Z" fill="#174D47" stroke="#174D47" stroke-width="1.8" stroke-linecap="round" stroke-linejoin="round"/>
<path d="M250.085 119.426H243.714V134.034H250.085V119.426Z" fill="#174D47" stroke="#174D47" stroke-width="1.8" stroke-linecap="round" stroke-linejoin="round"/>
<path d="M259.972 114.812H253.712V134.034H259.972V114.812Z" fill="#174D47" stroke="#174D47" stroke-width="1.8" stroke-linecap="round" stroke-linejoin="round"/>
<path d="M574.219 401.38L560.159 409.508C560.159 409.508 549.944 419.833 555.107 418.296C560.159 416.868 565.322 413.902 565.322 413.902C565.322 413.902 561.697 420.602 563.894 421.261C566.091 422.03 572.022 415.44 572.022 415.44C572.022 415.44 570.484 422.03 574.219 420.602C577.843 419.064 585.202 410.936 585.202 410.936C585.202 410.936 578.612 400.721 574.219 401.38Z" fill="#C4C4C4" stroke="#174D47" stroke-width="2" stroke-miterlimit="10"/>
<path d="M693.065 457.837L600.361 418.735L583.007 398.524C583.007 398.524 562.357 389.627 556.536 389.627C550.604 389.627 558.732 397.755 563.126 399.183C567.52 400.721 575.648 405.115 575.648 405.115L577.075 416.867C577.075 416.867 563.126 416.867 560.16 416.867C557.305 416.867 558.732 421.261 558.732 421.261L577.075 425.654C577.075 425.654 582.238 429.389 584.435 429.389C586.631 429.389 595.968 434.332 595.968 434.332L685.596 496.39C690.319 499.356 696.03 500.015 701.303 498.148L729.311 488.152L751.828 419.833L693.065 457.837Z" fill="#F2BEB7" stroke="#174D47" stroke-width="2" stroke-miterlimit="10"/>
<path d="M751.827 419.833L693.063 457.838L655.938 442.35L646.821 469.041L685.594 496.391C690.317 499.356 696.029 500.015 701.301 498.148L729.31 488.153L751.827 419.833Z" fill="#95BB7C" stroke="#174D47" stroke-width="2" stroke-miterlimit="10"/>
<path d="M699.431 900.815C699.431 900.815 665.711 912.128 657.693 914.435C649.674 916.851 642.425 918.499 649.674 926.517C656.814 934.535 692.292 935.414 702.726 935.414C713.161 935.414 720.41 941.016 722.827 934.535C725.243 928.164 725.243 910.48 725.243 910.48L699.431 900.815Z" fill="#95BB7C" stroke="#174D47" stroke-width="2" stroke-miterlimit="10"/>
<path d="M723.817 930.691C714.81 930.361 697.785 929.592 677.685 926.956C661.539 924.869 652.092 921.904 646.93 919.707C646.161 921.245 646.82 923.442 649.676 926.517C656.815 934.535 692.293 935.414 702.728 935.414C713.163 935.414 720.412 941.016 722.828 934.535C723.158 933.547 723.487 932.229 723.817 930.691Z" fill="white" stroke="#174D47" stroke-width="2" stroke-miterlimit="10"/>
<path d="M801.58 908.833C801.58 908.833 775.878 928.164 768.628 932.118C761.379 936.182 759.731 942.663 766.212 942.663C772.582 942.663 824.865 944.2 832.115 939.368C839.364 934.535 828.929 911.249 828.929 911.249C828.929 911.249 809.598 908.833 801.58 908.833Z" fill="#95BB7C" stroke="#174D47" stroke-width="2" stroke-miterlimit="10"/>
<path d="M832.116 939.368C834.202 938.05 834.752 935.194 834.642 931.789C800.482 937.501 774.89 936.842 763.686 936.183C761.16 939.478 761.709 942.663 766.213 942.663C772.583 942.663 824.866 944.201 832.116 939.368Z" fill="white" stroke="#174D47" stroke-width="2" stroke-miterlimit="10"/>
<path d="M732.493 549.552C732.493 549.552 704.265 680.479 702.727 709.476C701.079 738.364 699.432 870.279 699.432 877.529C699.432 884.778 699.432 900.815 699.432 900.815L725.244 910.48C725.244 910.48 737.216 841.282 739.633 819.534C742.049 797.896 743.697 773.732 746.882 762.528C750.067 751.215 756.548 705.412 758.964 695.746C761.381 686.081 765.335 655.655 763.358 600.626C761.49 545.707 739.303 536.042 732.493 549.552Z" fill="#174D47" stroke="#174D47" stroke-width="2" stroke-miterlimit="10"/>
<path d="M727.66 538.898C727.66 538.898 728.648 582.284 729.637 624.792C730.625 667.189 735.678 709.477 743.696 748.03C751.714 786.583 783.128 870.39 786.313 884.01C789.499 897.74 800.812 912.129 800.812 912.129C800.812 912.129 818.496 913.666 828.931 911.25C828.931 911.25 818.496 854.903 816.849 824.368C815.201 793.833 795.979 750.447 791.915 740.012C787.961 729.577 804.876 655.656 804.876 655.656C804.876 655.656 828.052 613.149 822.231 586.128C816.409 559.218 800.043 543.731 800.043 543.731C800.043 543.731 742.159 551.42 727.66 538.898Z" fill="#174D47" stroke="#174D47" stroke-width="2" stroke-miterlimit="10"/>
<path d="M730.845 599.419C730.845 599.419 737.326 692.013 741.06 718.264C744.795 744.516 748.529 754.84 748.529 754.84" stroke="white" stroke-width="2" stroke-linecap="round" stroke-linejoin="round"/>
<path d="M794.334 395.888C794.334 395.888 784.668 388.639 763.799 403.906C742.93 419.174 726.893 450.917 724.697 466.954C722.5 483.869 722.39 527.035 722.39 536.591C722.39 546.257 721.621 552.188 733.154 556.142C744.797 559.987 798.947 554.605 806.746 550.65C814.435 546.806 801.803 533.735 803.451 516.051C805.098 498.367 817.181 466.404 816.412 441.471C815.643 416.538 797.519 399.073 794.334 395.888Z" fill="#95BB7C" stroke="#174D47" stroke-width="2" stroke-miterlimit="10"/>
<path d="M754.899 304.283C754.899 304.283 745.343 316.255 745.343 324.383C745.343 332.402 743.476 340.64 738.643 344.594C733.92 348.658 734.03 352.502 738.094 353.271C742.048 354.04 742.048 354.04 742.048 354.04C742.048 354.04 744.355 371.614 747.54 378.094C750.835 384.465 762.149 378.973 764.565 378.204C766.982 377.435 763.796 401.49 763.796 403.906C763.796 406.323 787.961 403.138 791.146 403.138C794.331 403.138 792.684 374.14 795.979 365.353C799.164 356.456 809.599 345.253 796.748 325.921C783.897 306.7 762.149 290.553 754.899 304.283Z" fill="#F2BEB7" stroke="#174D47" stroke-width="2" stroke-miterlimit="10"/>
<path d="M751.384 340.09C751.384 342.068 752.263 343.715 753.251 343.715C754.24 343.715 755.009 342.068 755.009 340.09C755.009 338.113 754.24 336.466 753.251 336.466C752.263 336.466 751.384 338.113 751.384 340.09Z" fill="#174D47"/>
<path d="M746.552 360.301C746.552 360.301 749.188 363.486 755.449 359.202" stroke="#174D47" stroke-width="2" stroke-linecap="round" stroke-linejoin="round"/>
<path d="M748.638 329.985C748.638 329.985 753.361 324.274 759.073 331.523" stroke="#174D47" stroke-width="2" stroke-linecap="round" stroke-linejoin="round"/>
<path d="M777.748 390.726C777.748 390.726 756.879 398.195 753.474 403.247C750.179 408.19 747.653 416.538 752.705 416.538C757.648 416.538 779.396 401.929 785.217 400.721C791.039 399.403 785.217 383.147 777.748 390.726Z" fill="white" stroke="#174D47" stroke-width="2" stroke-miterlimit="10"/>
<path d="M754.903 304.283C754.903 304.283 757.32 320.319 767.864 333.939C778.299 347.669 788.733 344.484 786.317 355.687C783.9 367 766.216 383.037 773.466 400.721C780.715 418.405 796.752 421.59 799.937 428.839C803.232 436.089 810.372 438.505 802.353 467.393C794.335 496.39 782.253 519.676 792.687 547.025C803.232 574.375 830.472 581.624 851.451 571.959C872.32 562.293 859.469 531.758 864.302 513.305C869.135 494.742 910.874 480.354 896.485 428.839C881.986 377.435 848.156 363.705 839.369 346.021C830.472 328.337 832.119 298.571 813.667 286.599C795.104 274.517 774.235 284.951 766.985 286.599C759.736 288.137 755.782 276.054 741.283 281.766C726.785 287.368 718.217 314.498 743.919 320.099C743.919 320.099 748.533 309.885 754.903 304.283Z" fill="#363C3B" stroke="#363C3B" stroke-width="2" stroke-miterlimit="10"/>
<path d="M767.314 312.74C767.314 312.74 767.863 319.99 772.037 328.886" stroke="white" stroke-width="2" stroke-linecap="round" stroke-linejoin="round"/>
<path d="M853.757 380.291C853.757 380.291 856.943 385.014 860.897 392.703" stroke="white" stroke-width="2" stroke-linecap="round" stroke-linejoin="round"/>
<path d="M760.941 429.499C760.941 429.499 750.507 455.53 750.507 470.249C750.507 484.967 745.344 529.891 745.344 529.891C745.344 529.891 704.594 562.842 690.755 572.288C676.915 581.844 669.995 588.544 669.995 588.544L669.776 588.654L646.16 595.245C646.16 595.245 626.28 612.929 627.707 617.322C629.245 621.716 636.604 616.663 636.604 616.663C636.604 616.663 660.11 612.929 667.469 609.304C674.828 605.569 677.794 601.505 677.794 601.505C677.794 601.505 748.749 572.288 757.427 569.762C766.104 567.126 777.307 561.085 777.307 561.085C777.307 561.085 790.268 497.928 794.662 478.047C798.616 459.594 801.911 441.91 794.881 432.574" fill="#F2BEB7"/>
<path d="M760.941 429.499C760.941 429.499 750.507 455.53 750.507 470.249C750.507 484.967 745.344 529.891 745.344 529.891C745.344 529.891 704.594 562.842 690.755 572.288C676.915 581.844 669.995 588.544 669.995 588.544L669.776 588.654L646.16 595.245C646.16 595.245 626.28 612.929 627.707 617.322C629.245 621.716 636.604 616.663 636.604 616.663C636.604 616.663 660.11 612.929 667.469 609.304C674.828 605.569 677.794 601.505 677.794 601.505C677.794 601.505 748.749 572.288 757.427 569.762C766.104 567.126 777.307 561.085 777.307 561.085C777.307 561.085 790.268 497.928 794.662 478.047C798.616 459.594 801.911 441.91 794.881 432.574" stroke="#174D47" stroke-width="2" stroke-miterlimit="10"/>
<path d="M627.708 617.322L637.154 610.402L645.502 606.667" stroke="#174D47" stroke-width="2" stroke-linecap="round" stroke-linejoin="round"/>
<path d="M633.419 608.096C633.419 608.096 641.767 601.286 644.732 600.517" stroke="#174D47" stroke-width="2" stroke-linecap="round" stroke-linejoin="round"/>
<path d="M761.93 427.521C761.93 427.521 750.507 455.53 750.507 470.249C750.507 484.967 745.345 529.891 745.345 529.891C745.345 529.891 728.979 543.181 713.382 555.263L737.326 577.341C747.102 573.497 754.901 570.531 757.427 569.762C766.104 567.126 777.307 561.085 777.307 561.085C777.307 561.085 790.268 497.928 794.662 478.047C798.616 459.594 801.911 441.91 794.882 432.574" fill="#95BB7C"/>
<path d="M761.93 427.521C761.93 427.521 750.507 455.53 750.507 470.249C750.507 484.967 745.345 529.891 745.345 529.891C745.345 529.891 728.979 543.181 713.382 555.263L737.326 577.341C747.102 573.497 754.901 570.531 757.427 569.762C766.104 567.126 777.308 561.085 777.308 561.085C777.308 561.085 790.268 497.928 794.662 478.047C798.616 459.594 801.911 441.91 794.882 432.574" stroke="#174D47" stroke-width="2" stroke-miterlimit="10"/>
<path d="M989.956 944.75H1006.21" stroke="#174D47" stroke-width="2" stroke-linecap="round" stroke-linejoin="round"/>
<path d="M149.144 944.75H973.042" stroke="#174D47" stroke-width="2" stroke-linecap="round" stroke-linejoin="round"/>
<path d="M22.0603 944.75H134.425" stroke="#174D47" stroke-width="2" stroke-linecap="round" stroke-linejoin="round"/>
<g filter="url(#filter0_d_110_4617)">
<circle cx="438" cy="434" r="90" fill="white"/>
<path fill-rule="evenodd" clip-rule="evenodd" d="M451.194 407.686C451.194 407.073 451.194 389.828 451.194 389.268C449.733 375.192 425.5 375.769 425.047 389.915C425.047 394.87 424.883 405.9 424.862 410.784C424.859 412.374 424.488 413.947 423.77 415.414C423.051 416.881 422 418.213 420.676 419.334C419.351 420.454 417.78 421.341 416.052 421.944C414.324 422.547 412.473 422.854 410.606 422.847C409.557 422.847 387.771 422.987 386.085 422.847C382.658 422.81 379.355 423.933 376.901 425.968C374.448 428.004 373.045 430.786 373.001 433.702C372.957 436.618 374.277 439.429 376.669 441.517C379.06 443.605 382.329 444.799 385.755 444.837H407.006C434.119 444.837 451.132 436.678 451.132 416.965L451.194 407.686Z" fill="#174D47" fill-opacity="0.74"/>
<path fill-rule="evenodd" clip-rule="evenodd" d="M424.615 459.559C424.615 460.172 424.927 477.549 424.927 478.11C426.388 492.116 450.58 491.573 451.115 477.462C451.115 472.507 451.28 461.477 451.3 456.61C451.3 455.02 451.669 453.444 452.387 451.975C453.104 450.506 454.155 449.172 455.479 448.05C456.804 446.927 458.376 446.039 460.105 445.435C461.835 444.831 463.687 444.523 465.556 444.53C466.605 444.53 488.391 444.39 490.078 444.53C491.813 444.605 493.548 444.381 495.18 443.872C496.811 443.362 498.305 442.578 499.572 441.566C500.839 440.554 501.853 439.335 502.553 437.981C503.254 436.628 503.626 435.168 503.649 433.69C503.671 432.211 503.342 430.744 502.682 429.375C502.023 428.007 501.046 426.766 499.809 425.727C498.573 424.688 497.103 423.872 495.488 423.327C493.872 422.783 492.144 422.521 490.407 422.558H469.115C442.002 422.541 424.927 430.663 424.927 450.341L424.615 459.559Z" fill="#95BB7C"/>
</g>
<defs>
<filter id="filter0_d_110_4617" x="338" y="334" width="200" height="200" filterUnits="userSpaceOnUse" color-interpolation-filters="sRGB">
<feFlood flood-opacity="0" result="BackgroundImageFix"/>
<feColorMatrix in="SourceAlpha" type="matrix" values="0 0 0 0 0 0 0 0 0 0 0 0 0 0 0 0 0 0 127 0" result="hardAlpha"/>
<feOffset/>
<feGaussianBlur stdDeviation="5"/>
<feComposite in2="hardAlpha" operator="out"/>
<feColorMatrix type="matrix" values="0 0 0 0 0 0 0 0 0 0 0 0 0 0 0 0 0 0 0.25 0"/>
<feBlend mode="normal" in2="BackgroundImageFix" result="effect1_dropShadow_110_4617"/>
<feBlend mode="normal" in="SourceGraphic" in2="effect1_dropShadow_110_4617" result="shape"/>
</filter>
</defs>
</svg>
