<svg width="265" height="74" viewBox="0 0 265 74" fill="none" xmlns="http://www.w3.org/2000/svg">
<path d="M115.994 38.7273H119.403L120.852 40.5767L122.753 42.7585L125.676 46.3636H121.858L119.812 43.9176L118.602 42.179L115.994 38.7273ZM125.795 36.2727C125.795 38.1932 125.426 39.821 124.688 41.1562C123.949 42.4915 122.949 43.5057 121.688 44.1989C120.432 44.892 119.023 45.2386 117.46 45.2386C115.892 45.2386 114.48 44.8892 113.224 44.1903C111.969 43.4915 110.972 42.4773 110.233 41.1477C109.5 39.8125 109.134 38.1875 109.134 36.2727C109.134 34.3523 109.5 32.7244 110.233 31.3892C110.972 30.054 111.969 29.0398 113.224 28.3466C114.48 27.6534 115.892 27.3068 117.46 27.3068C119.023 27.3068 120.432 27.6534 121.688 28.3466C122.949 29.0398 123.949 30.054 124.688 31.3892C125.426 32.7244 125.795 34.3523 125.795 36.2727ZM121.483 36.2727C121.483 35.1364 121.321 34.1761 120.997 33.392C120.679 32.608 120.219 32.0142 119.616 31.6108C119.02 31.2074 118.301 31.0057 117.46 31.0057C116.625 31.0057 115.906 31.2074 115.304 31.6108C114.702 32.0142 114.239 32.608 113.915 33.392C113.597 34.1761 113.438 35.1364 113.438 36.2727C113.438 37.4091 113.597 38.3693 113.915 39.1534C114.239 39.9375 114.702 40.5312 115.304 40.9347C115.906 41.3381 116.625 41.5398 117.46 41.5398C118.301 41.5398 119.02 41.3381 119.616 40.9347C120.219 40.5312 120.679 39.9375 120.997 39.1534C121.321 38.3693 121.483 37.4091 121.483 36.2727ZM136.728 39.3494V31.9091H140.887V45H136.915V42.5625H136.779C136.489 43.3636 135.995 44 135.296 44.4716C134.603 44.9375 133.765 45.1705 132.782 45.1705C131.89 45.1705 131.106 44.9659 130.43 44.5568C129.754 44.1477 129.228 43.5767 128.853 42.8438C128.478 42.1051 128.288 41.2415 128.282 40.2528V31.9091H132.45V39.4347C132.455 40.1449 132.643 40.7045 133.012 41.1136C133.381 41.5227 133.884 41.7273 134.521 41.7273C134.935 41.7273 135.308 41.6364 135.637 41.4545C135.972 41.267 136.237 40.9972 136.43 40.6449C136.629 40.2869 136.728 39.8551 136.728 39.3494ZM143.54 45V31.9091H147.707V45H143.54ZM145.628 30.3835C145.043 30.3835 144.54 30.1903 144.119 29.804C143.699 29.4119 143.489 28.9403 143.489 28.3892C143.489 27.8437 143.699 27.3778 144.119 26.9915C144.54 26.5994 145.043 26.4034 145.628 26.4034C146.219 26.4034 146.722 26.5994 147.136 26.9915C147.557 27.3778 147.767 27.8437 147.767 28.3892C147.767 28.9403 147.557 29.4119 147.136 29.804C146.722 30.1903 146.219 30.3835 145.628 30.3835ZM156.471 45.2472C155.09 45.2472 153.906 44.9631 152.917 44.3949C151.934 43.8267 151.178 43.0369 150.65 42.0256C150.121 41.0085 149.857 39.8324 149.857 38.4972C149.857 37.1562 150.121 35.9801 150.65 34.9688C151.184 33.9517 151.942 33.1591 152.925 32.5909C153.914 32.0227 155.093 31.7386 156.462 31.7386C157.673 31.7386 158.727 31.9574 159.624 32.3949C160.528 32.8324 161.232 33.4517 161.738 34.2528C162.249 35.0483 162.519 35.983 162.548 37.0568H158.653C158.573 36.3864 158.346 35.8608 157.971 35.4801C157.602 35.0994 157.119 34.9091 156.522 34.9091C156.039 34.9091 155.616 35.0455 155.252 35.3182C154.888 35.5852 154.604 35.983 154.4 36.5114C154.201 37.0341 154.102 37.6818 154.102 38.4545C154.102 39.2273 154.201 39.8807 154.4 40.4148C154.604 40.9432 154.888 41.3437 155.252 41.6165C155.616 41.8835 156.039 42.017 156.522 42.017C156.908 42.017 157.249 41.9347 157.545 41.7699C157.846 41.6051 158.093 41.3636 158.286 41.0455C158.479 40.7216 158.602 40.3295 158.653 39.8693H162.548C162.508 40.9489 162.238 41.892 161.738 42.6989C161.244 43.5057 160.548 44.1335 159.65 44.5824C158.758 45.0256 157.698 45.2472 156.471 45.2472ZM168.439 41.5653L168.456 36.5966H169.036L172.717 31.9091H177.439L171.967 38.625H170.868L168.439 41.5653ZM164.68 45V27.5455H168.848V45H164.68ZM172.811 45L169.385 39.5625L172.129 36.6051L177.626 45H172.811ZM178.93 45V31.9091H182.893V34.3125H183.038C183.311 33.517 183.771 32.8892 184.419 32.429C185.067 31.9688 185.839 31.7386 186.737 31.7386C187.646 31.7386 188.425 31.9716 189.072 32.4375C189.72 32.9034 190.132 33.5284 190.308 34.3125H190.445C190.689 33.5341 191.166 32.9119 191.876 32.446C192.587 31.9744 193.425 31.7386 194.391 31.7386C195.629 31.7386 196.635 32.1364 197.408 32.9318C198.18 33.7216 198.567 34.8068 198.567 36.1875V45H194.399V37.142C194.399 36.4886 194.232 35.9915 193.896 35.6506C193.561 35.304 193.126 35.1307 192.592 35.1307C192.018 35.1307 191.567 35.3182 191.237 35.6932C190.913 36.0625 190.751 36.5597 190.751 37.1847V45H186.746V37.0994C186.746 36.4915 186.581 36.0114 186.251 35.6591C185.922 35.3068 185.487 35.1307 184.947 35.1307C184.584 35.1307 184.263 35.2187 183.984 35.3949C183.706 35.5653 183.487 35.8097 183.328 36.1278C183.175 36.446 183.098 36.821 183.098 37.2528V45H178.93ZM207.268 45.2472C205.899 45.2472 204.717 44.9773 203.723 44.4375C202.734 43.892 201.973 43.1165 201.439 42.1108C200.911 41.0994 200.646 39.8977 200.646 38.5057C200.646 37.1534 200.913 35.9716 201.447 34.9602C201.982 33.9432 202.734 33.1534 203.706 32.5909C204.678 32.0227 205.822 31.7386 207.141 31.7386C208.072 31.7386 208.925 31.8835 209.697 32.1733C210.47 32.4631 211.138 32.892 211.7 33.4602C212.263 34.0284 212.7 34.7301 213.013 35.5653C213.325 36.3949 213.482 37.3466 213.482 38.4205V39.4602H202.104V37.0398H209.604C209.598 36.5966 209.493 36.2017 209.288 35.8551C209.084 35.5085 208.803 35.2386 208.445 35.0455C208.092 34.8466 207.686 34.7472 207.226 34.7472C206.76 34.7472 206.342 34.8523 205.973 35.0625C205.604 35.267 205.311 35.5483 205.095 35.9062C204.879 36.2585 204.766 36.6591 204.754 37.108V39.571C204.754 40.1051 204.859 40.5739 205.07 40.9773C205.28 41.375 205.578 41.6847 205.964 41.9062C206.351 42.1278 206.811 42.2386 207.345 42.2386C207.714 42.2386 208.05 42.1875 208.351 42.0852C208.652 41.983 208.911 41.8324 209.126 41.6335C209.342 41.4347 209.504 41.1903 209.612 40.9006L213.439 41.0114C213.28 41.8693 212.93 42.6165 212.391 43.2528C211.857 43.8835 211.155 44.375 210.286 44.7273C209.416 45.0739 208.411 45.2472 207.268 45.2472ZM220.391 45.1875C219.425 45.1875 218.548 44.9375 217.758 44.4375C216.968 43.9375 216.337 43.1875 215.866 42.1875C215.394 41.1875 215.158 39.946 215.158 38.4631C215.158 36.9233 215.403 35.6562 215.891 34.6619C216.38 33.6676 217.019 32.9318 217.809 32.4545C218.604 31.9773 219.46 31.7386 220.374 31.7386C221.062 31.7386 221.65 31.858 222.138 32.0966C222.627 32.3295 223.031 32.6307 223.349 33C223.667 33.3693 223.908 33.7528 224.073 34.1506H224.158V27.5455H228.326V45H224.201V42.8778H224.073C223.897 43.2812 223.647 43.6591 223.323 44.0114C222.999 44.3636 222.593 44.6477 222.104 44.8636C221.621 45.0795 221.05 45.1875 220.391 45.1875ZM221.84 41.9403C222.346 41.9403 222.778 41.7983 223.136 41.5142C223.494 41.2244 223.769 40.8182 223.962 40.2955C224.156 39.7727 224.252 39.1591 224.252 38.4545C224.252 37.7386 224.156 37.1222 223.962 36.6051C223.775 36.0881 223.499 35.6903 223.136 35.4119C222.778 35.1335 222.346 34.9943 221.84 34.9943C221.323 34.9943 220.886 35.1364 220.528 35.4205C220.17 35.7045 219.897 36.1051 219.71 36.6222C219.528 37.1392 219.437 37.75 219.437 38.4545C219.437 39.1591 219.531 39.7727 219.718 40.2955C219.906 40.8182 220.175 41.2244 220.528 41.5142C220.886 41.7983 221.323 41.9403 221.84 41.9403ZM242.391 35.9062L238.564 36.0085C238.524 35.7358 238.416 35.4943 238.24 35.2841C238.064 35.0682 237.834 34.9006 237.55 34.7812C237.271 34.6562 236.947 34.5938 236.578 34.5938C236.095 34.5938 235.683 34.6903 235.342 34.8835C235.007 35.0767 234.842 35.3381 234.848 35.6676C234.842 35.9233 234.945 36.1449 235.155 36.3324C235.371 36.5199 235.754 36.6705 236.305 36.7841L238.828 37.2614C240.135 37.5114 241.107 37.9261 241.743 38.5057C242.385 39.0852 242.709 39.8523 242.714 40.8068C242.709 41.7045 242.442 42.4858 241.913 43.1506C241.391 43.8153 240.675 44.3324 239.766 44.7017C238.857 45.0653 237.817 45.2472 236.646 45.2472C234.777 45.2472 233.303 44.8636 232.223 44.0966C231.149 43.3239 230.536 42.2898 230.382 40.9943L234.499 40.892C234.589 41.3693 234.825 41.733 235.206 41.983C235.587 42.233 236.072 42.358 236.663 42.358C237.197 42.358 237.632 42.2585 237.967 42.0597C238.303 41.8608 238.473 41.5966 238.479 41.267C238.473 40.9716 238.342 40.7358 238.087 40.5597C237.831 40.3778 237.43 40.2358 236.885 40.1335L234.601 39.6989C233.288 39.4602 232.311 39.0199 231.669 38.3778C231.027 37.7301 230.709 36.9062 230.714 35.9062C230.709 35.0312 230.942 34.2841 231.413 33.6648C231.885 33.0398 232.555 32.5625 233.425 32.233C234.294 31.9034 235.32 31.7386 236.501 31.7386C238.274 31.7386 239.672 32.1108 240.695 32.8551C241.717 33.5937 242.283 34.6108 242.391 35.9062Z" fill="#95BB7C"/>
<g filter="url(#filter0_d_62_4675)">
<circle cx="66" cy="37" r="27" fill="white"/>
<path fill-rule="evenodd" clip-rule="evenodd" d="M69.9581 29.1057C69.9581 28.9219 69.9581 23.7484 69.9581 23.5803C69.5199 19.3575 62.2499 19.5308 62.1142 23.7746C62.1142 25.261 62.0648 28.57 62.0586 30.0353C62.0578 30.5121 61.9465 30.9841 61.7309 31.4242C61.5154 31.8644 61.2 32.264 60.8027 32.6001C60.4054 32.9363 59.934 33.2025 59.4156 33.3833C58.8973 33.5642 58.342 33.6562 57.7818 33.6542C57.467 33.6542 50.9314 33.6962 50.4254 33.6542C49.3975 33.643 48.4065 33.9798 47.6704 34.5905C46.9343 35.2012 46.5134 36.0358 46.5003 36.9106C46.4872 37.7854 46.883 38.6288 47.6006 39.2552C48.3181 39.8817 49.2987 40.2399 50.3266 40.251H56.7018C64.8358 40.251 69.9396 37.8034 69.9396 31.8894L69.9581 29.1057Z" fill="#95BB7C"/>
<path fill-rule="evenodd" clip-rule="evenodd" d="M61.9844 44.6677C61.9844 44.8515 62.0782 50.0648 62.0782 50.2329C62.5164 54.4347 69.7741 54.2719 69.9345 50.0386C69.9345 48.5522 69.9839 45.2432 69.9901 43.7831C69.9901 43.3059 70.1008 42.8333 70.316 42.3926C70.5311 41.9519 70.8464 41.5516 71.2438 41.2149C71.6412 40.8782 72.1128 40.6116 72.6316 40.4304C73.1504 40.2492 73.7061 40.157 74.2669 40.159C74.5816 40.159 81.1172 40.117 81.6233 40.159C82.1439 40.1815 82.6645 40.1143 83.1539 39.9615C83.6433 39.8087 84.0915 39.5734 84.4716 39.2698C84.8517 38.9662 85.1559 38.6004 85.3661 38.1944C85.5762 37.7884 85.6879 37.3505 85.6946 36.9069C85.7012 36.4633 85.6026 36.0231 85.4047 35.6126C85.2068 35.2022 84.9137 34.8299 84.5428 34.5182C84.1719 34.2064 83.7309 33.9615 83.2463 33.7981C82.7616 33.6348 82.2432 33.5563 81.722 33.5674H75.3346C67.2005 33.5622 62.0782 35.9989 62.0782 41.9024L61.9844 44.6677Z" fill="#95BB7C" fill-opacity="0.49"/>
</g>
<defs>
<filter id="filter0_d_62_4675" x="29" y="0" width="74" height="74" filterUnits="userSpaceOnUse" color-interpolation-filters="sRGB">
<feFlood flood-opacity="0" result="BackgroundImageFix"/>
<feColorMatrix in="SourceAlpha" type="matrix" values="0 0 0 0 0 0 0 0 0 0 0 0 0 0 0 0 0 0 127 0" result="hardAlpha"/>
<feOffset/>
<feGaussianBlur stdDeviation="5"/>
<feComposite in2="hardAlpha" operator="out"/>
<feColorMatrix type="matrix" values="0 0 0 0 0 0 0 0 0 0 0 0 0 0 0 0 0 0 0.25 0"/>
<feBlend mode="normal" in2="BackgroundImageFix" result="effect1_dropShadow_62_4675"/>
<feBlend mode="normal" in="SourceGraphic" in2="effect1_dropShadow_62_4675" result="shape"/>
</filter>
</defs>
</svg>
