<svg width="545" height="380" viewBox="0 0 545 380" fill="none" xmlns="http://www.w3.org/2000/svg">
<path opacity="0.5" d="M339.926 374.935H289.108H262.23C251.796 374.935 243.287 366.392 243.287 355.958L243.321 168.183C243.321 157.749 251.863 149.24 262.297 149.24H286.136H339.994C350.428 149.24 358.97 157.783 358.97 168.217L358.903 355.992C358.903 366.426 350.36 374.935 339.926 374.935Z" fill="#174D47" fill-opacity="0.39"/>
<path fill-rule="evenodd" clip-rule="evenodd" d="M342.763 332.153C342.661 332.153 342.56 332.153 342.459 332.187C343.202 332.491 343.978 332.896 344.654 333.403C346.679 334.956 347.895 337.184 348.199 339.548C348.503 341.912 347.929 344.377 346.376 346.403L334.253 362.239C331.147 366.291 325.305 367.068 321.287 363.961C317.235 360.855 316.459 355.013 319.531 350.995L321.692 348.158C321.017 347.551 320.409 346.875 319.937 346.065C319.869 346.166 319.801 346.301 319.7 346.403L313.656 354.304L307.578 362.239C304.505 366.291 298.664 367.068 294.612 363.961C290.56 360.855 289.783 355.013 292.89 350.961L298.934 343.06L301.162 340.19L299.542 341.27C297.684 342.553 295.49 343.06 293.396 342.857C293.092 344.107 292.552 345.322 291.742 346.369L285.664 354.304L279.619 362.239C276.513 366.257 270.671 367.034 266.619 363.961C265.302 362.948 264.357 361.665 263.749 360.213C261.183 362.982 257.097 364.029 253.417 362.509C251.053 361.564 249.331 359.707 248.419 357.512C247.508 355.317 247.406 352.785 248.385 350.421L252.201 341.203L256.017 331.984C256.827 330.026 258.245 328.506 259.934 327.527C259.461 325.434 259.697 323.205 260.676 321.28C259.697 321.584 258.65 321.719 257.536 321.652C255.004 321.551 252.741 320.369 251.154 318.613C249.567 316.857 248.656 314.493 248.757 311.961L249.263 302L249.77 292.039C249.973 288.291 252.37 285.184 255.612 283.901L253.147 277.992L249.331 268.807C247.339 264.08 249.601 258.644 254.295 256.685C258.988 254.727 264.425 256.955 266.417 261.649L270.232 270.867L271.245 273.265C272.022 270.124 274.453 267.457 277.796 266.545L287.419 263.911L297.043 261.278C297.853 261.041 298.697 260.94 299.508 260.94C296.368 257.597 296.097 252.329 299.103 248.683C302.344 244.766 308.22 244.192 312.136 247.467L327.5 260.163C330.472 262.594 331.518 266.545 330.472 269.989C331.316 271.813 331.586 273.805 331.214 275.662C330.944 277.114 330.337 278.498 329.425 279.68C331.316 279.748 333.173 280.356 334.794 281.571C335.57 282.179 336.212 282.854 336.752 283.631L333.24 269.01C332.059 264.046 335.131 259.015 340.095 257.833C342.56 257.259 345.059 257.732 347.085 258.981C349.111 260.197 350.664 262.223 351.238 264.688L353.568 274.413L355.898 284.104C357.08 289.067 354.007 294.065 349.043 295.247C344.586 296.327 340.061 293.93 338.339 289.81C338.204 291.33 337.698 292.849 336.752 294.2C337.022 294.132 337.292 294.076 337.563 294.031C340.095 293.693 342.526 294.402 344.417 295.854C346.308 297.273 347.659 299.434 347.996 301.966L349.347 311.826L350.698 321.719C351.407 326.784 347.828 331.444 342.763 332.153ZM266.653 315.777L270.874 312.839C270.503 312.602 270.131 312.4 269.76 312.096C268.78 311.387 268.004 310.475 267.43 309.496L267.261 312.873C267.227 313.886 266.991 314.865 266.653 315.777ZM329.594 303.587L324.394 310.408C323.651 311.319 322.807 312.062 321.861 312.636C324.056 312.332 326.217 312.839 328.007 313.919C329.459 314.831 330.674 316.148 331.485 317.735L329.661 304.465C329.616 304.172 329.594 303.879 329.594 303.587ZM308.523 272.15L310.921 270.496L308.591 268.571C308.827 269.787 308.794 270.969 308.523 272.15ZM318.248 287.919L310.955 292.95C310.313 293.389 309.672 293.727 308.962 293.997C309.807 295.145 310.381 296.462 310.617 297.914L318.248 287.919ZM318.316 313.919C315.952 314.257 313.42 313.683 311.394 312.13C310.82 311.691 310.313 311.184 309.874 310.644L309.671 313.143C312.17 312.873 314.703 313.615 316.661 315.236C317.156 314.741 317.708 314.302 318.316 313.919ZM293.092 281.537C293.092 281.537 293.103 281.549 293.126 281.571C295.152 283.091 296.334 285.353 296.671 287.683C296.84 289.034 296.705 290.418 296.3 291.735C296.885 291.33 297.516 291.003 298.191 290.756C298.146 290.711 298.101 290.654 298.056 290.587C295.861 287.379 295.962 283.259 297.988 280.187L293.092 281.537ZM286.879 304.971C288.601 305.275 290.222 306.052 291.573 307.234L292.248 298.691C292.271 298.398 292.304 298.105 292.349 297.813L288.77 302.473L286.879 304.971ZM277.053 335.125C279.079 332.491 282.253 331.242 285.326 331.545C285.832 329.384 287.116 327.392 289.074 326.041L291.978 324.016C291.539 323.239 291.168 322.361 290.931 321.483C290.83 321.551 290.762 321.652 290.661 321.719L274.217 333.031C274.014 333.166 273.812 333.301 273.609 333.436C274.014 335.26 273.913 337.218 273.136 339.042L272.089 341.608L277.053 335.125ZM313.622 331.579C314.5 331.68 315.378 331.951 316.188 332.322L315.682 330.161L313.622 331.579ZM338.17 331.545C336.685 330.971 335.368 330.026 334.388 328.777L334.524 329.351L335.233 332.322C336.144 331.917 337.157 331.647 338.17 331.545ZM274.791 282.888C275.095 286.771 272.9 290.587 269.152 292.174C268.859 292.286 268.578 292.388 268.308 292.478C268.308 292.613 268.308 292.782 268.308 292.95L267.97 299.231C267.993 299.186 268.015 299.141 268.038 299.096L274.115 291.195L279.147 284.644C277.56 284.441 276.074 283.834 274.791 282.888Z" fill="#174D47"/>
<path opacity="0.5" d="M289.108 374.935H262.23C251.796 374.935 243.287 366.392 243.287 355.958L243.321 168.183C243.321 157.749 251.863 149.24 262.297 149.24H286.136C288.095 152.617 289.243 156.635 289.243 160.957L289.175 373.044C289.175 373.674 289.153 374.305 289.108 374.935Z" fill="#174D47" fill-opacity="0.39"/>
<path d="M357.721 158.121L285.529 158.087H244.604C242.544 158.087 240.889 156.399 240.889 154.373V136.713C240.889 134.687 242.578 132.999 244.604 132.999L285.495 133.033H357.721C359.747 133.033 361.402 134.721 361.402 136.747V154.407C361.402 156.433 359.747 158.121 357.721 158.121Z" fill="#174D47"/>
<path d="M285.529 158.087H244.604C242.544 158.087 240.889 156.399 240.889 154.373V136.713C240.889 134.687 242.578 132.999 244.604 132.999L285.495 133.033C287.521 133.033 289.175 134.687 289.175 136.713V154.407C289.175 156.399 287.555 158.053 285.529 158.087Z" fill="#174D47"/>
<path d="M404.116 200.869C404.116 200.869 404.049 200.397 403.508 199.755C403.171 199.046 402.799 198.202 402.765 197.729C402.765 196.851 401.753 196.48 401.314 197.223C401.179 197.493 401.111 197.774 401.111 198.067C399.49 197.324 397.025 196.682 393.21 196.412C393.21 196.412 390.272 196.108 392.163 198.573C393.446 200.262 394.56 200.262 396.384 202.592C398.207 204.888 400.976 206.171 403.069 205.563L405.501 205.867L407.088 201.95L404.116 200.869Z" fill="#F9C29D"/>
<path d="M482.961 175.038C482.961 175.038 480.563 201.578 446.223 212.789C436.937 215.794 402.293 206.508 402.293 206.508C402.293 206.508 402.495 201.95 405.298 200.802C405.298 200.802 437.781 198.809 440.516 200.16C442.947 201.342 463.68 180.001 470.366 176.557C477.085 173.113 482.961 175.038 482.961 175.038Z" fill="#174D47" fill-opacity="0.41"/>
<path d="M525.337 357.647C525.337 357.647 529.457 361.395 528.647 364.062C527.836 366.73 524.122 368.486 523.615 371.761C523.143 375.003 521.117 376.792 519.327 376.792C517.504 376.792 510.717 376.792 510.717 376.792C510.717 376.792 509.4 374.496 512.608 373.821C515.815 373.112 517.031 369.296 516.828 365.751C516.626 362.172 517.132 357.444 517.132 357.444L523.919 355.857L525.337 357.647Z" fill="#CADBBE"/>
<path d="M525.337 355.283C524.595 357.511 516.322 360.787 516.322 360.787C516.322 360.787 511.797 353.662 497.379 328.202C496.13 326.007 494.813 323.61 493.496 321.044C479.314 293.794 460.979 248.547 460.979 248.547L496.028 238.789C496.028 238.789 497.683 252.836 497.987 259.96C498.156 264.316 500.62 273.568 503.761 281.672C505.753 286.838 508.015 291.532 510.143 294.166C519.8 306.153 525.337 355.283 525.337 355.283Z" fill="#95BB7C"/>
<path d="M503.761 281.672C501.566 292.849 497.514 311.555 493.496 321.044C479.314 293.794 460.979 248.547 460.979 248.547L496.028 238.789C496.028 238.789 497.683 252.836 497.987 259.96C498.156 264.316 500.62 273.568 503.761 281.672Z" fill="#CADBBE"/>
<path d="M474.924 367.338C474.924 367.338 475.667 375.88 473.844 376.758L450.781 376.725C450.781 376.725 450.781 374.057 454.462 373.449C458.176 372.875 464.693 370.714 465.807 365.852C466.888 361.023 474.924 367.338 474.924 367.338Z" fill="#CADBBE"/>
<path d="M455.441 246.791C455.441 246.791 456.657 261.75 458.075 279.714C460.033 304.161 462.363 334.179 462.6 339.852C463.005 349.711 464.592 365.514 464.592 365.514C464.592 365.514 468.407 369.262 476.039 367.675C476.039 367.675 482.826 345.153 484.75 321.28C484.773 320.897 484.807 320.504 484.852 320.098C486.641 295.82 489.444 244.698 489.444 244.698L455.441 246.791Z" fill="#95BB7C"/>
<path d="M487.283 165.82C487.283 165.82 465.841 172.37 468.374 169.163C468.036 167.238 467.091 162.105 466.922 160.687C466.517 157.446 466.517 155.588 466.517 155.588L472.898 150.557L478.976 145.762C478.504 159.269 487.283 165.82 487.283 165.82Z" fill="#F2BEB7"/>
<path d="M506.698 275.088C489.275 286.839 454.09 283.496 453.82 283.259C453.246 275.797 452.909 263.438 452.706 252.025C452.503 237.843 452.503 225.08 452.503 224.81C452.503 224.81 452.537 224.371 452.537 223.628C452.605 221.332 452.74 216.064 452.875 212.113C452.92 211.371 452.954 210.695 452.976 210.087C452.976 210.042 452.976 210.009 452.976 209.986C453.077 208.197 454.158 203.469 455.678 197.965C457.906 189.895 461.08 180.137 463.511 175.612C464.794 173.282 468.981 166.563 468.981 166.563C471.953 167.137 474.08 166.259 477.22 164.739C480.631 163.085 484.311 161.295 484.919 161.768C489.41 165.043 492.415 172.404 494.036 181.791C494.948 187.228 507.543 274.514 506.698 275.088Z" fill="#B6E793"/>
<path d="M479.078 150.929C479.078 150.929 474.891 158.56 466.922 160.687C466.517 157.446 466.517 155.589 466.517 155.589L472.898 150.557L479.078 150.929Z" fill="#EDA8A2"/>
<path d="M463.613 155.386C463.613 155.386 479.415 157.952 480.901 148.261C482.353 138.537 485.392 132.324 475.397 130.264C465.368 128.204 462.836 131.615 461.553 134.755C460.236 137.861 459.527 154.441 463.613 155.386Z" fill="#F2BEB7"/>
<path d="M486.608 129.116C486.777 128.947 487.114 128.812 487.823 128.778C487.823 128.778 487.249 128.406 486.473 128.373C486.304 127.36 485.764 125.536 484.008 125.097C484.008 125.097 484.953 125.604 485.054 126.718C483.029 124.625 478.673 123.071 466.55 124.051C450.613 125.3 455.88 135.497 457.94 136.713C460 137.962 465.2 134.619 469.049 134.923C472.899 135.227 473.608 140.765 474.925 141.542C476.241 142.318 475.701 140.968 477.491 140.157C479.247 139.347 479.415 142.284 478.909 144.175C478.402 146.1 480.834 148.599 480.834 148.599C480.834 148.599 480.834 148.599 483.265 145.965C485.73 143.331 488.026 132.121 486.912 129.757C486.822 129.532 486.72 129.318 486.608 129.116Z" fill="#363C3B"/>
<path d="M452.706 252.026C452.503 237.844 452.503 225.08 452.503 224.81C452.503 224.81 452.537 224.371 452.537 223.628C466.179 206.745 483.771 189.186 483.771 189.186C483.771 189.186 487.587 238.755 452.706 252.026Z" fill="#174D47" fill-opacity="0.41"/>
<path d="M471.244 186.316C471.041 186.62 466.719 212.147 455.644 212.417C454.563 212.451 453.652 212.35 452.875 212.113C452.898 211.371 452.931 210.695 452.976 210.087C452.976 210.042 452.976 210.009 452.976 209.986C453.078 208.197 454.158 203.469 455.678 197.965C460.236 197.054 465.537 192.867 471.244 186.316Z" fill="#174D47" fill-opacity="0.41"/>
<path d="M484.953 161.768C484.953 161.768 483.636 157.952 482.556 157.513C482.556 157.513 467.665 160.957 462.667 177.435C462.667 177.435 468.475 167.305 484.953 161.768Z" fill="#174D47" fill-opacity="0.61"/>
<path d="M455.137 285.117L425.457 289.236L409.755 291.431C403.643 292.275 397.971 287.987 397.127 281.875L381.864 172.168C381.02 166.056 385.308 160.384 391.386 159.539L405.332 157.615L436.802 153.225C442.88 152.381 448.587 156.669 449.431 162.781L464.693 272.488C465.537 278.566 461.249 284.273 455.137 285.117Z" fill="#174D47"/>
<path fill-rule="evenodd" clip-rule="evenodd" d="M453.314 259.859C453.246 259.882 453.179 259.904 453.111 259.927C453.607 260.039 454.079 260.219 454.529 260.467C455.813 261.21 456.724 262.392 457.096 263.742C457.467 265.093 457.332 266.579 456.589 267.895L450.781 278.16C449.296 280.76 445.953 281.672 443.353 280.22C440.719 278.734 439.807 275.392 441.293 272.758L442.306 270.934C441.856 270.642 441.451 270.282 441.09 269.854C441.068 269.921 441.034 269.989 440.989 270.056L438.119 275.189L435.215 280.321C433.729 282.922 430.386 283.867 427.753 282.381C425.153 280.896 424.207 277.553 425.693 274.919L428.597 269.82L429.644 267.963L428.799 268.706C427.82 269.618 426.571 270.09 425.322 270.158C425.254 270.901 425.051 271.643 424.646 272.353L421.742 277.451L418.872 282.584C417.386 285.218 414.044 286.129 411.41 284.644C410.566 284.171 409.89 283.496 409.418 282.719C408.168 284.542 405.838 285.488 403.576 284.88C402.124 284.509 400.942 283.563 400.233 282.381C399.524 281.166 399.288 279.68 399.659 278.228L401.145 272.521L402.597 266.849C402.934 265.633 403.61 264.62 404.555 263.911C404.082 262.729 404.049 261.412 404.454 260.197C403.914 260.467 403.306 260.636 402.664 260.669C401.179 260.804 399.76 260.332 398.68 259.42C397.599 258.508 396.89 257.225 396.755 255.706L396.215 249.864L395.708 243.989C395.506 241.794 396.654 239.802 398.477 238.755L396.553 235.513L393.547 230.449C392.028 227.882 392.872 224.506 395.472 222.986C398.072 221.433 401.415 222.311 402.968 224.911L405.94 229.976L406.75 231.293C406.919 229.368 408.134 227.612 410.025 226.802L415.428 224.506L420.831 222.176C421.281 221.973 421.754 221.849 422.249 221.804C420.122 220.082 419.547 217.043 420.999 214.646C422.586 212.113 425.963 211.303 428.529 212.89L438.524 219.035C440.449 220.217 441.394 222.446 441.057 224.539C441.698 225.552 442.002 226.667 441.968 227.815C441.935 228.693 441.698 229.537 441.259 230.313C442.34 230.178 443.488 230.381 444.535 230.955C445.03 231.248 445.469 231.597 445.851 232.002L442.61 223.763C441.496 220.96 442.914 217.752 445.683 216.672C447.101 216.132 448.587 216.199 449.87 216.773C451.153 217.313 452.233 218.36 452.774 219.778L454.935 225.248L457.062 230.719C458.176 233.521 456.758 236.695 453.989 237.81C451.457 238.789 448.62 237.742 447.27 235.48C447.337 236.391 447.135 237.303 446.696 238.181C446.853 238.113 447.011 238.057 447.168 238.012C448.62 237.607 450.106 237.843 451.322 238.519C452.537 239.194 453.516 240.342 453.922 241.794L455.509 247.467L457.096 253.14C457.906 256.01 456.218 259.049 453.314 259.859ZM407.493 256.482L409.721 254.423C409.496 254.333 409.26 254.231 409.012 254.119C408.405 253.747 407.864 253.308 407.459 252.768L407.628 254.76C407.695 255.368 407.628 255.942 407.493 256.482ZM443.285 244.259L440.787 248.649C440.449 249.256 440.01 249.763 439.503 250.168C440.753 249.83 442.07 249.932 443.184 250.438C444.129 250.843 444.94 251.519 445.548 252.363L443.387 244.765C443.342 244.585 443.308 244.417 443.285 244.259ZM428.428 227.578L429.677 226.43L428.158 225.485C428.394 226.194 428.462 226.903 428.428 227.578ZM435.384 236.02L431.535 239.565C431.197 239.858 430.837 240.106 430.454 240.308C431.028 240.916 431.467 241.659 431.737 242.469L435.384 236.02ZM437.545 251.215C436.194 251.62 434.675 251.485 433.358 250.742C432.975 250.517 432.638 250.269 432.345 249.999L432.412 251.451C433.864 251.114 435.418 251.35 436.667 252.127C436.937 251.789 437.23 251.485 437.545 251.215ZM420.155 234.365C420.178 234.365 420.189 234.365 420.189 234.365C421.506 235.108 422.384 236.324 422.755 237.675C422.958 238.417 422.992 239.262 422.857 240.072C423.172 239.779 423.521 239.532 423.903 239.329C423.881 239.307 423.847 239.273 423.802 239.228C422.249 237.539 421.979 235.142 422.924 233.184L420.155 234.365ZM418.433 248.547C419.446 248.581 420.459 248.885 421.337 249.493L421.033 244.428C421.033 244.248 421.033 244.079 421.033 243.921L419.345 246.927L418.433 248.547ZM415.124 266.984C416.103 265.262 417.859 264.282 419.683 264.215C419.784 262.898 420.358 261.615 421.405 260.669L422.958 259.251C422.62 258.846 422.35 258.385 422.147 257.867C422.08 257.912 422.024 257.968 421.979 258.036L413.301 265.971C413.188 266.083 413.076 266.185 412.963 266.275C413.368 267.288 413.47 268.436 413.166 269.584L412.76 271.171L415.124 266.984ZM436.194 261.919C436.735 261.919 437.252 261.998 437.748 262.155L437.275 260.94L436.194 261.919ZM450.545 259.893C449.633 259.69 448.789 259.217 448.114 258.576L448.249 258.914L448.89 260.602C449.397 260.264 449.971 260.028 450.545 259.893ZM409.553 236.628C410.059 238.856 409.08 241.288 407.02 242.503C406.863 242.593 406.705 242.672 406.547 242.739C406.547 242.83 406.559 242.931 406.581 243.043L406.919 246.724C406.919 246.701 406.93 246.679 406.953 246.656L409.823 241.524L412.254 237.269C411.308 237.303 410.363 237.067 409.553 236.628Z" fill="#95BB7C"/>
<path d="M447.878 156.973L405.703 162.814L381.763 166.157C380.581 166.326 379.467 165.482 379.298 164.3L377.88 153.968C377.711 152.786 378.555 151.671 379.737 151.503L403.644 148.194L445.818 142.318C447 142.149 448.114 142.993 448.283 144.175L449.735 154.508C449.904 155.69 449.059 156.804 447.878 156.973Z" fill="#B6E793"/>
<path d="M419.548 221.062C419.548 221.062 419.345 220.623 418.636 220.15C418.129 219.576 417.555 218.867 417.387 218.394C417.117 217.55 416.07 217.483 415.867 218.327C415.8 218.597 415.811 218.878 415.901 219.171C414.145 218.934 411.579 218.968 407.831 219.779C407.831 219.779 404.927 220.251 407.426 222.142C409.114 223.392 410.194 223.088 412.592 224.81C414.989 226.532 417.994 227.005 419.818 225.857L422.249 225.451L422.722 221.264L419.548 221.062Z" fill="#F9C29D"/>
<path d="M488.228 174.498C488.228 174.498 493.226 200.667 463.309 220.893C455.239 226.363 419.345 226.971 419.345 226.971C419.345 226.971 418.264 222.547 420.662 220.656C420.662 220.656 451.322 209.784 454.327 210.324C456.994 210.797 471.041 184.56 476.545 179.428C482.049 174.261 488.228 174.498 488.228 174.498Z" fill="#B6E793"/>
<path d="M78.7433 130.669C78.7433 130.095 78.2706 123.578 68.3433 123.24C68.3433 123.24 73.2394 123.814 74.0836 125.942C74.0836 125.942 70.7407 123.308 68.0394 124.152C65.338 124.996 63.7511 129.757 63.7173 131.31C63.7173 132.864 65.2368 137.895 66.9251 138.3C67.6004 138.469 68.3433 138.435 69.0186 138.334C68.5684 139.032 68.1182 139.82 67.6679 140.697C63.7173 148.835 67.803 156.77 71.1459 155.892C73.3069 155.318 73.9147 158.999 73.9147 158.999L94.7824 142.082C94.7824 142.082 87.1174 126.212 78.7433 130.669Z" fill="#363C3B"/>
<path d="M114.502 216.976C114.299 217.415 113.421 219.508 112.003 221.669C110.855 223.392 109.336 225.147 107.546 226.059C106.161 225.384 103.663 224.405 102.616 223.763C98.8004 221.433 93.364 214.815 88.9069 207.758C88.2315 206.677 87.5787 205.585 86.9484 204.482C86.8133 204.28 86.712 204.077 86.6107 203.875C85.0575 201.072 83.7744 198.269 83.0315 195.703L91.1017 178.448C91.1354 178.482 93.6004 179.934 95.7952 186.215C99.0368 195.568 104.304 208.838 107.985 212.924C108.829 213.869 111.328 215.288 114.367 216.807C114.412 216.92 114.457 216.976 114.502 216.976Z" fill="#B6E793"/>
<path d="M112.003 221.669C110.855 223.391 109.335 225.147 107.546 226.059C106.161 225.384 103.663 224.404 102.616 223.763C98.8003 221.433 93.3639 214.815 88.9067 207.758C89.0756 205.529 100.725 216.942 102.211 219.036C103.325 220.589 109.099 221.365 112.003 221.669Z" fill="#174D47" fill-opacity="0.41"/>
<path d="M131.487 357.579L129.866 372.639C129.528 375.61 126.827 377.805 123.855 377.467L108.796 375.847C105.824 375.543 103.629 372.808 103.967 369.836L105.588 354.776C105.892 352.041 108.188 349.982 110.889 349.914C111.114 349.914 111.351 349.925 111.598 349.948L126.658 351.569C129.629 351.906 131.79 354.608 131.487 357.579Z" fill="#95BB7C"/>
<path d="M123.011 357.174C112.341 357.748 110.18 375.982 108.796 375.847C105.824 375.543 103.629 372.808 103.967 369.836L105.588 354.776C105.892 352.041 108.188 349.982 110.889 349.914C120.276 353.358 128.346 356.87 123.011 357.174Z" fill="#CADBBE"/>
<path d="M170.014 173.248L149.72 287.682L138.274 352.21C137.598 355.924 134.154 358.524 130.406 358.119L111.936 356.127L107.749 355.654C102.515 355.08 98.598 350.555 98.8344 345.254L101.806 282.482L107.31 166.495L145.972 170.648L170.014 173.248Z" fill="white"/>
<path d="M145.972 170.648L126.253 283.225L114.266 351.771C113.962 353.493 113.118 355.013 111.936 356.127L107.749 355.654C102.515 355.08 98.598 350.555 98.8344 345.254L101.806 282.482L107.31 166.495L145.972 170.648Z" fill="#174D47" fill-opacity="0.39"/>
<path d="M170.858 165.448L170.014 173.248L145.972 170.648L107.31 166.495L108.154 158.661L147.053 162.882L170.858 165.448Z" fill="#174D47"/>
<path d="M149.72 287.682L138.172 352.649C137.564 356.127 134.357 358.524 130.845 358.153L113.421 356.262L106.162 355.485C101.806 355.013 98.5642 351.231 98.7668 346.875L101.806 282.482L126.59 285.184L149.72 287.682Z" fill="#174D47"/>
<path d="M126.59 285.184L114.502 353.426C114.299 354.472 113.928 355.418 113.421 356.262L106.162 355.485C101.806 355.013 98.5642 351.231 98.7668 346.875L101.806 282.482L126.59 285.184Z" fill="#174D47"/>
<path d="M147.053 162.882L145.972 170.648L107.31 166.495L108.154 158.661L147.053 162.882Z" fill="#174D47"/>
<path d="M86.0368 370.073L81.5796 371.727C81.5796 371.727 62.3328 344.984 59.9691 321.483C59.5302 317.296 60.4081 308.382 60.0704 306.491C59.9354 305.613 59.7328 304.532 59.5302 303.317C58.8886 299.737 58.0444 294.807 57.0315 289.236C54.7691 276.371 51.8314 259.927 49.5691 247.838L50.7509 247.433L63.6834 243.28L66.351 234.771L75.9744 232.238C75.9744 232.238 78.1354 236.459 80.0601 256.314C80.4315 258.947 80.7355 261.818 80.9718 264.924C81.7147 274.446 81.7822 286.265 80.0601 299.737C79.6212 303.215 77.7978 316.789 78.0004 320.976C78.9796 340.189 86.0368 370.073 86.0368 370.073Z" fill="#95BB7C"/>
<path d="M80.9718 264.924L60.0704 306.491C59.9354 305.613 59.7328 304.532 59.5302 303.317C58.8886 299.737 58.0444 294.807 57.0315 289.236C54.7691 276.371 51.8314 259.927 49.5691 247.838L50.7509 247.433L63.6834 243.28L66.351 234.771L75.9744 232.238C75.9744 232.238 78.1354 236.459 80.0601 256.314C80.4316 258.947 80.7355 261.818 80.9718 264.924Z" fill="#CADBBE"/>
<path d="M71.7874 237.573L71.3147 233.42C63.177 235.581 41.5327 227.41 41.5327 227.41C41.5327 227.41 33.6652 234.332 34.7119 250.877C35.2184 258.947 36.1301 293.288 37.0756 303.452C37.447 307.132 35.0496 316.587 34.0704 319.153C24.6496 344.275 35.5223 375.205 35.5223 375.205L38.3587 374.057C38.3587 374.057 56.2211 309.327 58.0445 302.439C61.5562 289.472 64.3588 272.623 66.216 259.589C66.4523 259.589 71.7874 237.573 71.7874 237.573Z" fill="#95BB7C"/>
<path d="M77.9328 189.422C63.9873 190.199 67.06 169.399 67.9042 169.5C69.6263 168.622 72.6653 164.3 74.4549 157.074L75.0627 157.344L85.1251 162.072C85.1251 162.072 84.0445 165.347 83.2679 168.487C82.6263 170.918 82.1874 173.282 82.5588 173.957C83.3692 174.261 83.842 174.464 83.842 174.464C83.842 174.464 83.842 174.475 83.842 174.498C83.9433 174.734 81.6471 189.22 77.9328 189.422Z" fill="#F2BEB7"/>
<path d="M85.1253 162.072C85.1253 162.072 84.0448 165.347 83.2682 168.487C77.3591 166.833 75.6033 160.654 75.063 157.344L85.1253 162.072Z" fill="#EDA8A2"/>
<path d="M86.3406 165.516C86.3406 165.516 72.2937 162.274 74.4548 153.562C76.6158 144.817 76.2444 138.536 85.3276 140.225C94.377 141.947 95.2887 145.695 95.2887 148.801C95.2887 151.874 90.0549 166.157 86.3406 165.516Z" fill="#F2BEB7"/>
<path d="M96.0654 143.838C94.5797 140.664 92.7901 140.833 91.6758 141.407C85.0576 135.295 78.5744 140.292 78.5744 140.292C76.0757 146.303 70.6731 148.768 70.6731 148.768C70.6731 148.768 72.8341 150.996 79.1147 150.929C81.0056 150.929 82.9303 150.051 84.6862 148.835C81.3095 152.246 77.3588 154.305 77.3588 154.305C85.1926 152.786 90.4602 143.736 91.0005 142.757C91.642 143.736 92.9251 145.83 93.0264 147.586C93.1953 149.983 92.3511 154.643 93.7355 154.812C93.7355 154.812 98.3615 148.565 96.0654 143.838Z" fill="#363C3B"/>
<path d="M51.9328 377.501H29.6132C29.6132 377.501 29.073 374.091 30.2548 371.524C31.3691 369.026 33.1249 367.911 32.686 364.906C34.1042 366.392 36.434 368.013 39.6418 367.574C40.047 368.215 42.2081 371.66 43.525 372.605C44.9769 373.652 51.4939 373.28 51.9328 377.501Z" fill="#CADBBE"/>
<path d="M99.9148 377.501H77.5614C77.5614 377.501 76.751 373.956 78.203 371.525C79.4861 369.364 79.0134 368.148 78.0341 366.392C79.0471 366.797 80.364 367.169 81.816 367.101C82.9303 367.034 84.0783 366.527 85.1251 365.919C86.0705 367 90.19 371.693 91.4732 372.605C92.9589 373.652 99.442 373.28 99.9148 377.501Z" fill="#CADBBE"/>
<path d="M91.1016 178.448L87.4548 227.646L85.1925 257.765C81.7483 258.846 78.473 259.656 75.3665 260.298C75.1639 257.799 74.3535 254.76 74.3535 254.76C74.3873 256.347 72.5301 259.386 71.4158 261.041C42.8157 265.599 29.4104 253.139 29.4104 253.139C30.5247 242.098 35.3533 219.744 41.1274 201.038C42.3092 197.121 43.5586 193.407 44.8079 189.929C47.6781 182.095 49.5014 178.009 51.0209 174.835C53.9586 168.791 67.0937 169.162 67.0937 169.162C69.5924 178.279 76.5483 183.952 76.5483 183.952C80.2289 181.791 82.9977 174.16 82.9977 174.16L91.1016 178.448Z" fill="#B6E793"/>
<path d="M114.063 229.976C112.206 229.976 109.302 229.841 107.614 229.199C107.614 229.199 112.982 229.132 111.834 227.41C111.632 227.106 108.964 227.342 105.959 227.342C104.743 227.342 101.704 229.031 101.873 229.098C99.7122 228.794 97.72 228.389 97.1122 228.254C96.9434 228.22 96.8758 228.186 96.8758 228.186L94.9512 233.758C94.9512 233.758 95.3563 233.859 96.0654 233.994C97.8551 234.433 101.502 235.379 104.946 236.696C109.775 238.62 113.354 236.257 114.941 234.568C115.988 233.488 116.798 232.07 116.73 231.057C116.663 229.942 115.177 229.976 114.063 229.976Z" fill="#F2BEB7"/>
<path d="M69.9641 167.508C69.9641 167.508 67.6005 167.643 67.094 169.162C67.094 169.162 70.2005 181.69 76.5486 183.952L69.9641 167.508Z" fill="#174D47" fill-opacity="0.61"/>
<path d="M76.5486 183.952C76.5486 183.952 82.4915 174.093 82.4577 172.607C82.4577 172.607 84.9226 173.552 84.7538 175.072C84.7538 175.072 79.6213 183.277 76.5486 183.952Z" fill="#174D47" fill-opacity="0.61"/>
<path d="M60.2393 179.495C60.4419 180.103 81.8498 214.275 82.3225 221.095C82.7615 227.916 73.3069 224.067 73.1718 223.155C73.003 222.277 60.2393 179.495 60.2393 179.495Z" fill="#174D47" fill-opacity="0.41"/>
<path d="M87.4552 227.646L85.1929 257.766C54.5668 248.953 52.8784 184.29 52.8784 184.29L71.8214 218.462L87.2864 227.41C87.2864 227.41 87.3427 227.489 87.4552 227.646Z" fill="#174D47" fill-opacity="0.41"/>
<path d="M101.063 230.415L99.8811 234.703C99.8811 234.703 98.3954 234.433 96.0655 233.994C95.3564 233.859 94.9513 233.758 94.9513 233.758C93.0603 233.386 90.8318 232.88 88.3668 232.339H88.333C84.146 231.326 79.4525 230.145 75.5018 228.794C75.1416 228.659 74.7927 228.535 74.455 228.422C72.0914 227.545 76.6161 215.659 78.6758 217.144C79.2161 217.527 79.7901 217.932 80.3979 218.36C83.8083 220.656 88.1304 223.222 91.9798 225.383C93.837 226.464 95.6266 227.443 97.1123 228.254C99.4759 229.57 101.063 230.415 101.063 230.415Z" fill="#F2BEB7"/>
<path d="M80.3977 218.36C80.3977 218.36 80.6679 226.464 73.0704 230.415C64.2912 227.241 59.5639 214.173 55.9509 205.158C55.4444 203.908 54.9716 202.693 54.4989 201.477C52.8444 196.986 51.4937 192.529 50.6833 188.714C50.1768 186.417 49.8392 184.358 49.7716 182.636C49.7379 182.028 49.7041 181.454 49.7379 180.913C49.8054 171.189 56.6937 170.176 57.6054 171.29C58.7197 172.674 59.9353 174.903 61.1847 177.638C63.1094 181.96 65.1016 187.565 66.9925 193.137C68.0392 196.21 69.0522 199.249 70.0315 202.085C70.6055 203.773 71.1795 205.394 71.7198 206.88C72.7665 209.682 73.712 211.979 74.5562 213.431C75.0964 214.342 76.6159 215.659 78.6756 217.145C79.2159 217.527 79.7899 217.933 80.3977 218.36Z" fill="#B6E793"/>
<path d="M114.535 216.908C114.535 216.953 114.524 216.975 114.502 216.975C114.502 216.93 114.513 216.908 114.535 216.908C114.558 216.841 114.558 216.841 114.535 216.908Z" fill="#B6E793"/>
<path d="M297.752 187.498C298.394 188.274 298.495 189.118 298.157 190.064C297.55 191.752 295.524 193.643 293.16 195.568C292.845 195.793 292.575 196.007 292.349 196.209C292.282 196.277 292.226 196.333 292.181 196.378C292.113 196.423 292.057 196.468 292.012 196.513C289.817 198.539 290.661 199.012 286.711 203.131C282.186 207.791 279.079 207.893 278.201 207.454C277.459 207.082 278.978 204.617 280.666 201.815C280.756 201.68 280.835 201.544 280.903 201.409C281.128 201.027 281.353 200.655 281.578 200.295C283.536 196.919 283.03 195.331 282.591 190.334C282.186 186.282 276.243 167.609 276.243 167.609L284.887 166.124C284.887 166.124 287.487 180.981 290.357 183.277C291.877 184.492 293.599 184.492 295.051 185.404C295.163 185.472 295.276 185.539 295.388 185.607C296.199 186.147 297.077 186.721 297.752 187.498Z" fill="#F2BEB7"/>
<path d="M297.752 187.498C298.394 188.274 298.495 189.119 298.157 190.064C297.414 191.752 295.422 193.643 293.126 195.534C292.833 195.782 292.574 196.007 292.349 196.21C292.282 196.277 292.226 196.333 292.181 196.378C292.113 196.423 292.057 196.468 292.012 196.513C289.817 198.539 290.661 199.012 286.71 203.132C282.186 207.791 279.079 207.893 278.201 207.454C277.458 207.082 278.978 204.617 280.666 201.815C281.544 201.511 285.63 199.856 288.703 195.906C291.404 192.428 293.227 188.004 295.051 185.404C295.163 185.472 295.276 185.539 295.388 185.607C296.199 186.147 297.077 186.721 297.752 187.498Z" fill="#CADBBE"/>
<path d="M228.092 182.095C227.585 184.763 223.77 184.324 219.515 183.277C215.294 182.264 216.307 183.479 210.263 182.804C204.219 182.163 202.396 179.9 202.193 178.988C202.024 178.212 205.029 177.908 208.204 177.57C208.609 177.503 209.014 177.447 209.419 177.401C213.032 176.963 215.7 174.633 218.975 172.708C222.082 170.885 226.741 163.49 226.741 163.49L235.014 164.165C235.014 164.165 230.658 170.75 228.97 173.62C227.991 175.308 228.058 177.537 228.159 179.292C228.227 180.204 228.295 181.183 228.092 182.095Z" fill="#F2BEB7"/>
<path d="M219.515 183.277C215.294 182.264 216.307 183.479 210.263 182.804C204.219 182.163 202.396 179.9 202.193 178.988C202.024 178.212 205.029 177.908 208.204 177.57L208.237 177.604C208.237 177.604 211.884 180.17 216.915 180.305C221.001 180.407 225.357 179.225 228.159 179.292C228.227 180.204 228.295 181.183 228.092 182.095C227.585 184.763 223.77 184.324 219.515 183.277Z" fill="#CADBBE"/>
<path d="M259.866 129.116L267.599 149.983L277.729 177.199C277.729 177.199 280.464 177.436 283.098 176.693C285.495 175.984 288.297 174.16 288.297 174.16C288.297 174.16 285.461 144.952 280.227 128.17C278.91 123.882 277.391 120.404 275.736 118.412C267.599 108.822 259.866 129.116 259.866 129.116Z" fill="#CADBBE"/>
<path d="M267.734 96.0246C272.799 94.4038 287.285 96.4973 301.804 99.3337L304.877 94.3363L336.246 91.8713C336.246 91.8713 346.612 114.866 340.939 129.487C340.129 131.648 338.474 133.033 335.638 133.066H335.165C335.165 133.066 316.492 133.066 310.414 133.066C294.814 133.066 277.357 122.329 275.129 121.856C271.414 121.147 269.962 128.508 266.248 136.274C262.568 144.007 231.57 170.581 231.57 170.581C231.57 170.581 226.809 170.648 224.817 169.905C222.723 169.129 221.947 168.082 221.947 168.082C221.947 168.082 256.287 99.7389 267.734 96.0246Z" fill="#95BB7C"/>
<path d="M296.098 50.6763C306.025 58.7127 329.864 72.692 329.999 72.6245C329.999 72.6245 337.664 77.1829 342.864 74.9543C351.542 71.2063 358.228 58.1049 346.207 43.5854C340.197 36.3593 335.233 33.9619 336.415 24.3723C337.664 13.9385 332.971 0.837095 320.983 0.296833C319.97 0.2293 313.893 -0.581093 309.57 0.803329C298.529 4.2475 280.059 45.3412 296.098 50.6763Z" fill="#363C3B"/>
<path d="M338.407 95.2816C337.765 97.0712 320.781 98.6582 311.124 98.0167C308.051 97.8141 305.721 97.3751 304.877 96.666C301.433 93.6608 301.77 100.245 301.298 68.7749C301.095 53.4112 314.365 39.7021 314.365 39.7021C314.365 39.7021 315.412 46.2865 328.547 38.4865C329.02 38.1826 334.22 45.8813 339.184 55.3022C344.688 65.736 339.082 93.4582 338.407 95.2816Z" fill="#B6E793"/>
<path d="M267.599 149.983L277.729 177.199C277.729 177.199 280.464 177.435 283.097 176.692C285.495 175.983 288.297 174.16 288.297 174.16C288.297 174.16 285.461 144.952 280.227 128.17L267.599 149.983Z" fill="#95BB7C"/>
<path d="M314.365 39.7021C314.365 39.7021 302.344 42.6736 299.238 47.8398C295.422 54.1542 276.513 82.5517 276.513 82.5517C276.513 82.5517 295.152 89.1699 298.326 85.9959C301.534 82.7881 309.401 56.4841 309.401 56.4841L314.365 39.7021Z" fill="#B6E793"/>
<path d="M328.581 38.4867C328.649 38.4867 323.752 43.0114 320.173 44.2945C318.755 44.8348 316.425 45.3751 316.425 45.3751C316.425 45.3751 314.534 43.4841 314.534 43.4504C312.846 41.8971 314.534 41.4582 314.264 38.5205C314.264 38.3854 314.253 38.2391 314.23 38.0815C313.893 34.8062 312.947 31.1932 312.88 30.9568L324.495 27.6477L324.124 28.2893C324.833 34.2997 327.028 38.3179 328.581 38.4867Z" fill="#F2BEB7"/>
<path d="M324.495 27.6477C323.381 31.0243 320.308 35.549 314.028 36.5283C313.42 32.9153 312.947 31.1932 312.88 30.9568L324.495 27.6477Z" fill="#EDA8A2"/>
<path d="M310.955 34.4684C310.955 34.4684 326.622 33.4217 325.812 23.6632C325.035 13.9385 326.487 7.21893 316.459 7.48906C306.43 7.72542 304.809 11.6086 304.269 14.9177C303.763 18.2605 306.869 34.4684 310.955 34.4684Z" fill="#F2BEB7"/>
<path d="M308.152 7.32021C308.152 7.32021 312.035 18.7333 321.253 20.0501C328.007 21.0294 330.674 19.206 330.674 19.206C330.674 19.206 326.926 15.6267 324.9 10.1228C324.292 8.50203 322.874 7.32022 321.152 7.05009C316.357 6.30723 310.178 3.13318 308.152 7.32021Z" fill="#363C3B"/>
<path d="M311.461 9.34618C311.461 9.34618 308.659 10.4605 306.7 14.6475C305.653 16.9099 304.877 22.3462 305.518 24.6086C305.518 24.6086 301.028 14.1748 304.303 9.48126C307.747 4.48383 311.461 9.34618 311.461 9.34618Z" fill="#4A190C"/>
<path d="M314.264 38.5203C314.264 38.5203 315.243 44.2943 316.425 45.3748C316.425 45.3748 313.42 44.2606 312.001 40.3774C312.001 40.3774 313.048 38.6553 314.264 38.5203Z" fill="#174D47" fill-opacity="0.61"/>
<path d="M303.087 58.206C303.087 58.206 294.342 68.6736 295.422 72.4892C296.503 76.271 302.581 76.271 302.581 76.271C302.581 76.271 301.432 68.2008 302.581 63.98C303.695 59.7592 304.404 57.9359 303.087 58.206Z" fill="#174D47" fill-opacity="0.41"/>
<path d="M328.581 85.5231C328.581 85.5231 335.334 80.762 335.165 76.2711C334.996 71.8139 335.165 63.6424 336.347 64.7905C337.529 65.9385 341.277 75.123 340.906 77.723C340.568 80.323 337.664 88.0555 336.111 88.3932C334.557 88.7309 328.581 85.5231 328.581 85.5231Z" fill="#174D47" fill-opacity="0.41"/>
<path d="M303.796 102.71C303.796 102.71 313.284 132.357 337.36 135.869C337.36 135.869 345.869 127.495 345.126 108.552C344.383 89.609 303.796 102.71 303.796 102.71Z" fill="#B6E793"/>
<path d="M385.545 111.321L380.953 123.983C379.771 127.259 376.158 128.947 372.849 127.765L251.661 83.8012C246.09 81.7752 240.687 79.209 235.588 76.17L219.211 66.4115L197.972 53.7491C194.292 51.5881 190.409 49.7309 186.391 48.279L159.276 38.4192C158.263 38.0478 157.723 36.9672 158.094 35.9542C158.297 35.4477 158.668 35.0763 159.107 34.8399C159.546 34.6373 160.086 34.6036 160.593 34.7724L182.744 42.8426C190.071 45.4764 197.635 47.4348 205.333 48.6842L224.513 51.7569L244.435 54.9647C249.601 55.7751 254.632 57.092 259.529 58.8816L381.763 103.217C385.038 104.432 386.727 108.045 385.545 111.321Z" fill="#95BB7C"/>
<path d="M385.545 111.321L380.953 123.983C379.771 127.258 376.158 128.947 372.849 127.765L251.661 83.8011C246.089 81.7751 240.687 79.2089 235.588 76.1699L219.211 66.4114C219.11 63.6764 219.515 61.0426 220.427 58.5439C221.339 56.0452 222.723 53.7828 224.513 51.7568L244.435 54.9646C249.601 55.775 254.632 57.0919 259.529 58.8815L381.763 103.217C385.038 104.432 386.727 108.045 385.545 111.321Z" fill="white"/>
<path d="M385.545 111.321L380.953 123.983C379.771 127.259 376.158 128.947 372.849 127.765L359.747 123.004L368.662 98.4558L381.763 103.217C385.038 104.432 386.727 108.045 385.545 111.321Z" fill="#95BB7C"/>
<path d="M304.877 94.0999L271.583 82.0115L274.757 73.1985L308.085 85.2869L304.877 94.0999Z" fill="#95BB7C"/>
<path d="M173.694 39.5335L172.378 43.1802L159.276 38.4192C158.263 38.0478 157.723 36.9672 158.094 35.9542C158.297 35.4477 158.668 35.0763 159.107 34.8399C159.546 34.6373 160.086 34.6036 160.593 34.7724L173.694 39.5335Z" fill="#174D47"/>
<path d="M247.339 82.7205C247.339 82.7205 247.001 77.4867 248.96 77.6893C251.391 77.9257 253.991 83.6997 252.809 84.814C251.627 85.9283 247.373 84.0036 247.339 82.7205Z" fill="#F2BEB7"/>
<path d="M328.547 38.4866C328.547 38.4866 341.007 39.297 344.113 44.1256C347.22 48.9879 357.181 76.5751 355.56 85.0504C353.939 93.492 331.35 107.708 331.35 107.708L328.952 102.541C328.952 102.541 342.155 80.7621 340.906 77.7231C336.313 66.5802 328.547 38.4866 328.547 38.4866Z" fill="#B6E793"/>
<path d="M331.89 104.297L328.952 102.542C328.952 102.542 327.129 101.799 326.048 101.968C324.934 102.103 322.368 101.664 322.3 102.069C322.233 102.508 324.968 104.297 324.968 104.297L325.035 104.264C323.516 106.627 317.674 107.168 317.269 108.046C316.763 109.126 319.261 110.105 320.612 110.713C321.996 111.287 325.474 111.827 327.467 110.308C328.952 109.16 331.35 107.708 331.35 107.708L331.89 104.297Z" fill="#F2BEB7"/>
<path d="M326.15 35.8188C326.15 35.8188 319.261 44.463 316.425 45.3747C316.425 45.3747 324.495 45.3747 330.202 38.6215C330.202 38.6215 328.311 35.8526 326.15 35.8188Z" fill="#174D47" fill-opacity="0.61"/>
<path d="M264.053 279.173V362.711C264.053 371.018 257.334 377.771 249.027 377.771H222.217C213.91 377.771 207.191 371.018 207.191 362.711V279.173C207.191 275.02 208.879 271.272 211.58 268.537C214.315 265.836 218.063 264.147 222.217 264.147C223.973 264.147 225.425 262.999 225.931 261.446C226.044 261.063 226.1 260.669 226.1 260.264V252.397C226.1 252.014 226.167 251.665 226.302 251.35C226.708 250.202 227.788 249.391 229.071 249.391H242.544C243.051 249.391 243.523 249.56 243.929 249.797C244.671 250.269 245.144 251.08 245.144 251.991V260.264C245.144 262.425 246.866 264.147 249.027 264.147C257.334 264.147 264.053 270.867 264.053 279.173Z" fill="#B6E793"/>
<path d="M253.475 257.985H216.535V250.928C216.535 247.923 219 245.458 222.039 245.458H248.005C251.044 245.458 253.475 247.923 253.475 250.928V257.985Z" fill="white"/>
<path d="M264.146 323.425H207.481V292.042H264.146V323.425Z" fill="#95BB7C"/>
<path d="M368.526 356.431C368.526 361.766 364.441 366.291 359.038 366.763L244.198 376.522C239.91 376.86 236.027 374.564 234.17 370.984H234.136C233.765 370.208 233.461 369.397 233.258 368.553C233.146 368.058 233.067 367.563 233.022 367.067C232.887 365.784 233.022 364.569 233.359 363.421C233.382 363.263 233.416 363.128 233.461 363.015C233.686 362.34 233.967 361.71 234.305 361.124C235.926 358.221 238.897 356.161 242.443 355.857L357.282 346.098C362.55 345.659 367.243 349.239 368.29 354.27C368.38 354.698 368.447 355.125 368.492 355.553C368.515 355.846 368.526 356.138 368.526 356.431Z" fill="#174D47" fill-opacity="0.39"/>
<path d="M239.944 366.831C239.944 368.182 239.235 369.397 238.188 370.14C237.614 370.512 236.973 370.748 236.264 370.815L234.17 370.984H234.136L225.695 371.693C224.006 371.828 222.487 370.95 221.778 369.532C221.541 369.093 221.406 368.587 221.373 368.047C221.17 365.852 222.824 363.927 225.019 363.724L233.292 363.015H233.461L235.588 362.813C235.723 362.813 235.847 362.813 235.96 362.813C238.019 362.813 239.741 364.4 239.944 366.46C239.944 366.595 239.944 366.718 239.944 366.831Z" fill="#174D47" fill-opacity="0.39"/>
<path d="M368.29 354.27C367.176 358.322 363.63 361.428 359.207 361.8L244.368 371.558C242.105 371.761 239.978 371.221 238.188 370.14C237.04 369.465 236.027 368.553 235.217 367.473C234.305 366.291 233.664 364.906 233.36 363.421C233.337 363.286 233.315 363.15 233.292 363.015H233.461C233.686 362.34 233.968 361.71 234.305 361.124C235.926 358.221 238.897 356.161 242.443 355.857L357.282 346.098C362.55 345.659 367.244 349.239 368.29 354.27Z" fill="white"/>
<path d="M236.399 364.636C236.399 365.717 235.96 366.73 235.217 367.473C234.676 367.979 234.001 368.384 233.258 368.553C233.078 368.576 232.898 368.598 232.718 368.621L222.149 369.532C222.014 369.532 221.89 369.532 221.778 369.532C221.541 369.093 221.406 368.587 221.373 368.047C221.17 365.852 222.824 363.927 225.019 363.725L233.292 363.015H233.461C233.686 362.34 233.967 361.71 234.305 361.125C235.014 361.496 235.588 362.07 235.96 362.813C236.196 363.252 236.331 363.758 236.365 364.299C236.387 364.411 236.399 364.524 236.399 364.636Z" fill="white"/>
<path d="M406.683 352.345C406.784 358.626 401.989 364.028 395.641 364.569L357.552 367.81L357.147 343.634H357.282L393.615 340.527C399.153 340.054 404.184 343.498 405.973 348.496C406.311 349.441 406.547 350.488 406.649 351.535C406.671 351.805 406.683 352.075 406.683 352.345Z" fill="#CADBBE"/>
<path d="M405.973 348.496C404.42 352.818 400.503 356.06 395.641 356.465L357.552 359.706L357.282 343.634L393.615 340.527C399.153 340.054 404.184 343.498 405.973 348.496Z" fill="#95BB7C"/>
<path d="M352.285 370.849L349.786 341.641C349.516 338.366 351.947 335.496 355.223 335.226L355.999 335.158C359.274 334.888 362.145 337.285 362.415 340.561L364.913 369.803C365.184 373.044 362.752 375.948 359.477 376.218L358.7 376.286C355.425 376.556 352.555 374.125 352.285 370.849Z" fill="#CADBBE"/>
<path d="M543.875 380H0.979234C0.438971 380 0 379.561 0 379.021V377.366C0 376.826 0.438971 376.387 0.979234 376.387H543.875C544.416 376.387 544.855 376.826 544.855 377.366V379.021C544.855 379.561 544.416 380 543.875 380Z" fill="#CDCDCD"/>
</svg>
