<svg width="217" height="74" viewBox="0 0 217 74" fill="none" xmlns="http://www.w3.org/2000/svg">
<path d="M95.7411 46.424C95.9971 46.84 96.0931 47.216 96.0291 47.552C95.9651 47.904 95.8051 48.192 95.5491 48.416C95.2931 48.656 94.9811 48.808 94.6131 48.872C94.2611 48.936 93.9011 48.896 93.5331 48.752C93.1811 48.624 92.8771 48.368 92.6211 47.984L90.9171 45.2C90.7091 44.88 90.4371 44.64 90.1011 44.48C89.7811 44.336 89.3651 44.264 88.8531 44.264L91.6851 43.184C92.4211 43.184 93.0211 43.312 93.4851 43.568C93.9651 43.824 94.3971 44.264 94.7811 44.888L95.7411 46.424ZM88.8771 44.264C87.2131 44.264 85.7491 43.904 84.4851 43.184C83.2371 42.448 82.2611 41.424 81.5571 40.112C80.8691 38.8 80.5251 37.272 80.5251 35.528C80.5251 34.2 80.7171 33.008 81.1011 31.952C81.5011 30.88 82.0691 29.968 82.8051 29.216C83.5411 28.448 84.4211 27.856 85.4451 27.44C86.4851 27.024 87.6291 26.816 88.8771 26.816C90.5731 26.816 92.0451 27.176 93.2931 27.896C94.5411 28.616 95.5091 29.632 96.1971 30.944C96.9011 32.24 97.2531 33.76 97.2531 35.504C97.2531 36.832 97.0531 38.032 96.6531 39.104C96.2531 40.176 95.6851 41.096 94.9491 41.864C94.2131 42.632 93.3331 43.224 92.3091 43.64C91.2851 44.056 90.1411 44.264 88.8771 44.264ZM88.8771 41.096C89.8211 41.096 90.6211 40.88 91.2771 40.448C91.9491 40 92.4611 39.36 92.8131 38.528C93.1811 37.68 93.3651 36.68 93.3651 35.528C93.3651 33.768 92.9731 32.408 92.1891 31.448C91.4051 30.472 90.3011 29.984 88.8771 29.984C87.9491 29.984 87.1491 30.2 86.4771 30.632C85.8051 31.064 85.2931 31.696 84.9411 32.528C84.5891 33.36 84.4131 34.36 84.4131 35.528C84.4131 37.272 84.8051 38.64 85.5891 39.632C86.3731 40.608 87.4691 41.096 88.8771 41.096ZM104.163 44.264C103.171 44.264 102.347 44.08 101.691 43.712C101.035 43.344 100.547 42.792 100.227 42.056C99.9226 41.304 99.7706 40.376 99.7706 39.272V33.848C99.7706 33.24 99.9226 32.784 100.227 32.48C100.547 32.176 100.995 32.024 101.571 32.024C102.147 32.024 102.595 32.176 102.915 32.48C103.235 32.784 103.395 33.24 103.395 33.848V39.368C103.395 40.072 103.539 40.6 103.827 40.952C104.115 41.288 104.571 41.456 105.195 41.456C105.883 41.456 106.443 41.216 106.875 40.736C107.323 40.24 107.547 39.592 107.547 38.792V33.848C107.547 33.24 107.699 32.784 108.003 32.48C108.323 32.176 108.771 32.024 109.347 32.024C109.939 32.024 110.387 32.176 110.691 32.48C111.011 32.784 111.171 33.24 111.171 33.848V42.368C111.171 43.6 110.587 44.216 109.419 44.216C108.843 44.216 108.403 44.056 108.099 43.736C107.795 43.416 107.643 42.96 107.643 42.368V40.76L108.003 41.696C107.651 42.512 107.147 43.144 106.491 43.592C105.835 44.04 105.059 44.264 104.163 44.264ZM115.799 44.192C115.207 44.192 114.751 44.024 114.431 43.688C114.127 43.336 113.975 42.848 113.975 42.224V34.016C113.975 33.376 114.127 32.888 114.431 32.552C114.751 32.2 115.207 32.024 115.799 32.024C116.375 32.024 116.815 32.2 117.119 32.552C117.439 32.888 117.599 33.376 117.599 34.016V42.224C117.599 42.848 117.447 43.336 117.143 43.688C116.839 44.024 116.391 44.192 115.799 44.192ZM115.799 30.056C115.127 30.056 114.607 29.904 114.239 29.6C113.887 29.28 113.711 28.832 113.711 28.256C113.711 27.664 113.887 27.216 114.239 26.912C114.607 26.592 115.127 26.432 115.799 26.432C116.471 26.432 116.983 26.592 117.335 26.912C117.687 27.216 117.863 27.664 117.863 28.256C117.863 28.832 117.687 29.28 117.335 29.6C116.983 29.904 116.471 30.056 115.799 30.056ZM126.133 44.264C124.853 44.264 123.733 44.016 122.773 43.52C121.829 43.008 121.101 42.288 120.589 41.36C120.077 40.432 119.821 39.336 119.821 38.072C119.821 37.128 119.965 36.28 120.253 35.528C120.541 34.776 120.957 34.136 121.501 33.608C122.061 33.08 122.733 32.68 123.517 32.408C124.301 32.12 125.173 31.976 126.133 31.976C126.629 31.976 127.157 32.04 127.717 32.168C128.277 32.28 128.829 32.48 129.373 32.768C129.693 32.912 129.909 33.12 130.021 33.392C130.149 33.648 130.197 33.92 130.165 34.208C130.133 34.48 130.029 34.728 129.853 34.952C129.693 35.16 129.485 35.304 129.229 35.384C128.973 35.448 128.685 35.4 128.365 35.24C128.061 35.064 127.741 34.936 127.405 34.856C127.085 34.776 126.781 34.736 126.493 34.736C126.013 34.736 125.589 34.816 125.221 34.976C124.853 35.12 124.541 35.336 124.285 35.624C124.045 35.896 123.853 36.24 123.709 36.656C123.581 37.072 123.517 37.552 123.517 38.096C123.517 39.152 123.773 39.984 124.285 40.592C124.813 41.184 125.549 41.48 126.493 41.48C126.781 41.48 127.085 41.448 127.405 41.384C127.725 41.304 128.045 41.176 128.365 41C128.685 40.84 128.973 40.8 129.229 40.88C129.485 40.96 129.685 41.112 129.829 41.336C129.989 41.544 130.077 41.792 130.093 42.08C130.125 42.352 130.077 42.624 129.949 42.896C129.837 43.152 129.629 43.352 129.325 43.496C128.781 43.768 128.237 43.96 127.693 44.072C127.149 44.2 126.629 44.264 126.133 44.264ZM133.682 44.216C133.09 44.216 132.634 44.056 132.314 43.736C132.01 43.416 131.858 42.96 131.858 42.368V28.712C131.858 28.104 132.01 27.648 132.314 27.344C132.634 27.024 133.09 26.864 133.682 26.864C134.258 26.864 134.698 27.024 135.002 27.344C135.322 27.648 135.482 28.104 135.482 28.712V37.088H135.53L139.01 33.224C139.362 32.824 139.682 32.528 139.97 32.336C140.274 32.128 140.674 32.024 141.17 32.024C141.666 32.024 142.042 32.152 142.298 32.408C142.57 32.664 142.706 32.976 142.706 33.344C142.722 33.696 142.57 34.056 142.25 34.424L138.578 38.528V37.16L142.658 41.864C142.962 42.232 143.09 42.6 143.042 42.968C143.01 43.336 142.85 43.64 142.562 43.88C142.274 44.104 141.906 44.216 141.458 44.216C140.914 44.216 140.474 44.112 140.138 43.904C139.818 43.696 139.49 43.376 139.154 42.944L135.53 38.912H135.482V42.368C135.482 43.6 134.882 44.216 133.682 44.216ZM147.281 44.216C146.737 44.216 146.321 44.064 146.033 43.76C145.745 43.456 145.601 43.032 145.601 42.488V28.592C145.601 28.048 145.753 27.624 146.057 27.32C146.377 27.016 146.809 26.864 147.353 26.864C147.833 26.864 148.209 26.96 148.481 27.152C148.769 27.328 149.033 27.64 149.273 28.088L154.817 38.216H154.001L159.545 28.088C159.785 27.64 160.041 27.328 160.313 27.152C160.601 26.96 160.977 26.864 161.441 26.864C161.985 26.864 162.401 27.016 162.689 27.32C162.993 27.624 163.145 28.048 163.145 28.592V42.488C163.145 43.032 163.001 43.456 162.713 43.76C162.425 44.064 162.009 44.216 161.465 44.216C160.921 44.216 160.497 44.064 160.193 43.76C159.905 43.456 159.761 43.032 159.761 42.488V32.768H160.289L155.825 40.76C155.633 41.064 155.425 41.296 155.201 41.456C154.993 41.6 154.713 41.672 154.361 41.672C154.009 41.672 153.721 41.592 153.497 41.432C153.273 41.272 153.073 41.048 152.897 40.76L148.385 32.744H148.961V42.488C148.961 43.032 148.817 43.456 148.529 43.76C148.257 44.064 147.841 44.216 147.281 44.216ZM172.384 44.264C170.992 44.264 169.792 44.016 168.784 43.52C167.792 43.008 167.024 42.296 166.48 41.384C165.952 40.456 165.688 39.368 165.688 38.12C165.688 36.904 165.944 35.84 166.456 34.928C166.968 34 167.68 33.28 168.592 32.768C169.52 32.24 170.568 31.976 171.736 31.976C172.584 31.976 173.352 32.12 174.04 32.408C174.728 32.68 175.32 33.08 175.816 33.608C176.312 34.12 176.688 34.752 176.944 35.504C177.2 36.24 177.328 37.064 177.328 37.976C177.328 38.28 177.232 38.512 177.04 38.672C176.848 38.816 176.568 38.888 176.2 38.888H168.664V37.016H174.712L174.328 37.352C174.328 36.696 174.232 36.152 174.04 35.72C173.848 35.272 173.568 34.936 173.2 34.712C172.848 34.488 172.408 34.376 171.88 34.376C171.288 34.376 170.784 34.512 170.368 34.784C169.952 35.056 169.632 35.448 169.408 35.96C169.184 36.472 169.072 37.088 169.072 37.808V38C169.072 39.216 169.352 40.112 169.912 40.688C170.488 41.264 171.336 41.552 172.456 41.552C172.84 41.552 173.28 41.504 173.776 41.408C174.272 41.312 174.736 41.16 175.168 40.952C175.536 40.776 175.864 40.72 176.152 40.784C176.44 40.832 176.664 40.96 176.824 41.168C176.984 41.376 177.072 41.616 177.088 41.888C177.12 42.16 177.064 42.432 176.92 42.704C176.776 42.96 176.536 43.176 176.2 43.352C175.656 43.656 175.04 43.88 174.352 44.024C173.68 44.184 173.024 44.264 172.384 44.264ZM184.02 44.264C182.996 44.264 182.092 44.016 181.308 43.52C180.54 43.024 179.94 42.312 179.508 41.384C179.076 40.456 178.86 39.36 178.86 38.096C178.86 36.832 179.076 35.744 179.508 34.832C179.94 33.92 180.54 33.216 181.308 32.72C182.092 32.224 182.996 31.976 184.02 31.976C184.948 31.976 185.764 32.2 186.468 32.648C187.188 33.096 187.676 33.68 187.932 34.4H187.668V28.712C187.668 28.104 187.82 27.648 188.124 27.344C188.428 27.024 188.876 26.864 189.468 26.864C190.044 26.864 190.492 27.024 190.812 27.344C191.132 27.648 191.292 28.104 191.292 28.712V42.368C191.292 42.96 191.132 43.416 190.812 43.736C190.508 44.056 190.068 44.216 189.492 44.216C188.916 44.216 188.468 44.056 188.148 43.736C187.844 43.416 187.692 42.96 187.692 42.368V40.736L187.956 41.672C187.732 42.456 187.252 43.088 186.516 43.568C185.796 44.032 184.964 44.264 184.02 44.264ZM185.1 41.552C185.628 41.552 186.084 41.424 186.468 41.168C186.852 40.912 187.156 40.536 187.38 40.04C187.604 39.528 187.716 38.88 187.716 38.096C187.716 36.928 187.476 36.072 186.996 35.528C186.516 34.968 185.884 34.688 185.1 34.688C184.588 34.688 184.132 34.808 183.732 35.048C183.348 35.288 183.044 35.664 182.82 36.176C182.612 36.672 182.508 37.312 182.508 38.096C182.508 39.264 182.748 40.136 183.228 40.712C183.708 41.272 184.332 41.552 185.1 41.552ZM198.596 44.264C197.892 44.264 197.164 44.2 196.412 44.072C195.676 43.944 195.004 43.728 194.396 43.424C194.076 43.264 193.844 43.064 193.7 42.824C193.572 42.568 193.516 42.312 193.532 42.056C193.548 41.8 193.628 41.568 193.772 41.36C193.932 41.152 194.132 41.016 194.372 40.952C194.628 40.872 194.908 40.896 195.212 41.024C195.868 41.296 196.468 41.488 197.012 41.6C197.556 41.712 198.092 41.768 198.62 41.768C199.308 41.768 199.804 41.664 200.108 41.456C200.428 41.232 200.588 40.944 200.588 40.592C200.588 40.272 200.484 40.032 200.276 39.872C200.068 39.712 199.764 39.6 199.364 39.536L196.844 39.08C195.852 38.904 195.084 38.544 194.54 38C194.012 37.44 193.748 36.728 193.748 35.864C193.748 35.064 193.972 34.376 194.42 33.8C194.868 33.208 195.484 32.76 196.268 32.456C197.068 32.136 197.972 31.976 198.98 31.976C199.7 31.976 200.364 32.04 200.972 32.168C201.58 32.296 202.164 32.504 202.724 32.792C203.012 32.936 203.212 33.128 203.324 33.368C203.452 33.608 203.492 33.856 203.444 34.112C203.412 34.368 203.316 34.6 203.156 34.808C202.996 35.016 202.788 35.152 202.532 35.216C202.292 35.28 202.012 35.248 201.692 35.12C201.18 34.88 200.708 34.712 200.276 34.616C199.844 34.504 199.428 34.448 199.028 34.448C198.308 34.448 197.788 34.568 197.468 34.808C197.148 35.032 196.988 35.32 196.988 35.672C196.988 35.944 197.076 36.176 197.252 36.368C197.444 36.544 197.732 36.664 198.116 36.728L200.636 37.184C201.676 37.36 202.468 37.712 203.012 38.24C203.556 38.752 203.828 39.456 203.828 40.352C203.828 41.568 203.348 42.528 202.388 43.232C201.444 43.92 200.18 44.264 198.596 44.264Z" fill="#174D47"/>
<g filter="url(#filter0_d_113_4643)">
<circle cx="37.3251" cy="37" r="27" fill="white"/>
<path fill-rule="evenodd" clip-rule="evenodd" d="M41.2832 29.1057C41.2832 28.9219 41.2832 23.7484 41.2832 23.5803C40.845 19.3575 33.575 19.5308 33.4392 23.7746C33.4392 25.261 33.3899 28.57 33.3837 30.0353C33.3829 30.5121 33.2715 30.9841 33.056 31.4242C32.8405 31.8644 32.525 32.264 32.1277 32.6001C31.7304 32.9363 31.2591 33.2025 30.7407 33.3833C30.2223 33.5642 29.6671 33.6562 29.1069 33.6542C28.7921 33.6542 22.2565 33.6962 21.7505 33.6542C20.7226 33.643 19.7316 33.9798 18.9955 34.5905C18.2594 35.2012 17.8385 36.0358 17.8254 36.9106C17.8123 37.7854 18.2081 38.6288 18.9256 39.2552C19.6432 39.8817 20.6238 40.2399 21.6517 40.251H28.0268C36.1609 40.251 41.2647 37.8034 41.2647 31.8894L41.2832 29.1057Z" fill="#174D47" fill-opacity="0.74"/>
<path fill-rule="evenodd" clip-rule="evenodd" d="M33.3094 44.6677C33.3094 44.8515 33.4033 50.0648 33.4033 50.2329C33.8415 54.4347 41.0991 54.2719 41.2596 50.0386C41.2596 48.5522 41.309 45.2432 41.3151 43.7831C41.3151 43.3059 41.4259 42.8333 41.641 42.3926C41.8562 41.9519 42.1715 41.5516 42.5689 41.2149C42.9663 40.8782 43.4379 40.6116 43.9567 40.4304C44.4755 40.2492 45.0312 40.157 45.592 40.159C45.9067 40.159 52.4423 40.117 52.9484 40.159C53.469 40.1815 53.9896 40.1143 54.479 39.9615C54.9684 39.8087 55.4166 39.5734 55.7967 39.2698C56.1768 38.9662 56.481 38.6004 56.6911 38.1944C56.9013 37.7884 57.013 37.3505 57.0196 36.9069C57.0263 36.4633 56.9277 36.0231 56.7298 35.6126C56.5319 35.2022 56.2387 34.8299 55.8679 34.5182C55.497 34.2064 55.056 33.9615 54.5713 33.7981C54.0867 33.6348 53.5683 33.5563 53.0471 33.5674H46.6596C38.5256 33.5622 33.4033 35.9989 33.4033 41.9024L33.3094 44.6677Z" fill="#95BB7C"/>
</g>
<defs>
<filter id="filter0_d_113_4643" x="0.325073" y="0" width="74" height="74" filterUnits="userSpaceOnUse" color-interpolation-filters="sRGB">
<feFlood flood-opacity="0" result="BackgroundImageFix"/>
<feColorMatrix in="SourceAlpha" type="matrix" values="0 0 0 0 0 0 0 0 0 0 0 0 0 0 0 0 0 0 127 0" result="hardAlpha"/>
<feOffset/>
<feGaussianBlur stdDeviation="5"/>
<feComposite in2="hardAlpha" operator="out"/>
<feColorMatrix type="matrix" values="0 0 0 0 0 0 0 0 0 0 0 0 0 0 0 0 0 0 0.25 0"/>
<feBlend mode="normal" in2="BackgroundImageFix" result="effect1_dropShadow_113_4643"/>
<feBlend mode="normal" in="SourceGraphic" in2="effect1_dropShadow_113_4643" result="shape"/>
</filter>
</defs>
</svg>
