<svg width="265" height="74" viewBox="0 0 265 74" fill="none" xmlns="http://www.w3.org/2000/svg">
<path d="M124.416 46.424C124.672 46.84 124.768 47.216 124.704 47.552C124.64 47.904 124.48 48.192 124.224 48.416C123.968 48.656 123.656 48.808 123.288 48.872C122.936 48.936 122.576 48.896 122.208 48.752C121.856 48.624 121.552 48.368 121.296 47.984L119.592 45.2C119.384 44.88 119.112 44.64 118.776 44.48C118.456 44.336 118.04 44.264 117.528 44.264L120.36 43.184C121.096 43.184 121.696 43.312 122.16 43.568C122.64 43.824 123.072 44.264 123.456 44.888L124.416 46.424ZM117.552 44.264C115.888 44.264 114.424 43.904 113.16 43.184C111.912 42.448 110.936 41.424 110.232 40.112C109.544 38.8 109.2 37.272 109.2 35.528C109.2 34.2 109.392 33.008 109.776 31.952C110.176 30.88 110.744 29.968 111.48 29.216C112.216 28.448 113.096 27.856 114.12 27.44C115.16 27.024 116.304 26.816 117.552 26.816C119.248 26.816 120.72 27.176 121.968 27.896C123.216 28.616 124.184 29.632 124.872 30.944C125.576 32.24 125.928 33.76 125.928 35.504C125.928 36.832 125.728 38.032 125.328 39.104C124.928 40.176 124.36 41.096 123.624 41.864C122.888 42.632 122.008 43.224 120.984 43.64C119.96 44.056 118.816 44.264 117.552 44.264ZM117.552 41.096C118.496 41.096 119.296 40.88 119.952 40.448C120.624 40 121.136 39.36 121.488 38.528C121.856 37.68 122.04 36.68 122.04 35.528C122.04 33.768 121.648 32.408 120.864 31.448C120.08 30.472 118.976 29.984 117.552 29.984C116.624 29.984 115.824 30.2 115.152 30.632C114.48 31.064 113.968 31.696 113.616 32.528C113.264 33.36 113.088 34.36 113.088 35.528C113.088 37.272 113.48 38.64 114.264 39.632C115.048 40.608 116.144 41.096 117.552 41.096ZM132.838 44.264C131.846 44.264 131.022 44.08 130.366 43.712C129.71 43.344 129.222 42.792 128.902 42.056C128.598 41.304 128.446 40.376 128.446 39.272V33.848C128.446 33.24 128.598 32.784 128.902 32.48C129.222 32.176 129.67 32.024 130.246 32.024C130.822 32.024 131.27 32.176 131.59 32.48C131.91 32.784 132.07 33.24 132.07 33.848V39.368C132.07 40.072 132.214 40.6 132.502 40.952C132.79 41.288 133.246 41.456 133.87 41.456C134.558 41.456 135.118 41.216 135.55 40.736C135.998 40.24 136.222 39.592 136.222 38.792V33.848C136.222 33.24 136.374 32.784 136.678 32.48C136.998 32.176 137.446 32.024 138.022 32.024C138.614 32.024 139.062 32.176 139.366 32.48C139.686 32.784 139.846 33.24 139.846 33.848V42.368C139.846 43.6 139.262 44.216 138.094 44.216C137.518 44.216 137.078 44.056 136.774 43.736C136.47 43.416 136.318 42.96 136.318 42.368V40.76L136.678 41.696C136.326 42.512 135.822 43.144 135.166 43.592C134.51 44.04 133.734 44.264 132.838 44.264ZM144.474 44.192C143.882 44.192 143.426 44.024 143.106 43.688C142.802 43.336 142.65 42.848 142.65 42.224V34.016C142.65 33.376 142.802 32.888 143.106 32.552C143.426 32.2 143.882 32.024 144.474 32.024C145.05 32.024 145.49 32.2 145.794 32.552C146.114 32.888 146.274 33.376 146.274 34.016V42.224C146.274 42.848 146.122 43.336 145.818 43.688C145.514 44.024 145.066 44.192 144.474 44.192ZM144.474 30.056C143.802 30.056 143.282 29.904 142.914 29.6C142.562 29.28 142.386 28.832 142.386 28.256C142.386 27.664 142.562 27.216 142.914 26.912C143.282 26.592 143.802 26.432 144.474 26.432C145.146 26.432 145.658 26.592 146.01 26.912C146.362 27.216 146.538 27.664 146.538 28.256C146.538 28.832 146.362 29.28 146.01 29.6C145.658 29.904 145.146 30.056 144.474 30.056ZM154.808 44.264C153.528 44.264 152.408 44.016 151.448 43.52C150.504 43.008 149.776 42.288 149.264 41.36C148.752 40.432 148.496 39.336 148.496 38.072C148.496 37.128 148.64 36.28 148.928 35.528C149.216 34.776 149.632 34.136 150.176 33.608C150.736 33.08 151.408 32.68 152.192 32.408C152.976 32.12 153.848 31.976 154.808 31.976C155.304 31.976 155.832 32.04 156.392 32.168C156.952 32.28 157.504 32.48 158.048 32.768C158.368 32.912 158.584 33.12 158.696 33.392C158.824 33.648 158.872 33.92 158.84 34.208C158.808 34.48 158.704 34.728 158.528 34.952C158.368 35.16 158.16 35.304 157.904 35.384C157.648 35.448 157.36 35.4 157.04 35.24C156.736 35.064 156.416 34.936 156.08 34.856C155.76 34.776 155.456 34.736 155.168 34.736C154.688 34.736 154.264 34.816 153.896 34.976C153.528 35.12 153.216 35.336 152.96 35.624C152.72 35.896 152.528 36.24 152.384 36.656C152.256 37.072 152.192 37.552 152.192 38.096C152.192 39.152 152.448 39.984 152.96 40.592C153.488 41.184 154.224 41.48 155.168 41.48C155.456 41.48 155.76 41.448 156.08 41.384C156.4 41.304 156.72 41.176 157.04 41C157.36 40.84 157.648 40.8 157.904 40.88C158.16 40.96 158.36 41.112 158.504 41.336C158.664 41.544 158.752 41.792 158.768 42.08C158.8 42.352 158.752 42.624 158.624 42.896C158.512 43.152 158.304 43.352 158 43.496C157.456 43.768 156.912 43.96 156.368 44.072C155.824 44.2 155.304 44.264 154.808 44.264ZM162.357 44.216C161.765 44.216 161.309 44.056 160.989 43.736C160.685 43.416 160.533 42.96 160.533 42.368V28.712C160.533 28.104 160.685 27.648 160.989 27.344C161.309 27.024 161.765 26.864 162.357 26.864C162.933 26.864 163.373 27.024 163.677 27.344C163.997 27.648 164.157 28.104 164.157 28.712V37.088H164.205L167.685 33.224C168.037 32.824 168.357 32.528 168.645 32.336C168.949 32.128 169.349 32.024 169.845 32.024C170.341 32.024 170.717 32.152 170.973 32.408C171.245 32.664 171.381 32.976 171.381 33.344C171.397 33.696 171.245 34.056 170.925 34.424L167.253 38.528V37.16L171.333 41.864C171.637 42.232 171.765 42.6 171.717 42.968C171.685 43.336 171.525 43.64 171.237 43.88C170.949 44.104 170.581 44.216 170.133 44.216C169.589 44.216 169.149 44.112 168.813 43.904C168.493 43.696 168.165 43.376 167.829 42.944L164.205 38.912H164.157V42.368C164.157 43.6 163.557 44.216 162.357 44.216ZM175.955 44.216C175.411 44.216 174.995 44.064 174.707 43.76C174.419 43.456 174.275 43.032 174.275 42.488V28.592C174.275 28.048 174.427 27.624 174.731 27.32C175.051 27.016 175.483 26.864 176.027 26.864C176.507 26.864 176.883 26.96 177.155 27.152C177.443 27.328 177.707 27.64 177.947 28.088L183.491 38.216H182.675L188.219 28.088C188.459 27.64 188.715 27.328 188.987 27.152C189.275 26.96 189.651 26.864 190.115 26.864C190.659 26.864 191.075 27.016 191.363 27.32C191.667 27.624 191.819 28.048 191.819 28.592V42.488C191.819 43.032 191.675 43.456 191.387 43.76C191.099 44.064 190.683 44.216 190.139 44.216C189.595 44.216 189.171 44.064 188.867 43.76C188.579 43.456 188.435 43.032 188.435 42.488V32.768H188.963L184.499 40.76C184.307 41.064 184.099 41.296 183.875 41.456C183.667 41.6 183.387 41.672 183.035 41.672C182.683 41.672 182.395 41.592 182.171 41.432C181.947 41.272 181.747 41.048 181.571 40.76L177.059 32.744H177.635V42.488C177.635 43.032 177.491 43.456 177.203 43.76C176.931 44.064 176.515 44.216 175.955 44.216ZM201.059 44.264C199.667 44.264 198.467 44.016 197.459 43.52C196.467 43.008 195.699 42.296 195.155 41.384C194.627 40.456 194.363 39.368 194.363 38.12C194.363 36.904 194.619 35.84 195.131 34.928C195.643 34 196.355 33.28 197.267 32.768C198.195 32.24 199.243 31.976 200.411 31.976C201.259 31.976 202.027 32.12 202.715 32.408C203.403 32.68 203.995 33.08 204.491 33.608C204.987 34.12 205.363 34.752 205.619 35.504C205.875 36.24 206.003 37.064 206.003 37.976C206.003 38.28 205.907 38.512 205.715 38.672C205.523 38.816 205.243 38.888 204.875 38.888H197.339V37.016H203.387L203.003 37.352C203.003 36.696 202.907 36.152 202.715 35.72C202.523 35.272 202.243 34.936 201.875 34.712C201.523 34.488 201.083 34.376 200.555 34.376C199.963 34.376 199.459 34.512 199.043 34.784C198.627 35.056 198.307 35.448 198.083 35.96C197.859 36.472 197.747 37.088 197.747 37.808V38C197.747 39.216 198.027 40.112 198.587 40.688C199.163 41.264 200.011 41.552 201.131 41.552C201.515 41.552 201.955 41.504 202.451 41.408C202.947 41.312 203.411 41.16 203.843 40.952C204.211 40.776 204.539 40.72 204.827 40.784C205.115 40.832 205.339 40.96 205.499 41.168C205.659 41.376 205.747 41.616 205.763 41.888C205.795 42.16 205.739 42.432 205.595 42.704C205.451 42.96 205.211 43.176 204.875 43.352C204.331 43.656 203.715 43.88 203.027 44.024C202.355 44.184 201.699 44.264 201.059 44.264ZM212.695 44.264C211.671 44.264 210.767 44.016 209.983 43.52C209.215 43.024 208.615 42.312 208.183 41.384C207.751 40.456 207.535 39.36 207.535 38.096C207.535 36.832 207.751 35.744 208.183 34.832C208.615 33.92 209.215 33.216 209.983 32.72C210.767 32.224 211.671 31.976 212.695 31.976C213.623 31.976 214.439 32.2 215.143 32.648C215.863 33.096 216.351 33.68 216.607 34.4H216.343V28.712C216.343 28.104 216.495 27.648 216.799 27.344C217.103 27.024 217.551 26.864 218.143 26.864C218.719 26.864 219.167 27.024 219.487 27.344C219.807 27.648 219.967 28.104 219.967 28.712V42.368C219.967 42.96 219.807 43.416 219.487 43.736C219.183 44.056 218.743 44.216 218.167 44.216C217.591 44.216 217.143 44.056 216.823 43.736C216.519 43.416 216.367 42.96 216.367 42.368V40.736L216.631 41.672C216.407 42.456 215.927 43.088 215.191 43.568C214.471 44.032 213.639 44.264 212.695 44.264ZM213.775 41.552C214.303 41.552 214.759 41.424 215.143 41.168C215.527 40.912 215.831 40.536 216.055 40.04C216.279 39.528 216.391 38.88 216.391 38.096C216.391 36.928 216.151 36.072 215.671 35.528C215.191 34.968 214.559 34.688 213.775 34.688C213.263 34.688 212.807 34.808 212.407 35.048C212.023 35.288 211.719 35.664 211.495 36.176C211.287 36.672 211.183 37.312 211.183 38.096C211.183 39.264 211.423 40.136 211.903 40.712C212.383 41.272 213.007 41.552 213.775 41.552ZM227.271 44.264C226.567 44.264 225.839 44.2 225.087 44.072C224.351 43.944 223.679 43.728 223.071 43.424C222.751 43.264 222.519 43.064 222.375 42.824C222.247 42.568 222.191 42.312 222.207 42.056C222.223 41.8 222.303 41.568 222.447 41.36C222.607 41.152 222.807 41.016 223.047 40.952C223.303 40.872 223.583 40.896 223.887 41.024C224.543 41.296 225.143 41.488 225.687 41.6C226.231 41.712 226.767 41.768 227.295 41.768C227.983 41.768 228.479 41.664 228.783 41.456C229.103 41.232 229.263 40.944 229.263 40.592C229.263 40.272 229.159 40.032 228.951 39.872C228.743 39.712 228.439 39.6 228.039 39.536L225.519 39.08C224.527 38.904 223.759 38.544 223.215 38C222.687 37.44 222.423 36.728 222.423 35.864C222.423 35.064 222.647 34.376 223.095 33.8C223.543 33.208 224.159 32.76 224.943 32.456C225.743 32.136 226.647 31.976 227.655 31.976C228.375 31.976 229.039 32.04 229.647 32.168C230.255 32.296 230.839 32.504 231.399 32.792C231.687 32.936 231.887 33.128 231.999 33.368C232.127 33.608 232.167 33.856 232.119 34.112C232.087 34.368 231.991 34.6 231.831 34.808C231.671 35.016 231.463 35.152 231.207 35.216C230.967 35.28 230.687 35.248 230.367 35.12C229.855 34.88 229.383 34.712 228.951 34.616C228.519 34.504 228.103 34.448 227.703 34.448C226.983 34.448 226.463 34.568 226.143 34.808C225.823 35.032 225.663 35.32 225.663 35.672C225.663 35.944 225.751 36.176 225.927 36.368C226.119 36.544 226.407 36.664 226.791 36.728L229.311 37.184C230.351 37.36 231.143 37.712 231.687 38.24C232.231 38.752 232.503 39.456 232.503 40.352C232.503 41.568 232.023 42.528 231.063 43.232C230.119 43.92 228.855 44.264 227.271 44.264Z" fill="#174D47"/>
<g filter="url(#filter0_d_93_5419)">
<circle cx="66" cy="37" r="27" fill="white"/>
<path fill-rule="evenodd" clip-rule="evenodd" d="M69.9581 29.1057C69.9581 28.9219 69.9581 23.7484 69.9581 23.5803C69.5199 19.3575 62.2499 19.5308 62.1142 23.7746C62.1142 25.261 62.0648 28.57 62.0586 30.0353C62.0578 30.5121 61.9465 30.9841 61.7309 31.4242C61.5154 31.8644 61.2 32.264 60.8027 32.6001C60.4054 32.9363 59.934 33.2025 59.4156 33.3833C58.8973 33.5642 58.342 33.6562 57.7818 33.6542C57.467 33.6542 50.9314 33.6962 50.4254 33.6542C49.3975 33.643 48.4065 33.9798 47.6704 34.5905C46.9343 35.2012 46.5134 36.0358 46.5003 36.9106C46.4872 37.7854 46.883 38.6288 47.6006 39.2552C48.3181 39.8817 49.2987 40.2399 50.3266 40.251H56.7018C64.8358 40.251 69.9396 37.8034 69.9396 31.8894L69.9581 29.1057Z" fill="#174D47" fill-opacity="0.74"/>
<path fill-rule="evenodd" clip-rule="evenodd" d="M61.9844 44.6677C61.9844 44.8515 62.0782 50.0648 62.0782 50.2329C62.5164 54.4347 69.7741 54.2719 69.9345 50.0386C69.9345 48.5522 69.9839 45.2432 69.9901 43.7831C69.9901 43.3059 70.1008 42.8333 70.316 42.3926C70.5311 41.9519 70.8464 41.5516 71.2438 41.2149C71.6412 40.8782 72.1128 40.6116 72.6316 40.4304C73.1504 40.2492 73.7061 40.157 74.2669 40.159C74.5816 40.159 81.1172 40.117 81.6233 40.159C82.1439 40.1815 82.6645 40.1143 83.1539 39.9615C83.6433 39.8087 84.0915 39.5734 84.4716 39.2698C84.8517 38.9662 85.1559 38.6004 85.3661 38.1944C85.5762 37.7884 85.6879 37.3505 85.6946 36.9069C85.7012 36.4633 85.6026 36.0231 85.4047 35.6126C85.2068 35.2022 84.9137 34.8299 84.5428 34.5182C84.1719 34.2064 83.7309 33.9615 83.2463 33.7981C82.7616 33.6348 82.2432 33.5563 81.722 33.5674H75.3346C67.2005 33.5622 62.0782 35.9989 62.0782 41.9024L61.9844 44.6677Z" fill="#95BB7C"/>
</g>
<defs>
<filter id="filter0_d_93_5419" x="29" y="0" width="74" height="74" filterUnits="userSpaceOnUse" color-interpolation-filters="sRGB">
<feFlood flood-opacity="0" result="BackgroundImageFix"/>
<feColorMatrix in="SourceAlpha" type="matrix" values="0 0 0 0 0 0 0 0 0 0 0 0 0 0 0 0 0 0 127 0" result="hardAlpha"/>
<feOffset/>
<feGaussianBlur stdDeviation="5"/>
<feComposite in2="hardAlpha" operator="out"/>
<feColorMatrix type="matrix" values="0 0 0 0 0 0 0 0 0 0 0 0 0 0 0 0 0 0 0.25 0"/>
<feBlend mode="normal" in2="BackgroundImageFix" result="effect1_dropShadow_93_5419"/>
<feBlend mode="normal" in="SourceGraphic" in2="effect1_dropShadow_93_5419" result="shape"/>
</filter>
</defs>
</svg>
