<svg width="216" height="74" viewBox="0 0 216 74" fill="none" xmlns="http://www.w3.org/2000/svg">
<path d="M86.9943 38.7273H90.4034L91.8523 40.5767L93.7528 42.7585L96.6761 46.3636H92.858L90.8125 43.9176L89.6023 42.179L86.9943 38.7273ZM96.7955 36.2727C96.7955 38.1932 96.4261 39.821 95.6875 41.1562C94.9489 42.4915 93.9489 43.5057 92.6875 44.1989C91.4318 44.892 90.0227 45.2386 88.4602 45.2386C86.892 45.2386 85.4801 44.8892 84.2244 44.1903C82.9688 43.4915 81.9716 42.4773 81.233 41.1477C80.5 39.8125 80.1335 38.1875 80.1335 36.2727C80.1335 34.3523 80.5 32.7244 81.233 31.3892C81.9716 30.054 82.9688 29.0398 84.2244 28.3466C85.4801 27.6534 86.892 27.3068 88.4602 27.3068C90.0227 27.3068 91.4318 27.6534 92.6875 28.3466C93.9489 29.0398 94.9489 30.054 95.6875 31.3892C96.4261 32.7244 96.7955 34.3523 96.7955 36.2727ZM92.483 36.2727C92.483 35.1364 92.321 34.1761 91.9972 33.392C91.679 32.608 91.2188 32.0142 90.6165 31.6108C90.0199 31.2074 89.3011 31.0057 88.4602 31.0057C87.625 31.0057 86.9063 31.2074 86.304 31.6108C85.7017 32.0142 85.2386 32.608 84.9148 33.392C84.5966 34.1761 84.4375 35.1364 84.4375 36.2727C84.4375 37.4091 84.5966 38.3693 84.9148 39.1534C85.2386 39.9375 85.7017 40.5312 86.304 40.9347C86.9063 41.3381 87.625 41.5398 88.4602 41.5398C89.3011 41.5398 90.0199 41.3381 90.6165 40.9347C91.2188 40.5312 91.679 39.9375 91.9972 39.1534C92.321 38.3693 92.483 37.4091 92.483 36.2727ZM107.728 39.3494V31.9091H111.887V45H107.915V42.5625H107.779C107.489 43.3636 106.995 44 106.296 44.4716C105.603 44.9375 104.765 45.1705 103.782 45.1705C102.89 45.1705 102.106 44.9659 101.43 44.5568C100.754 44.1477 100.228 43.5767 99.853 42.8438C99.478 42.1051 99.2876 41.2415 99.282 40.2528V31.9091H103.45V39.4347C103.455 40.1449 103.643 40.7045 104.012 41.1136C104.381 41.5227 104.884 41.7273 105.521 41.7273C105.935 41.7273 106.308 41.6364 106.637 41.4545C106.972 41.267 107.237 40.9972 107.43 40.6449C107.629 40.2869 107.728 39.8551 107.728 39.3494ZM114.54 45V31.9091H118.707V45H114.54ZM116.628 30.3835C116.043 30.3835 115.54 30.1903 115.119 29.804C114.699 29.4119 114.489 28.9403 114.489 28.3892C114.489 27.8437 114.699 27.3778 115.119 26.9915C115.54 26.5994 116.043 26.4034 116.628 26.4034C117.219 26.4034 117.722 26.5994 118.136 26.9915C118.557 27.3778 118.767 27.8437 118.767 28.3892C118.767 28.9403 118.557 29.4119 118.136 29.804C117.722 30.1903 117.219 30.3835 116.628 30.3835ZM127.471 45.2472C126.09 45.2472 124.906 44.9631 123.917 44.3949C122.934 43.8267 122.178 43.0369 121.65 42.0256C121.121 41.0085 120.857 39.8324 120.857 38.4972C120.857 37.1562 121.121 35.9801 121.65 34.9688C122.184 33.9517 122.942 33.1591 123.925 32.5909C124.914 32.0227 126.093 31.7386 127.462 31.7386C128.673 31.7386 129.727 31.9574 130.624 32.3949C131.528 32.8324 132.232 33.4517 132.738 34.2528C133.249 35.0483 133.519 35.983 133.548 37.0568H129.653C129.573 36.3864 129.346 35.8608 128.971 35.4801C128.602 35.0994 128.119 34.9091 127.522 34.9091C127.039 34.9091 126.616 35.0455 126.252 35.3182C125.888 35.5852 125.604 35.983 125.4 36.5114C125.201 37.0341 125.102 37.6818 125.102 38.4545C125.102 39.2273 125.201 39.8807 125.4 40.4148C125.604 40.9432 125.888 41.3437 126.252 41.6165C126.616 41.8835 127.039 42.017 127.522 42.017C127.908 42.017 128.249 41.9347 128.545 41.7699C128.846 41.6051 129.093 41.3636 129.286 41.0455C129.479 40.7216 129.602 40.3295 129.653 39.8693H133.548C133.508 40.9489 133.238 41.892 132.738 42.6989C132.244 43.5057 131.548 44.1335 130.65 44.5824C129.758 45.0256 128.698 45.2472 127.471 45.2472ZM139.439 41.5653L139.456 36.5966H140.036L143.717 31.9091H148.439L142.967 38.625H141.868L139.439 41.5653ZM135.68 45V27.5455H139.848V45H135.68ZM143.811 45L140.385 39.5625L143.129 36.6051L148.626 45H143.811ZM149.93 45V31.9091H153.893V34.3125H154.038C154.311 33.517 154.771 32.8892 155.419 32.429C156.067 31.9688 156.839 31.7386 157.737 31.7386C158.646 31.7386 159.425 31.9716 160.072 32.4375C160.72 32.9034 161.132 33.5284 161.308 34.3125H161.445C161.689 33.5341 162.166 32.9119 162.876 32.446C163.587 31.9744 164.425 31.7386 165.391 31.7386C166.629 31.7386 167.635 32.1364 168.408 32.9318C169.18 33.7216 169.567 34.8068 169.567 36.1875V45H165.399V37.142C165.399 36.4886 165.232 35.9915 164.896 35.6506C164.561 35.304 164.126 35.1307 163.592 35.1307C163.018 35.1307 162.567 35.3182 162.237 35.6932C161.913 36.0625 161.751 36.5597 161.751 37.1847V45H157.746V37.0994C157.746 36.4915 157.581 36.0114 157.251 35.6591C156.922 35.3068 156.487 35.1307 155.947 35.1307C155.584 35.1307 155.263 35.2187 154.984 35.3949C154.706 35.5653 154.487 35.8097 154.328 36.1278C154.175 36.446 154.098 36.821 154.098 37.2528V45H149.93ZM178.268 45.2472C176.899 45.2472 175.717 44.9773 174.723 44.4375C173.734 43.892 172.973 43.1165 172.439 42.1108C171.911 41.0994 171.646 39.8977 171.646 38.5057C171.646 37.1534 171.913 35.9716 172.447 34.9602C172.982 33.9432 173.734 33.1534 174.706 32.5909C175.678 32.0227 176.822 31.7386 178.141 31.7386C179.072 31.7386 179.925 31.8835 180.697 32.1733C181.47 32.4631 182.138 32.892 182.7 33.4602C183.263 34.0284 183.7 34.7301 184.013 35.5653C184.325 36.3949 184.482 37.3466 184.482 38.4205V39.4602H173.104V37.0398H180.604C180.598 36.5966 180.493 36.2017 180.288 35.8551C180.084 35.5085 179.803 35.2386 179.445 35.0455C179.092 34.8466 178.686 34.7472 178.226 34.7472C177.76 34.7472 177.342 34.8523 176.973 35.0625C176.604 35.267 176.311 35.5483 176.095 35.9062C175.879 36.2585 175.766 36.6591 175.754 37.108V39.571C175.754 40.1051 175.859 40.5739 176.07 40.9773C176.28 41.375 176.578 41.6847 176.964 41.9062C177.351 42.1278 177.811 42.2386 178.345 42.2386C178.714 42.2386 179.05 42.1875 179.351 42.0852C179.652 41.983 179.911 41.8324 180.126 41.6335C180.342 41.4347 180.504 41.1903 180.612 40.9006L184.439 41.0114C184.28 41.8693 183.93 42.6165 183.391 43.2528C182.857 43.8835 182.155 44.375 181.286 44.7273C180.416 45.0739 179.411 45.2472 178.268 45.2472ZM191.391 45.1875C190.425 45.1875 189.548 44.9375 188.758 44.4375C187.968 43.9375 187.337 43.1875 186.866 42.1875C186.394 41.1875 186.158 39.946 186.158 38.4631C186.158 36.9233 186.403 35.6562 186.891 34.6619C187.38 33.6676 188.019 32.9318 188.809 32.4545C189.604 31.9773 190.46 31.7386 191.374 31.7386C192.062 31.7386 192.65 31.858 193.138 32.0966C193.627 32.3295 194.031 32.6307 194.349 33C194.667 33.3693 194.908 33.7528 195.073 34.1506H195.158V27.5455H199.326V45H195.201V42.8778H195.073C194.897 43.2812 194.647 43.6591 194.323 44.0114C193.999 44.3636 193.593 44.6477 193.104 44.8636C192.621 45.0795 192.05 45.1875 191.391 45.1875ZM192.84 41.9403C193.346 41.9403 193.778 41.7983 194.136 41.5142C194.494 41.2244 194.769 40.8182 194.962 40.2955C195.156 39.7727 195.252 39.1591 195.252 38.4545C195.252 37.7386 195.156 37.1222 194.962 36.6051C194.775 36.0881 194.499 35.6903 194.136 35.4119C193.778 35.1335 193.346 34.9943 192.84 34.9943C192.323 34.9943 191.886 35.1364 191.528 35.4205C191.17 35.7045 190.897 36.1051 190.71 36.6222C190.528 37.1392 190.437 37.75 190.437 38.4545C190.437 39.1591 190.531 39.7727 190.718 40.2955C190.906 40.8182 191.175 41.2244 191.528 41.5142C191.886 41.7983 192.323 41.9403 192.84 41.9403ZM213.391 35.9062L209.564 36.0085C209.524 35.7358 209.416 35.4943 209.24 35.2841C209.064 35.0682 208.834 34.9006 208.55 34.7812C208.271 34.6562 207.947 34.5938 207.578 34.5938C207.095 34.5938 206.683 34.6903 206.342 34.8835C206.007 35.0767 205.842 35.3381 205.848 35.6676C205.842 35.9233 205.945 36.1449 206.155 36.3324C206.371 36.5199 206.754 36.6705 207.305 36.7841L209.828 37.2614C211.135 37.5114 212.107 37.9261 212.743 38.5057C213.385 39.0852 213.709 39.8523 213.714 40.8068C213.709 41.7045 213.442 42.4858 212.913 43.1506C212.391 43.8153 211.675 44.3324 210.766 44.7017C209.857 45.0653 208.817 45.2472 207.646 45.2472C205.777 45.2472 204.303 44.8636 203.223 44.0966C202.149 43.3239 201.536 42.2898 201.382 40.9943L205.499 40.892C205.589 41.3693 205.825 41.733 206.206 41.983C206.587 42.233 207.072 42.358 207.663 42.358C208.197 42.358 208.632 42.2585 208.967 42.0597C209.303 41.8608 209.473 41.5966 209.479 41.267C209.473 40.9716 209.342 40.7358 209.087 40.5597C208.831 40.3778 208.43 40.2358 207.885 40.1335L205.601 39.6989C204.288 39.4602 203.311 39.0199 202.669 38.3778C202.027 37.7301 201.709 36.9062 201.714 35.9062C201.709 35.0312 201.942 34.2841 202.413 33.6648C202.885 33.0398 203.555 32.5625 204.425 32.233C205.294 31.9034 206.32 31.7386 207.501 31.7386C209.274 31.7386 210.672 32.1108 211.695 32.8551C212.717 33.5937 213.283 34.6108 213.391 35.9062Z" fill="#95BB7C"/>
<g filter="url(#filter0_d_61_4673)">
<circle cx="37" cy="37" r="27" fill="white"/>
<path fill-rule="evenodd" clip-rule="evenodd" d="M40.9581 29.1057C40.9581 28.9219 40.9581 23.7484 40.9581 23.5803C40.5199 19.3575 33.2499 19.5308 33.1142 23.7746C33.1142 25.261 33.0648 28.57 33.0586 30.0353C33.0578 30.5121 32.9465 30.9841 32.7309 31.4242C32.5154 31.8644 32.2 32.264 31.8027 32.6001C31.4054 32.9363 30.934 33.2025 30.4156 33.3833C29.8973 33.5642 29.342 33.6562 28.7818 33.6542C28.467 33.6542 21.9314 33.6962 21.4254 33.6542C20.3975 33.643 19.4065 33.9798 18.6704 34.5905C17.9343 35.2012 17.5134 36.0358 17.5003 36.9106C17.4872 37.7854 17.883 38.6288 18.6006 39.2552C19.3181 39.8817 20.2987 40.2399 21.3266 40.251H27.7018C35.8358 40.251 40.9396 37.8034 40.9396 31.8894L40.9581 29.1057Z" fill="#95BB7C"/>
<path fill-rule="evenodd" clip-rule="evenodd" d="M32.9844 44.6677C32.9844 44.8515 33.0782 50.0648 33.0782 50.2329C33.5164 54.4347 40.7741 54.2719 40.9345 50.0386C40.9345 48.5522 40.9839 45.2432 40.9901 43.7831C40.9901 43.3059 41.1008 42.8333 41.316 42.3926C41.5311 41.9519 41.8464 41.5516 42.2438 41.2149C42.6412 40.8782 43.1128 40.6116 43.6316 40.4304C44.1504 40.2492 44.7061 40.157 45.2669 40.159C45.5816 40.159 52.1172 40.117 52.6233 40.159C53.1439 40.1815 53.6645 40.1143 54.1539 39.9615C54.6433 39.8087 55.0915 39.5734 55.4716 39.2698C55.8517 38.9662 56.1559 38.6004 56.3661 38.1944C56.5762 37.7884 56.6879 37.3505 56.6946 36.9069C56.7012 36.4633 56.6026 36.0231 56.4047 35.6126C56.2068 35.2022 55.9137 34.8299 55.5428 34.5182C55.1719 34.2064 54.7309 33.9615 54.2463 33.7981C53.7616 33.6348 53.2432 33.5563 52.722 33.5674H46.3346C38.2005 33.5622 33.0782 35.9989 33.0782 41.9024L32.9844 44.6677Z" fill="#95BB7C" fill-opacity="0.49"/>
</g>
<defs>
<filter id="filter0_d_61_4673" x="0" y="0" width="74" height="74" filterUnits="userSpaceOnUse" color-interpolation-filters="sRGB">
<feFlood flood-opacity="0" result="BackgroundImageFix"/>
<feColorMatrix in="SourceAlpha" type="matrix" values="0 0 0 0 0 0 0 0 0 0 0 0 0 0 0 0 0 0 127 0" result="hardAlpha"/>
<feOffset/>
<feGaussianBlur stdDeviation="5"/>
<feComposite in2="hardAlpha" operator="out"/>
<feColorMatrix type="matrix" values="0 0 0 0 0 0 0 0 0 0 0 0 0 0 0 0 0 0 0.25 0"/>
<feBlend mode="normal" in2="BackgroundImageFix" result="effect1_dropShadow_61_4673"/>
<feBlend mode="normal" in="SourceGraphic" in2="effect1_dropShadow_61_4673" result="shape"/>
</filter>
</defs>
</svg>
