<svg width="1614" height="1126" viewBox="0 0 1614 1126" fill="none" xmlns="http://www.w3.org/2000/svg">
<path opacity="0.5" d="M1006.7 1110.38H856.2H776.6C745.7 1110.38 720.5 1085.08 720.5 1054.18L720.6 498.079C720.6 467.179 745.9 441.979 776.8 441.979H847.4H1006.9C1037.8 441.979 1063.1 467.279 1063.1 498.179L1062.9 1054.28C1062.9 1085.18 1037.6 1110.38 1006.7 1110.38Z" fill="#174D47" fill-opacity="0.39"/>
<path fill-rule="evenodd" clip-rule="evenodd" d="M1015.1 983.679C1014.8 983.679 1014.5 983.679 1014.2 983.779C1016.4 984.679 1018.7 985.879 1020.7 987.379C1026.7 991.979 1030.3 998.579 1031.2 1005.58C1032.1 1012.58 1030.4 1019.88 1025.8 1025.88L989.9 1072.78C980.7 1084.78 963.4 1087.08 951.5 1077.88C939.5 1068.68 937.2 1051.38 946.3 1039.48L952.7 1031.08C950.7 1029.28 948.9 1027.28 947.5 1024.88C947.3 1025.18 947.1 1025.58 946.8 1025.88L928.9 1049.28L910.9 1072.78C901.8 1084.78 884.5 1087.08 872.5 1077.88C860.5 1068.68 858.2 1051.38 867.4 1039.38L885.3 1015.98L891.9 1007.48L887.1 1010.68C881.6 1014.48 875.1 1015.98 868.9 1015.38C868 1019.08 866.4 1022.68 864 1025.78L846 1049.28L828.1 1072.78C818.9 1084.68 801.6 1086.98 789.6 1077.88C785.7 1074.88 782.9 1071.08 781.1 1066.78C773.5 1074.98 761.4 1078.08 750.5 1073.58C743.5 1070.78 738.4 1065.28 735.7 1058.78C733 1052.28 732.7 1044.78 735.6 1037.78L746.9 1010.48L758.2 983.179C760.6 977.379 764.8 972.879 769.8 969.979C768.4 963.779 769.1 957.179 772 951.479C769.1 952.379 766 952.779 762.7 952.579C755.2 952.279 748.5 948.779 743.8 943.579C739.1 938.379 736.4 931.379 736.7 923.879L738.2 894.379L739.7 864.879C740.3 853.779 747.4 844.579 757 840.779L749.7 823.279L738.4 796.079C732.5 782.079 739.2 765.979 753.1 760.179C767 754.379 783.1 760.979 789 774.879L800.3 802.179L803.3 809.279C805.6 799.979 812.8 792.079 822.7 789.379L851.2 781.579L879.7 773.779C882.1 773.079 884.6 772.779 887 772.779C877.7 762.879 876.9 747.279 885.8 736.479C895.4 724.879 912.8 723.179 924.4 732.879L969.9 770.479C978.7 777.679 981.8 789.379 978.7 799.579C981.2 804.979 982 810.879 980.9 816.379C980.1 820.679 978.3 824.779 975.6 828.279C981.2 828.479 986.7 830.279 991.5 833.879C993.8 835.679 995.7 837.679 997.3 839.979L986.9 796.679C983.4 781.979 992.5 767.079 1007.2 763.579C1014.5 761.879 1021.9 763.279 1027.9 766.979C1033.9 770.579 1038.5 776.579 1040.2 783.879L1047.1 812.679L1054 841.379C1057.5 856.079 1048.4 870.879 1033.7 874.379C1020.5 877.579 1007.1 870.479 1002 858.279C1001.6 862.779 1000.1 867.279 997.3 871.279C998.1 871.079 998.9 870.913 999.7 870.779C1007.2 869.779 1014.4 871.879 1020 876.179C1025.6 880.379 1029.6 886.779 1030.6 894.279L1034.6 923.479L1038.6 952.779C1040.7 967.779 1030.1 981.579 1015.1 983.679ZM789.7 935.179L802.2 926.479C801.1 925.779 800 925.179 798.9 924.279C796 922.179 793.7 919.479 792 916.579L791.5 926.579C791.4 929.579 790.7 932.479 789.7 935.179ZM976.1 899.079L960.7 919.279C958.5 921.979 956 924.179 953.2 925.879C959.7 924.979 966.1 926.479 971.4 929.679C975.7 932.379 979.3 936.279 981.7 940.979L976.3 901.679C976.166 900.813 976.1 899.946 976.1 899.079ZM913.7 805.979L920.8 801.079L913.9 795.379C914.6 798.979 914.5 802.479 913.7 805.979ZM942.5 852.679L920.9 867.579C919 868.879 917.1 869.879 915 870.679C917.5 874.079 919.2 877.979 919.9 882.279L942.5 852.679ZM942.7 929.679C935.7 930.679 928.2 928.979 922.2 924.379C920.5 923.079 919 921.579 917.7 919.979L917.1 927.379C924.5 926.579 932 928.779 937.8 933.579C939.266 932.112 940.9 930.813 942.7 929.679ZM868 833.779C868 833.779 868.033 833.812 868.1 833.879C874.1 838.379 877.6 845.079 878.6 851.979C879.1 855.979 878.7 860.079 877.5 863.979C879.233 862.779 881.1 861.812 883.1 861.079C882.967 860.946 882.833 860.779 882.7 860.579C876.2 851.079 876.5 838.879 882.5 829.779L868 833.779ZM849.6 903.179C854.7 904.079 859.5 906.379 863.5 909.879L865.5 884.579C865.567 883.712 865.666 882.846 865.8 881.979L855.2 895.779L849.6 903.179ZM820.5 992.479C826.5 984.679 835.9 980.979 845 981.879C846.5 975.479 850.3 969.579 856.1 965.579L864.7 959.579C863.4 957.279 862.3 954.679 861.6 952.079C861.3 952.279 861.1 952.579 860.8 952.779L812.1 986.279C811.5 986.679 810.9 987.079 810.3 987.479C811.5 992.879 811.2 998.679 808.9 1004.08L805.8 1011.68L820.5 992.479ZM928.8 981.979C931.4 982.279 934 983.079 936.4 984.179L934.9 977.779L928.8 981.979ZM1001.5 981.879C997.1 980.179 993.2 977.379 990.3 973.679L990.7 975.379L992.8 984.179C995.5 982.979 998.5 982.179 1001.5 981.879ZM813.8 837.779C814.7 849.279 808.2 860.579 797.1 865.279C796.233 865.613 795.4 865.913 794.6 866.179C794.6 866.579 794.6 867.079 794.6 867.579L793.6 886.179C793.667 886.046 793.733 885.913 793.8 885.779L811.8 862.379L826.7 842.979C822 842.379 817.6 840.579 813.8 837.779Z" fill="#174D47"/>
<path opacity="0.5" d="M856.2 1110.38H776.6C745.7 1110.38 720.5 1085.08 720.5 1054.18L720.6 498.079C720.6 467.179 745.9 441.979 776.8 441.979H847.4C853.2 451.979 856.6 463.879 856.6 476.679L856.4 1104.78C856.4 1106.65 856.333 1108.51 856.2 1110.38Z" fill="#174D47" fill-opacity="0.39"/>
<path d="M1059.4 468.279L845.6 468.179H724.4C718.3 468.179 713.4 463.179 713.4 457.179V404.879C713.4 398.879 718.4 393.879 724.4 393.879L845.5 393.979H1059.4C1065.4 393.979 1070.3 398.979 1070.3 404.979V457.279C1070.3 463.279 1065.4 468.279 1059.4 468.279Z" fill="#174D47"/>
<path d="M845.6 468.179H724.4C718.3 468.179 713.4 463.179 713.4 457.179V404.879C713.4 398.879 718.4 393.879 724.4 393.879L845.5 393.979C851.5 393.979 856.4 398.879 856.4 404.879V457.279C856.4 463.179 851.6 468.079 845.6 468.179Z" fill="#174D47"/>
<path d="M1196.8 594.879C1196.8 594.879 1196.6 593.479 1195 591.579C1194 589.479 1192.9 586.979 1192.8 585.579C1192.8 582.979 1189.8 581.879 1188.5 584.079C1188.1 584.879 1187.9 585.712 1187.9 586.579C1183.1 584.379 1175.8 582.479 1164.5 581.679C1164.5 581.679 1155.8 580.779 1161.4 588.079C1165.2 593.079 1168.5 593.079 1173.9 599.979C1179.3 606.779 1187.5 610.579 1193.7 608.779L1200.9 609.679L1205.6 598.079L1196.8 594.879Z" fill="#F9C29D"/>
<path d="M1430.3 518.379C1430.3 518.379 1423.2 596.979 1321.5 630.179C1294 639.079 1191.4 611.579 1191.4 611.579C1191.4 611.579 1192 598.079 1200.3 594.679C1200.3 594.679 1296.5 588.779 1304.6 592.779C1311.8 596.279 1373.2 533.079 1393 522.879C1412.9 512.679 1430.3 518.379 1430.3 518.379Z" fill="#174D47" fill-opacity="0.41"/>
<path d="M1555.8 1059.18C1555.8 1059.18 1568 1070.28 1565.6 1078.18C1563.2 1086.08 1552.2 1091.28 1550.7 1100.98C1549.3 1110.58 1543.3 1115.88 1538 1115.88C1532.6 1115.88 1512.5 1115.88 1512.5 1115.88C1512.5 1115.88 1508.6 1109.08 1518.1 1107.08C1527.6 1104.98 1531.2 1093.68 1530.6 1083.18C1530 1072.58 1531.5 1058.58 1531.5 1058.58L1551.6 1053.88L1555.8 1059.18Z" fill="#23393D"/>
<path d="M1555.8 1052.18C1553.6 1058.78 1529.1 1068.48 1529.1 1068.48C1529.1 1068.48 1515.7 1047.38 1473 971.979C1469.3 965.479 1465.4 958.379 1461.5 950.779C1419.5 870.079 1365.2 736.079 1365.2 736.079L1469 707.179C1469 707.179 1473.9 748.779 1474.8 769.879C1475.3 782.779 1482.6 810.179 1491.9 834.179C1497.8 849.479 1504.5 863.379 1510.8 871.179C1539.4 906.679 1555.8 1052.18 1555.8 1052.18Z" fill="#30545D"/>
<path d="M1491.9 834.179C1485.4 867.279 1473.4 922.679 1461.5 950.779C1419.5 870.079 1365.2 736.079 1365.2 736.079L1469 707.179C1469 707.179 1473.9 748.779 1474.8 769.879C1475.3 782.779 1482.6 810.179 1491.9 834.179Z" fill="#23393D"/>
<path d="M1406.5 1087.88C1406.5 1087.88 1408.7 1113.18 1403.3 1115.78L1335 1115.68C1335 1115.68 1335 1107.78 1345.9 1105.98C1356.9 1104.28 1376.2 1097.88 1379.5 1083.48C1382.7 1069.18 1406.5 1087.88 1406.5 1087.88Z" fill="#23393D"/>
<path d="M1348.8 730.879C1348.8 730.879 1352.4 775.179 1356.6 828.379C1362.4 900.779 1369.3 989.679 1370 1006.48C1371.2 1035.68 1375.9 1082.48 1375.9 1082.48C1375.9 1082.48 1387.2 1093.58 1409.8 1088.88C1409.8 1088.88 1429.9 1022.18 1435.6 951.479C1435.67 950.346 1435.77 949.179 1435.9 947.979C1441.2 876.079 1449.5 724.679 1449.5 724.679L1348.8 730.879Z" fill="#30545D"/>
<path d="M1443.1 491.079C1443.1 491.079 1379.6 510.479 1387.1 500.979C1386.1 495.279 1383.3 480.079 1382.8 475.879C1381.6 466.279 1381.6 460.779 1381.6 460.779L1400.5 445.879L1418.5 431.679C1417.1 471.679 1443.1 491.079 1443.1 491.079Z" fill="#F2BEB7"/>
<path d="M1500.6 814.679C1449 849.479 1344.8 839.579 1344 838.879C1342.3 816.779 1341.3 780.179 1340.7 746.379C1340.1 704.379 1340.1 666.579 1340.1 665.779C1340.1 665.779 1340.2 664.479 1340.2 662.279C1340.4 655.479 1340.8 639.879 1341.2 628.179C1341.33 625.979 1341.43 623.979 1341.5 622.179C1341.5 622.046 1341.5 621.946 1341.5 621.879C1341.8 616.579 1345 602.579 1349.5 586.279C1356.1 562.379 1365.5 533.479 1372.7 520.079C1376.5 513.179 1388.9 493.279 1388.9 493.279C1397.7 494.979 1404 492.379 1413.3 487.879C1423.4 482.979 1434.3 477.679 1436.1 479.079C1449.4 488.779 1458.3 510.579 1463.1 538.379C1465.8 554.479 1503.1 812.979 1500.6 814.679Z" fill="#CADBBE"/>
<path d="M1418.8 446.979C1418.8 446.979 1406.4 469.579 1382.8 475.879C1381.6 466.279 1381.6 460.779 1381.6 460.779L1400.5 445.879L1418.8 446.979Z" fill="#EDA8A2"/>
<path d="M1373 460.179C1373 460.179 1419.8 467.779 1424.2 439.079C1428.5 410.279 1437.5 391.879 1407.9 385.779C1378.2 379.679 1370.7 389.779 1366.9 399.079C1363 408.279 1360.9 457.379 1373 460.179Z" fill="#F2BEB7"/>
<path d="M1441.1 382.379C1441.6 381.879 1442.6 381.479 1444.7 381.379C1444.7 381.379 1443 380.279 1440.7 380.179C1440.2 377.179 1438.6 371.779 1433.4 370.479C1433.4 370.479 1436.2 371.979 1436.5 375.279C1430.5 369.079 1417.6 364.479 1381.7 367.379C1334.5 371.079 1350.1 401.279 1356.2 404.879C1362.3 408.579 1377.7 398.679 1389.1 399.579C1400.5 400.479 1402.6 416.879 1406.5 419.179C1410.4 421.479 1408.8 417.479 1414.1 415.079C1419.3 412.679 1419.8 421.379 1418.3 426.979C1416.8 432.679 1424 440.079 1424 440.079C1424 440.079 1424 440.079 1431.2 432.279C1438.5 424.479 1445.3 391.279 1442 384.279C1441.73 383.612 1441.43 382.979 1441.1 382.379Z" fill="#363C3B"/>
<path d="M1340.7 746.379C1340.1 704.379 1340.1 666.579 1340.1 665.779C1340.1 665.779 1340.2 664.479 1340.2 662.279C1380.6 612.279 1432.7 560.279 1432.7 560.279C1432.7 560.279 1444 707.079 1340.7 746.379Z" fill="#174D47" fill-opacity="0.41"/>
<path d="M1395.6 551.779C1395 552.679 1382.2 628.279 1349.4 629.079C1346.2 629.179 1343.5 628.879 1341.2 628.179C1341.27 625.979 1341.37 623.979 1341.5 622.179C1341.5 622.046 1341.5 621.946 1341.5 621.879C1341.8 616.579 1345 602.579 1349.5 586.279C1363 583.579 1378.7 571.179 1395.6 551.779Z" fill="#174D47" fill-opacity="0.41"/>
<path d="M1436.2 479.079C1436.2 479.079 1432.3 467.779 1429.1 466.479C1429.1 466.479 1385 476.679 1370.2 525.479C1370.2 525.479 1387.4 495.479 1436.2 479.079Z" fill="#174D47" fill-opacity="0.61"/>
<path d="M1347.9 844.379L1260 856.579L1213.5 863.079C1195.4 865.579 1178.6 852.879 1176.1 834.779L1130.9 509.879C1128.4 491.779 1141.1 474.979 1159.1 472.479L1200.4 466.779L1293.6 453.779C1311.6 451.279 1328.5 463.979 1331 482.079L1376.2 806.979C1378.7 824.979 1366 841.879 1347.9 844.379Z" fill="#174D47"/>
<path fill-rule="evenodd" clip-rule="evenodd" d="M1342.5 769.579C1342.3 769.646 1342.1 769.713 1341.9 769.779C1343.37 770.113 1344.77 770.646 1346.1 771.379C1349.9 773.579 1352.6 777.079 1353.7 781.079C1354.8 785.079 1354.4 789.479 1352.2 793.379L1335 823.779C1330.6 831.479 1320.7 834.179 1313 829.879C1305.2 825.479 1302.5 815.579 1306.9 807.779L1309.9 802.379C1308.57 801.513 1307.37 800.446 1306.3 799.179C1306.23 799.379 1306.13 799.579 1306 799.779L1297.5 814.979L1288.9 830.179C1284.5 837.879 1274.6 840.679 1266.8 836.279C1259.1 831.879 1256.3 821.979 1260.7 814.179L1269.3 799.079L1272.4 793.579L1269.9 795.779C1267 798.479 1263.3 799.879 1259.6 800.079C1259.4 802.279 1258.8 804.479 1257.6 806.579L1249 821.679L1240.5 836.879C1236.1 844.679 1226.2 847.379 1218.4 842.979C1215.9 841.579 1213.9 839.579 1212.5 837.279C1208.8 842.679 1201.9 845.479 1195.2 843.679C1190.9 842.579 1187.4 839.779 1185.3 836.279C1183.2 832.679 1182.5 828.279 1183.6 823.979L1188 807.079L1192.3 790.279C1193.3 786.679 1195.3 783.679 1198.1 781.579C1196.7 778.079 1196.6 774.179 1197.8 770.579C1196.2 771.379 1194.4 771.879 1192.5 771.979C1188.1 772.379 1183.9 770.979 1180.7 768.279C1177.5 765.579 1175.4 761.779 1175 757.279L1173.4 739.979L1171.9 722.579C1171.3 716.079 1174.7 710.179 1180.1 707.079L1174.4 697.479L1165.5 682.479C1161 674.879 1163.5 664.879 1171.2 660.379C1178.9 655.779 1188.8 658.379 1193.4 666.079L1202.2 681.079L1204.6 684.979C1205.1 679.279 1208.7 674.079 1214.3 671.679L1230.3 664.879L1246.3 657.979C1247.63 657.379 1249.03 657.013 1250.5 656.879C1244.2 651.779 1242.5 642.779 1246.8 635.679C1251.5 628.179 1261.5 625.779 1269.1 630.479L1298.7 648.679C1304.4 652.179 1307.2 658.779 1306.2 664.979C1308.1 667.979 1309 671.279 1308.9 674.679C1308.8 677.279 1308.1 679.779 1306.8 682.079C1310 681.679 1313.4 682.279 1316.5 683.979C1317.97 684.846 1319.27 685.879 1320.4 687.079L1310.8 662.679C1307.5 654.379 1311.7 644.879 1319.9 641.679C1324.1 640.079 1328.5 640.279 1332.3 641.979C1336.1 643.579 1339.3 646.679 1340.9 650.879L1347.3 667.079L1353.6 683.279C1356.9 691.579 1352.7 700.979 1344.5 704.279C1337 707.179 1328.6 704.079 1324.6 697.379C1324.8 700.079 1324.2 702.779 1322.9 705.379C1323.37 705.179 1323.83 705.013 1324.3 704.879C1328.6 703.679 1333 704.379 1336.6 706.379C1340.2 708.379 1343.1 711.779 1344.3 716.079L1349 732.879L1353.7 749.679C1356.1 758.179 1351.1 767.179 1342.5 769.579ZM1206.8 759.579L1213.4 753.479C1212.73 753.213 1212.03 752.912 1211.3 752.579C1209.5 751.479 1207.9 750.179 1206.7 748.579L1207.2 754.479C1207.4 756.279 1207.2 757.979 1206.8 759.579ZM1312.8 723.379L1305.4 736.379C1304.4 738.179 1303.1 739.679 1301.6 740.879C1305.3 739.879 1309.2 740.179 1312.5 741.679C1315.3 742.879 1317.7 744.879 1319.5 747.379L1313.1 724.879C1312.97 724.346 1312.87 723.846 1312.8 723.379ZM1268.8 673.979L1272.5 670.579L1268 667.779C1268.7 669.879 1268.9 671.979 1268.8 673.979ZM1289.4 698.979L1278 709.479C1277 710.346 1275.93 711.079 1274.8 711.679C1276.5 713.479 1277.8 715.679 1278.6 718.079L1289.4 698.979ZM1295.8 743.979C1291.8 745.179 1287.3 744.779 1283.4 742.579C1282.27 741.912 1281.27 741.179 1280.4 740.379L1280.6 744.679C1284.9 743.679 1289.5 744.379 1293.2 746.679C1294 745.679 1294.87 744.779 1295.8 743.979ZM1244.3 694.079C1244.37 694.079 1244.4 694.079 1244.4 694.079C1248.3 696.279 1250.9 699.879 1252 703.879C1252.6 706.079 1252.7 708.579 1252.3 710.979C1253.23 710.113 1254.27 709.379 1255.4 708.779C1255.33 708.713 1255.23 708.613 1255.1 708.479C1250.5 703.479 1249.7 696.379 1252.5 690.579L1244.3 694.079ZM1239.2 736.079C1242.2 736.179 1245.2 737.079 1247.8 738.879L1246.9 723.879C1246.9 723.346 1246.9 722.846 1246.9 722.379L1241.9 731.279L1239.2 736.079ZM1229.4 790.679C1232.3 785.579 1237.5 782.679 1242.9 782.479C1243.2 778.579 1244.9 774.779 1248 771.979L1252.6 767.779C1251.6 766.579 1250.8 765.213 1250.2 763.679C1250 763.813 1249.83 763.979 1249.7 764.179L1224 787.679C1223.67 788.013 1223.33 788.312 1223 788.579C1224.2 791.579 1224.5 794.979 1223.6 798.379L1222.4 803.079L1229.4 790.679ZM1291.8 775.679C1293.4 775.679 1294.93 775.913 1296.4 776.379L1295 772.779L1291.8 775.679ZM1334.3 769.679C1331.6 769.079 1329.1 767.679 1327.1 765.779L1327.5 766.779L1329.4 771.779C1330.9 770.779 1332.6 770.079 1334.3 769.679ZM1212.9 700.779C1214.4 707.379 1211.5 714.579 1205.4 718.179C1204.93 718.446 1204.47 718.679 1204 718.879C1204 719.146 1204.03 719.446 1204.1 719.779L1205.1 730.679C1205.1 730.613 1205.13 730.546 1205.2 730.479L1213.7 715.279L1220.9 702.679C1218.1 702.779 1215.3 702.079 1212.9 700.779Z" fill="#30545D"/>
<path d="M1326.4 464.879L1201.5 482.179L1130.6 492.079C1127.1 492.579 1123.8 490.079 1123.3 486.579L1119.1 455.979C1118.6 452.479 1121.1 449.179 1124.6 448.679L1195.4 438.879L1320.3 421.479C1323.8 420.979 1327.1 423.479 1327.6 426.979L1331.9 457.579C1332.4 461.079 1329.9 464.379 1326.4 464.879Z" fill="#CADBBE"/>
<path d="M1242.5 654.679C1242.5 654.679 1241.9 653.379 1239.8 651.979C1238.3 650.279 1236.6 648.179 1236.1 646.779C1235.3 644.279 1232.2 644.079 1231.6 646.579C1231.4 647.379 1231.43 648.212 1231.7 649.079C1226.5 648.379 1218.9 648.479 1207.8 650.879C1207.8 650.879 1199.2 652.279 1206.6 657.879C1211.6 661.579 1214.8 660.679 1221.9 665.779C1229 670.879 1237.9 672.279 1243.3 668.879L1250.5 667.679L1251.9 655.279L1242.5 654.679Z" fill="#F9C29D"/>
<path d="M1445.9 516.779C1445.9 516.779 1460.7 594.279 1372.1 654.179C1348.2 670.379 1241.9 672.179 1241.9 672.179C1241.9 672.179 1238.7 659.079 1245.8 653.479C1245.8 653.479 1336.6 621.279 1345.5 622.879C1353.4 624.279 1395 546.579 1411.3 531.379C1427.6 516.079 1445.9 516.779 1445.9 516.779Z" fill="#CADBBE"/>
<path d="M233.2 386.979C233.2 385.279 231.8 365.979 202.4 364.979C202.4 364.979 216.9 366.679 219.4 372.979C219.4 372.979 209.5 365.179 201.5 367.679C193.5 370.179 188.8 384.279 188.7 388.879C188.7 393.479 193.2 408.379 198.2 409.579C200.2 410.079 202.4 409.979 204.4 409.679C203.067 411.746 201.733 414.079 200.4 416.679C188.7 440.779 200.8 464.279 210.7 461.679C217.1 459.979 218.9 470.879 218.9 470.879L280.7 420.779C280.7 420.779 258 373.779 233.2 386.979Z" fill="#363C3B"/>
<path d="M339.1 642.579C338.5 643.879 335.9 650.079 331.7 656.479C328.3 661.579 323.8 666.779 318.5 669.479C314.4 667.479 307 664.579 303.9 662.679C292.6 655.779 276.5 636.179 263.3 615.279C261.3 612.079 259.367 608.846 257.5 605.579C257.1 604.979 256.8 604.379 256.5 603.779C251.9 595.479 248.1 587.179 245.9 579.579L269.8 528.479C269.9 528.579 277.2 532.879 283.7 551.479C293.3 579.179 308.9 618.479 319.8 630.579C322.3 633.379 329.7 637.579 338.7 642.079C338.833 642.412 338.967 642.579 339.1 642.579Z" fill="#CADBBE"/>
<path d="M331.7 656.479C328.3 661.579 323.8 666.779 318.5 669.479C314.4 667.479 307 664.579 303.9 662.679C292.6 655.779 276.5 636.179 263.3 615.279C263.8 608.679 298.3 642.479 302.7 648.679C306 653.279 323.1 655.579 331.7 656.479Z" fill="#174D47" fill-opacity="0.41"/>
<path d="M389.4 1058.98L384.6 1103.58C383.6 1112.38 375.6 1118.88 366.8 1117.88L322.2 1113.08C313.4 1112.18 306.9 1104.08 307.9 1095.28L312.7 1050.68C313.6 1042.58 320.4 1036.48 328.4 1036.28C329.067 1036.28 329.767 1036.31 330.5 1036.38L375.1 1041.18C383.9 1042.18 390.3 1050.18 389.4 1058.98Z" fill="#30545D"/>
<path d="M364.3 1057.78C332.7 1059.48 326.3 1113.48 322.2 1113.08C313.4 1112.18 306.9 1104.08 307.9 1095.28L312.7 1050.68C313.6 1042.58 320.4 1036.48 328.4 1036.28C356.2 1046.48 380.1 1056.88 364.3 1057.78Z" fill="#23393D"/>
<path d="M503.5 513.079L443.4 851.979L409.5 1043.08C407.5 1054.08 397.3 1061.78 386.2 1060.58L331.5 1054.68L319.1 1053.28C303.6 1051.58 292 1038.18 292.7 1022.48L301.5 836.579L317.8 493.079L432.3 505.379L503.5 513.079Z" fill="#E0F4F7"/>
<path d="M432.3 505.379L373.9 838.779L338.4 1041.78C337.5 1046.88 335 1051.38 331.5 1054.68L319.1 1053.28C303.6 1051.58 292 1038.18 292.7 1022.48L301.5 836.579L317.8 493.079L432.3 505.379Z" fill="#174D47" fill-opacity="0.39"/>
<path d="M506 489.979L503.5 513.079L432.3 505.379L317.8 493.079L320.3 469.879L435.5 482.379L506 489.979Z" fill="#174D47"/>
<path d="M443.4 851.979L409.2 1044.38C407.4 1054.68 397.9 1061.78 387.5 1060.68L335.9 1055.08L314.4 1052.78C301.5 1051.38 291.9 1040.18 292.5 1027.28L301.5 836.579L374.9 844.579L443.4 851.979Z" fill="#174D47"/>
<path d="M374.9 844.579L339.1 1046.68C338.5 1049.78 337.4 1052.58 335.9 1055.08L314.4 1052.78C301.5 1051.38 291.9 1040.18 292.5 1027.28L301.5 836.579L374.9 844.579Z" fill="#174D47"/>
<path d="M435.5 482.379L432.3 505.379L317.8 493.079L320.3 469.879L435.5 482.379Z" fill="#174D47"/>
<path d="M254.8 1095.98L241.6 1100.88C241.6 1100.88 184.6 1021.68 177.6 952.079C176.3 939.679 178.9 913.279 177.9 907.679C177.5 905.079 176.9 901.879 176.3 898.279C174.4 887.679 171.9 873.079 168.9 856.579C162.2 818.479 153.5 769.779 146.8 733.979L150.3 732.779L188.6 720.479L196.5 695.279L225 687.779C225 687.779 231.4 700.279 237.1 759.079C238.2 766.879 239.1 775.379 239.8 784.579C242 812.779 242.2 847.779 237.1 887.679C235.8 897.979 230.4 938.179 231 950.579C233.9 1007.48 254.8 1095.98 254.8 1095.98Z" fill="#30545D"/>
<path d="M239.8 784.579L177.9 907.679C177.5 905.079 176.9 901.879 176.3 898.279C174.4 887.679 171.9 873.079 168.9 856.579C162.2 818.479 153.5 769.779 146.8 733.979L150.3 732.779L188.6 720.479L196.5 695.279L225 687.779C225 687.779 231.4 700.279 237.1 759.079C238.2 766.879 239.1 775.379 239.8 784.579Z" fill="#23393D"/>
<path d="M212.6 703.579L211.2 691.279C187.1 697.679 123 673.479 123 673.479C123 673.479 99.7 693.979 102.8 742.979C104.3 766.879 107 868.579 109.8 898.679C110.9 909.579 103.8 937.579 100.9 945.179C73 1019.58 105.2 1111.18 105.2 1111.18L113.6 1107.78C113.6 1107.78 166.5 916.079 171.9 895.679C182.3 857.279 190.6 807.379 196.1 768.779C196.8 768.779 212.6 703.579 212.6 703.579Z" fill="#30545D"/>
<path d="M230.8 560.979C189.5 563.279 198.6 501.679 201.1 501.979C206.2 499.379 215.2 486.579 220.5 465.179L222.3 465.979L252.1 479.979C252.1 479.979 248.9 489.679 246.6 498.979C244.7 506.179 243.4 513.179 244.5 515.179C246.9 516.079 248.3 516.679 248.3 516.679C248.3 516.679 248.3 516.713 248.3 516.779C248.6 517.479 241.8 560.379 230.8 560.979Z" fill="#F2BEB7"/>
<path d="M252.1 479.979C252.1 479.979 248.9 489.679 246.6 498.979C229.1 494.079 223.9 475.779 222.3 465.979L252.1 479.979Z" fill="#EDA8A2"/>
<path d="M255.7 490.179C255.7 490.179 214.1 480.579 220.5 454.779C226.9 428.879 225.8 410.279 252.7 415.279C279.5 420.379 282.2 431.479 282.2 440.679C282.2 449.779 266.7 492.079 255.7 490.179Z" fill="#F2BEB7"/>
<path d="M284.5 425.979C280.1 416.579 274.8 417.079 271.5 418.779C251.9 400.679 232.7 415.479 232.7 415.479C225.3 433.279 209.3 440.579 209.3 440.579C209.3 440.579 215.7 447.179 234.3 446.979C239.9 446.979 245.6 444.379 250.8 440.779C240.8 450.879 229.1 456.979 229.1 456.979C252.3 452.479 267.9 425.679 269.5 422.779C271.4 425.679 275.2 431.879 275.5 437.079C276 444.179 273.5 457.979 277.6 458.479C277.6 458.479 291.3 439.979 284.5 425.979Z" fill="#363C3B"/>
<path d="M153.8 1117.98H87.7001C87.7001 1117.98 86.1 1107.88 89.6 1100.28C92.9 1092.88 98.1001 1089.58 96.8001 1080.68C101 1085.08 107.9 1089.88 117.4 1088.58C118.6 1090.48 125 1100.68 128.9 1103.48C133.2 1106.58 152.5 1105.48 153.8 1117.98Z" fill="#23393D"/>
<path d="M295.9 1117.98H229.7C229.7 1117.98 227.3 1107.48 231.6 1100.28C235.4 1093.88 234 1090.28 231.1 1085.08C234.1 1086.28 238 1087.38 242.3 1087.18C245.6 1086.98 249 1085.48 252.1 1083.68C254.9 1086.88 267.1 1100.78 270.9 1103.48C275.3 1106.58 294.5 1105.48 295.9 1117.98Z" fill="#23393D"/>
<path d="M269.8 528.479L259 674.179L252.3 763.379C242.1 766.579 232.4 768.979 223.2 770.879C222.6 763.479 220.2 754.479 220.2 754.479C220.3 759.179 214.8 768.179 211.5 773.079C126.8 786.579 87.1 749.679 87.1 749.679C90.4 716.979 104.7 650.779 121.8 595.379C125.3 583.779 129 572.779 132.7 562.479C141.2 539.279 146.6 527.179 151.1 517.779C159.8 499.879 198.7 500.979 198.7 500.979C206.1 527.979 226.7 544.779 226.7 544.779C237.6 538.379 245.8 515.779 245.8 515.779L269.8 528.479Z" fill="#CADBBE"/>
<path d="M337.8 681.079C332.3 681.079 323.7 680.679 318.7 678.779C318.7 678.779 334.6 678.579 331.2 673.479C330.6 672.579 322.7 673.279 313.8 673.279C310.2 673.279 301.2 678.279 301.7 678.479C295.3 677.579 289.4 676.379 287.6 675.979C287.1 675.879 286.9 675.779 286.9 675.779L281.2 692.279C281.2 692.279 282.4 692.579 284.5 692.979C289.8 694.279 300.6 697.079 310.8 700.979C325.1 706.679 335.7 699.679 340.4 694.679C343.5 691.479 345.9 687.279 345.7 684.279C345.5 680.979 341.1 681.079 337.8 681.079Z" fill="#F2BEB7"/>
<path d="M207.2 496.079C207.2 496.079 200.2 496.479 198.7 500.979C198.7 500.979 207.9 538.079 226.7 544.779L207.2 496.079Z" fill="#174D47" fill-opacity="0.61"/>
<path d="M226.7 544.779C226.7 544.779 244.3 515.579 244.2 511.179C244.2 511.179 251.5 513.979 251 518.479C251 518.479 235.8 542.779 226.7 544.779Z" fill="#174D47" fill-opacity="0.61"/>
<path d="M178.4 531.579C179 533.379 242.4 634.579 243.8 654.779C245.1 674.979 217.1 663.579 216.7 660.879C216.2 658.279 178.4 531.579 178.4 531.579Z" fill="#174D47" fill-opacity="0.41"/>
<path d="M259 674.179L252.3 763.379C161.6 737.279 156.6 545.779 156.6 545.779L212.7 646.979L258.5 673.479C258.5 673.479 258.667 673.712 259 674.179Z" fill="#174D47" fill-opacity="0.41"/>
<path d="M299.3 682.379L295.8 695.079C295.8 695.079 291.4 694.279 284.5 692.979C282.4 692.579 281.2 692.279 281.2 692.279C275.6 691.179 269 689.679 261.7 688.079H261.6C249.2 685.079 235.3 681.579 223.6 677.579C222.533 677.179 221.5 676.812 220.5 676.479C213.5 673.879 226.9 638.679 233 643.079C234.6 644.212 236.3 645.413 238.1 646.679C248.2 653.479 261 661.079 272.4 667.479C277.9 670.679 283.2 673.579 287.6 675.979C294.6 679.879 299.3 682.379 299.3 682.379Z" fill="#F2BEB7"/>
<path d="M238.1 646.679C238.1 646.679 238.9 670.679 216.4 682.379C190.4 672.979 176.4 634.279 165.7 607.579C164.2 603.879 162.8 600.279 161.4 596.679C156.5 583.379 152.5 570.179 150.1 558.879C148.6 552.079 147.6 545.979 147.4 540.879C147.3 539.079 147.2 537.379 147.3 535.779C147.5 506.979 167.9 503.979 170.6 507.279C173.9 511.379 177.5 517.979 181.2 526.079C186.9 538.879 192.8 555.479 198.4 571.979C201.5 581.079 204.5 590.079 207.4 598.479C209.1 603.479 210.8 608.279 212.4 612.679C215.5 620.979 218.3 627.779 220.8 632.079C222.4 634.779 226.9 638.679 233 643.079C234.6 644.212 236.3 645.413 238.1 646.679Z" fill="#CADBBE"/>
<path d="M339.2 642.379C339.2 642.512 339.167 642.579 339.1 642.579C339.1 642.446 339.133 642.379 339.2 642.379C339.267 642.179 339.267 642.179 339.2 642.379Z" fill="#CADBBE"/>
<path d="M881.8 555.279C883.7 557.579 884 560.079 883 562.879C881.2 567.879 875.2 573.479 868.2 579.179C867.267 579.846 866.467 580.479 865.8 581.079C865.6 581.279 865.433 581.446 865.3 581.579C865.1 581.712 864.933 581.846 864.8 581.979C858.3 587.979 860.8 589.379 849.1 601.579C835.7 615.379 826.5 615.679 823.9 614.379C821.7 613.279 826.2 605.979 831.2 597.679C831.467 597.279 831.7 596.879 831.9 596.479C832.567 595.346 833.233 594.246 833.9 593.179C839.7 583.179 838.2 578.479 836.9 563.679C835.7 551.679 818.1 496.379 818.1 496.379L843.7 491.979C843.7 491.979 851.4 535.979 859.9 542.779C864.4 546.379 869.5 546.379 873.8 549.079C874.133 549.279 874.467 549.479 874.8 549.679C877.2 551.279 879.8 552.979 881.8 555.279Z" fill="#F2BEB7"/>
<path d="M881.8 555.279C883.7 557.579 884 560.079 883 562.879C880.8 567.879 874.9 573.479 868.1 579.079C867.233 579.812 866.467 580.479 865.8 581.079C865.6 581.279 865.433 581.446 865.3 581.579C865.1 581.712 864.933 581.846 864.8 581.979C858.3 587.979 860.8 589.379 849.1 601.579C835.7 615.379 826.5 615.679 823.9 614.379C821.7 613.279 826.2 605.979 831.2 597.679C833.8 596.779 845.9 591.879 855 580.179C863 569.879 868.4 556.779 873.8 549.079C874.133 549.279 874.467 549.479 874.8 549.679C877.2 551.279 879.8 552.979 881.8 555.279Z" fill="#23393D"/>
<path d="M675.5 539.279C674 547.179 662.7 545.879 650.1 542.779C637.6 539.779 640.6 543.379 622.7 541.379C604.8 539.479 599.4 532.779 598.8 530.079C598.3 527.779 607.2 526.879 616.6 525.879C617.8 525.679 619 525.512 620.2 525.379C630.9 524.079 638.8 517.179 648.5 511.479C657.7 506.079 671.5 484.179 671.5 484.179L696 486.179C696 486.179 683.1 505.679 678.1 514.179C675.2 519.179 675.4 525.779 675.7 530.979C675.9 533.679 676.1 536.579 675.5 539.279Z" fill="#F2BEB7"/>
<path d="M650.1 542.779C637.6 539.779 640.6 543.379 622.7 541.379C604.8 539.479 599.4 532.779 598.8 530.079C598.3 527.779 607.2 526.879 616.6 525.879L616.7 525.979C616.7 525.979 627.5 533.579 642.4 533.979C654.5 534.279 667.4 530.779 675.7 530.979C675.9 533.679 676.1 536.579 675.5 539.279C674 547.179 662.7 545.879 650.1 542.779Z" fill="#23393D"/>
<path d="M769.6 382.379L792.5 444.179L822.5 524.779C822.5 524.779 830.6 525.479 838.4 523.279C845.5 521.179 853.8 515.779 853.8 515.779C853.8 515.779 845.4 429.279 829.9 379.579C826 366.879 821.5 356.579 816.6 350.679C792.5 322.279 769.6 382.379 769.6 382.379Z" fill="#23393D"/>
<path d="M792.9 284.379C807.9 279.579 850.8 285.779 893.8 294.179L902.9 279.379L995.8 272.079C995.8 272.079 1026.5 340.179 1009.7 383.479C1007.3 389.879 1002.4 393.979 994 394.079H992.6C992.6 394.079 937.3 394.079 919.3 394.079C873.1 394.079 821.4 362.279 814.8 360.879C803.8 358.779 799.5 380.579 788.5 403.579C777.6 426.479 685.8 505.179 685.8 505.179C685.8 505.179 671.7 505.379 665.8 503.179C659.6 500.879 657.3 497.779 657.3 497.779C657.3 497.779 759 295.379 792.9 284.379Z" fill="#30545D"/>
<path d="M876.9 150.079C906.3 173.879 976.9 215.279 977.3 215.079C977.3 215.079 1000 228.579 1015.4 221.979C1041.1 210.879 1060.9 172.079 1025.3 129.079C1007.5 107.679 992.8 100.579 996.3 72.1791C1000 41.2791 986.1 2.47908 950.6 0.879078C947.6 0.679078 929.6 -1.72092 916.8 2.37908C884.1 12.5791 829.4 134.279 876.9 150.079Z" fill="#363C3B"/>
<path d="M1002.2 282.179C1000.3 287.479 950 292.179 921.4 290.279C912.3 289.679 905.4 288.379 902.9 286.279C892.7 277.379 893.7 296.879 892.3 203.679C891.7 158.179 931 117.579 931 117.579C931 117.579 934.1 137.079 973 113.979C974.4 113.079 989.8 135.879 1004.5 163.779C1020.8 194.679 1004.2 276.779 1002.2 282.179Z" fill="#CADBBE"/>
<path d="M792.5 444.179L822.5 524.779C822.5 524.779 830.6 525.479 838.4 523.279C845.5 521.179 853.8 515.779 853.8 515.779C853.8 515.779 845.4 429.279 829.9 379.579L792.5 444.179Z" fill="#30545D"/>
<path d="M931 117.579C931 117.579 895.4 126.379 886.2 141.679C874.9 160.379 818.9 244.479 818.9 244.479C818.9 244.479 874.1 264.079 883.5 254.679C893 245.179 916.3 167.279 916.3 167.279L931 117.579Z" fill="#CADBBE"/>
<path d="M973.1 113.979C973.3 113.979 958.8 127.379 948.2 131.179C944 132.779 937.1 134.379 937.1 134.379C937.1 134.379 931.5 128.779 931.5 128.679C926.5 124.079 931.5 122.779 930.7 114.079C930.7 113.679 930.667 113.246 930.6 112.779C929.6 103.079 926.8 92.3791 926.6 91.6791L961 81.8791L959.9 83.7791C962 101.579 968.5 113.479 973.1 113.979Z" fill="#F2BEB7"/>
<path d="M961 81.8791C957.7 91.8791 948.6 105.279 930 108.179C928.2 97.4791 926.8 92.3791 926.6 91.6791L961 81.8791Z" fill="#EDA8A2"/>
<path d="M920.9 102.079C920.9 102.079 967.3 98.9791 964.9 70.0791C962.6 41.2791 966.9 21.3791 937.2 22.1791C907.5 22.8791 902.7 34.3791 901.1 44.1791C899.6 54.0791 908.8 102.079 920.9 102.079Z" fill="#F2BEB7"/>
<path d="M912.6 21.6791C912.6 21.6791 924.1 55.4791 951.4 59.3791C971.4 62.2791 979.3 56.8791 979.3 56.8791C979.3 56.8791 968.2 46.279 962.2 29.979C960.4 25.179 956.2 21.6791 951.1 20.8791C936.9 18.6791 918.6 9.27906 912.6 21.6791Z" fill="#363C3B"/>
<path d="M922.4 27.6791C922.4 27.6791 914.1 30.9791 908.3 43.3791C905.2 50.0791 902.9 66.1791 904.8 72.8791C904.8 72.8791 891.5 41.9791 901.2 28.0791C911.4 13.2791 922.4 27.6791 922.4 27.6791Z" fill="#4A190C"/>
<path d="M930.7 114.079C930.7 114.079 933.6 131.179 937.1 134.379C937.1 134.379 928.2 131.079 924 119.579C924 119.579 927.1 114.479 930.7 114.079Z" fill="#174D47" fill-opacity="0.61"/>
<path d="M897.6 172.379C897.6 172.379 871.7 203.379 874.9 214.679C878.1 225.879 896.1 225.879 896.1 225.879C896.1 225.879 892.7 201.979 896.1 189.479C899.4 176.979 901.5 171.579 897.6 172.379Z" fill="#174D47" fill-opacity="0.41"/>
<path d="M973.1 253.279C973.1 253.279 993.1 239.179 992.6 225.879C992.1 212.679 992.6 188.479 996.1 191.879C999.6 195.279 1010.7 222.479 1009.6 230.179C1008.6 237.879 1000 260.779 995.4 261.779C990.8 262.779 973.1 253.279 973.1 253.279Z" fill="#174D47" fill-opacity="0.41"/>
<path d="M899.7 304.179C899.7 304.179 927.8 391.979 999.1 402.379C999.1 402.379 1024.3 377.579 1022.1 321.479C1019.9 265.379 899.7 304.179 899.7 304.179Z" fill="#CADBBE"/>
<path d="M1141.8 329.679L1128.2 367.179C1124.7 376.879 1114 381.879 1104.2 378.379L745.3 248.179C728.8 242.179 712.8 234.579 697.7 225.579L649.2 196.679L586.3 159.179C575.4 152.779 563.9 147.279 552 142.979L471.7 113.779C468.7 112.679 467.1 109.479 468.2 106.479C468.8 104.979 469.9 103.879 471.2 103.179C472.5 102.579 474.1 102.479 475.6 102.979L541.2 126.879C562.9 134.679 585.3 140.479 608.1 144.179L664.9 153.279L723.9 162.779C739.2 165.179 754.1 169.079 768.6 174.379L1130.6 305.679C1140.3 309.279 1145.3 319.979 1141.8 329.679Z" fill="#30545D"/>
<path d="M1141.8 329.679L1128.2 367.179C1124.7 376.879 1114 381.879 1104.2 378.379L745.3 248.179C728.8 242.179 712.8 234.579 697.7 225.579L649.2 196.679C648.9 188.579 650.1 180.779 652.8 173.379C655.5 165.979 659.6 159.279 664.9 153.279L723.9 162.779C739.2 165.179 754.1 169.079 768.6 174.379L1130.6 305.679C1140.3 309.279 1145.3 319.979 1141.8 329.679Z" fill="#CDE0FB"/>
<path d="M1141.8 329.679L1128.2 367.179C1124.7 376.879 1114 381.879 1104.2 378.379L1065.4 364.279L1091.8 291.579L1130.6 305.679C1140.3 309.279 1145.3 319.979 1141.8 329.679Z" fill="#30545D"/>
<path d="M902.9 278.679L804.3 242.879L813.7 216.779L912.4 252.579L902.9 278.679Z" fill="#30545D"/>
<path d="M514.4 117.079L510.5 127.879L471.7 113.779C468.7 112.679 467.1 109.479 468.2 106.479C468.8 104.979 469.9 103.879 471.2 103.179C472.5 102.579 474.1 102.479 475.6 102.979L514.4 117.079Z" fill="#174D47"/>
<path d="M732.5 244.979C732.5 244.979 731.5 229.479 737.3 230.079C744.5 230.779 752.2 247.879 748.7 251.179C745.2 254.479 732.6 248.779 732.5 244.979Z" fill="#F2BEB7"/>
<path d="M973 113.979C973 113.979 1009.9 116.379 1019.1 130.679C1028.3 145.079 1057.8 226.779 1053 251.879C1048.2 276.879 981.3 318.979 981.3 318.979L974.2 303.679C974.2 303.679 1013.3 239.179 1009.6 230.179C996 197.179 973 113.979 973 113.979Z" fill="#CADBBE"/>
<path d="M982.9 308.879L974.2 303.679C974.2 303.679 968.8 301.479 965.6 301.979C962.3 302.379 954.7 301.079 954.5 302.279C954.3 303.579 962.4 308.879 962.4 308.879L962.6 308.779C958.1 315.779 940.8 317.379 939.6 319.979C938.1 323.179 945.5 326.079 949.5 327.879C953.6 329.579 963.9 331.179 969.8 326.679C974.2 323.279 981.3 318.979 981.3 318.979L982.9 308.879Z" fill="#F2BEB7"/>
<path d="M965.9 106.079C965.9 106.079 945.5 131.679 937.1 134.379C937.1 134.379 961 134.379 977.9 114.379C977.9 114.379 972.3 106.179 965.9 106.079Z" fill="#174D47" fill-opacity="0.61"/>
<path d="M782 826.779V1074.18C782 1098.78 762.1 1118.78 737.5 1118.78H618.5C593.9 1118.78 573.9 1098.78 573.9 1074.18V826.779C573.9 814.479 578.9 803.379 587 795.279C595 787.279 606.2 782.279 618.5 782.279C623.6 782.279 628 778.879 629.4 774.279C629.8 773.146 630 771.979 630 770.779V747.479C630 746.346 630.167 745.312 630.5 744.379C631.8 740.979 635 738.579 638.8 738.579H718.3C719.8 738.579 721.2 739.079 722.4 739.779C724.6 741.179 726 743.579 726 746.279V770.779C726 777.179 731.1 782.279 737.5 782.279C762.1 782.279 782 802.179 782 826.779Z" fill="#174D47" fill-opacity="0.41"/>
<path d="M782 826.779V1074.18C782 1098.78 762.1 1118.78 737.5 1118.78H658.1C633.5 1118.78 613.6 1098.78 613.6 1074.18V826.779C613.6 814.479 618.6 803.379 626.6 795.279C634.7 787.279 645.8 782.279 658.1 782.279C663.3 782.279 667.6 778.879 669.1 774.279C669.433 773.146 669.6 771.979 669.6 770.779V747.479C669.6 746.346 669.8 745.312 670.2 744.379C671.4 740.979 674.6 738.579 678.4 738.579H718.3C719.8 738.579 721.2 739.079 722.4 739.779C724.6 741.179 726 743.579 726 746.279V770.779C726 777.179 731.1 782.279 737.5 782.279C762.1 782.279 782 802.179 782 826.779Z" fill="#CADBBE"/>
<path d="M730.9 769.079H621.5V748.179C621.5 739.279 628.8 731.979 637.8 731.979H714.7C723.7 731.979 730.9 739.279 730.9 748.179V769.079Z" fill="#174D47"/>
<path d="M782 956.679H573.9V865.679H782V956.679Z" fill="#30545D"/>
<path d="M1091.4 1055.58C1091.4 1071.38 1079.3 1084.78 1063.3 1086.18L723.2 1115.08C710.5 1116.08 699 1109.28 693.5 1098.68H693.4C692.3 1096.38 691.4 1093.98 690.8 1091.48C690.467 1090.01 690.233 1088.55 690.1 1087.08C689.7 1083.28 690.1 1079.68 691.1 1076.28C691.167 1075.81 691.267 1075.41 691.4 1075.08C692.067 1073.08 692.9 1071.21 693.9 1069.48C698.7 1060.88 707.5 1054.78 718 1053.88L1058.1 1024.98C1073.7 1023.68 1087.6 1034.28 1090.7 1049.18C1090.97 1050.45 1091.17 1051.71 1091.3 1052.98C1091.37 1053.85 1091.4 1054.71 1091.4 1055.58Z" fill="#174D47" fill-opacity="0.39"/>
<path d="M710.6 1086.38C710.6 1090.38 708.5 1093.98 705.4 1096.18C703.7 1097.28 701.8 1097.98 699.7 1098.18L693.5 1098.68H693.4L668.4 1100.78C663.4 1101.18 658.9 1098.58 656.8 1094.38C656.1 1093.08 655.7 1091.58 655.6 1089.98C655 1083.48 659.9 1077.78 666.4 1077.18L690.9 1075.08H691.4L697.7 1074.48C698.1 1074.48 698.467 1074.48 698.8 1074.48C704.9 1074.48 710 1079.18 710.6 1085.28C710.6 1085.68 710.6 1086.05 710.6 1086.38Z" fill="#174D47" fill-opacity="0.39"/>
<path d="M1090.7 1049.18C1087.4 1061.18 1076.9 1070.38 1063.8 1071.48L723.7 1100.38C717 1100.98 710.7 1099.38 705.4 1096.18C702 1094.18 699 1091.48 696.6 1088.28C693.9 1084.78 692 1080.68 691.1 1076.28C691.033 1075.88 690.967 1075.48 690.9 1075.08H691.4C692.067 1073.08 692.9 1071.21 693.9 1069.48C698.7 1060.88 707.5 1054.78 718 1053.88L1058.1 1024.98C1073.7 1023.68 1087.6 1034.28 1090.7 1049.18Z" fill="#E0F4F7"/>
<path d="M700.1 1079.88C700.1 1083.08 698.8 1086.08 696.6 1088.28C695 1089.78 693 1090.98 690.8 1091.48C690.267 1091.55 689.733 1091.61 689.2 1091.68L657.9 1094.38C657.5 1094.38 657.133 1094.38 656.8 1094.38C656.1 1093.08 655.7 1091.58 655.6 1089.98C655 1083.48 659.9 1077.78 666.4 1077.18L690.9 1075.08H691.4C692.067 1073.08 692.9 1071.21 693.9 1069.48C696 1070.58 697.7 1072.28 698.8 1074.48C699.5 1075.78 699.9 1077.28 700 1078.88C700.067 1079.21 700.1 1079.55 700.1 1079.88Z" fill="#E0F4F7"/>
<path d="M1204.4 1043.48C1204.7 1062.08 1190.5 1078.08 1171.7 1079.68L1058.9 1089.28L1057.7 1017.68H1058.1L1165.7 1008.48C1182.1 1007.08 1197 1017.28 1202.3 1032.08C1203.3 1034.88 1204 1037.98 1204.3 1041.08C1204.37 1041.88 1204.4 1042.68 1204.4 1043.48Z" fill="#23393D"/>
<path d="M1202.3 1032.08C1197.7 1044.88 1186.1 1054.48 1171.7 1055.68L1058.9 1065.28L1058.1 1017.68L1165.7 1008.48C1182.1 1007.08 1197 1017.28 1202.3 1032.08Z" fill="#30545D"/>
<path d="M1043.3 1098.28L1035.9 1011.78C1035.1 1002.08 1042.3 993.579 1052 992.779L1054.3 992.579C1064 991.779 1072.5 998.879 1073.3 1008.58L1080.7 1095.18C1081.5 1104.78 1074.3 1113.38 1064.6 1114.18L1062.3 1114.38C1052.6 1115.18 1044.1 1107.98 1043.3 1098.28Z" fill="#23393D"/>
<path d="M1610.7 1125.38H2.90002C1.30002 1125.38 0 1124.08 0 1122.48V1117.58C0 1115.98 1.30002 1114.68 2.90002 1114.68H1610.7C1612.3 1114.68 1613.6 1115.98 1613.6 1117.58V1122.48C1613.6 1124.08 1612.3 1125.38 1610.7 1125.38Z" fill="#333333"/>
</svg>
