<svg width="241" height="74" viewBox="0 0 241 74" fill="none" xmlns="http://www.w3.org/2000/svg">
<path d="M120.416 46.424C120.672 46.84 120.768 47.216 120.704 47.552C120.64 47.904 120.48 48.192 120.224 48.416C119.968 48.656 119.656 48.808 119.288 48.872C118.936 48.936 118.576 48.896 118.208 48.752C117.856 48.624 117.552 48.368 117.296 47.984L115.592 45.2C115.384 44.88 115.112 44.64 114.776 44.48C114.456 44.336 114.04 44.264 113.528 44.264L116.36 43.184C117.096 43.184 117.696 43.312 118.16 43.568C118.64 43.824 119.072 44.264 119.456 44.888L120.416 46.424ZM113.552 44.264C111.888 44.264 110.424 43.904 109.16 43.184C107.912 42.448 106.936 41.424 106.232 40.112C105.544 38.8 105.2 37.272 105.2 35.528C105.2 34.2 105.392 33.008 105.776 31.952C106.176 30.88 106.744 29.968 107.48 29.216C108.216 28.448 109.096 27.856 110.12 27.44C111.16 27.024 112.304 26.816 113.552 26.816C115.248 26.816 116.72 27.176 117.968 27.896C119.216 28.616 120.184 29.632 120.872 30.944C121.576 32.24 121.928 33.76 121.928 35.504C121.928 36.832 121.728 38.032 121.328 39.104C120.928 40.176 120.36 41.096 119.624 41.864C118.888 42.632 118.008 43.224 116.984 43.64C115.96 44.056 114.816 44.264 113.552 44.264ZM113.552 41.096C114.496 41.096 115.296 40.88 115.952 40.448C116.624 40 117.136 39.36 117.488 38.528C117.856 37.68 118.04 36.68 118.04 35.528C118.04 33.768 117.648 32.408 116.864 31.448C116.08 30.472 114.976 29.984 113.552 29.984C112.624 29.984 111.824 30.2 111.152 30.632C110.48 31.064 109.968 31.696 109.616 32.528C109.264 33.36 109.088 34.36 109.088 35.528C109.088 37.272 109.48 38.64 110.264 39.632C111.048 40.608 112.144 41.096 113.552 41.096ZM128.838 44.264C127.846 44.264 127.022 44.08 126.366 43.712C125.71 43.344 125.222 42.792 124.902 42.056C124.598 41.304 124.446 40.376 124.446 39.272V33.848C124.446 33.24 124.598 32.784 124.902 32.48C125.222 32.176 125.67 32.024 126.246 32.024C126.822 32.024 127.27 32.176 127.59 32.48C127.91 32.784 128.07 33.24 128.07 33.848V39.368C128.07 40.072 128.214 40.6 128.502 40.952C128.79 41.288 129.246 41.456 129.87 41.456C130.558 41.456 131.118 41.216 131.55 40.736C131.998 40.24 132.222 39.592 132.222 38.792V33.848C132.222 33.24 132.374 32.784 132.678 32.48C132.998 32.176 133.446 32.024 134.022 32.024C134.614 32.024 135.062 32.176 135.366 32.48C135.686 32.784 135.846 33.24 135.846 33.848V42.368C135.846 43.6 135.262 44.216 134.094 44.216C133.518 44.216 133.078 44.056 132.774 43.736C132.47 43.416 132.318 42.96 132.318 42.368V40.76L132.678 41.696C132.326 42.512 131.822 43.144 131.166 43.592C130.51 44.04 129.734 44.264 128.838 44.264ZM140.474 44.192C139.882 44.192 139.426 44.024 139.106 43.688C138.802 43.336 138.65 42.848 138.65 42.224V34.016C138.65 33.376 138.802 32.888 139.106 32.552C139.426 32.2 139.882 32.024 140.474 32.024C141.05 32.024 141.49 32.2 141.794 32.552C142.114 32.888 142.274 33.376 142.274 34.016V42.224C142.274 42.848 142.122 43.336 141.818 43.688C141.514 44.024 141.066 44.192 140.474 44.192ZM140.474 30.056C139.802 30.056 139.282 29.904 138.914 29.6C138.562 29.28 138.386 28.832 138.386 28.256C138.386 27.664 138.562 27.216 138.914 26.912C139.282 26.592 139.802 26.432 140.474 26.432C141.146 26.432 141.658 26.592 142.01 26.912C142.362 27.216 142.538 27.664 142.538 28.256C142.538 28.832 142.362 29.28 142.01 29.6C141.658 29.904 141.146 30.056 140.474 30.056ZM150.808 44.264C149.528 44.264 148.408 44.016 147.448 43.52C146.504 43.008 145.776 42.288 145.264 41.36C144.752 40.432 144.496 39.336 144.496 38.072C144.496 37.128 144.64 36.28 144.928 35.528C145.216 34.776 145.632 34.136 146.176 33.608C146.736 33.08 147.408 32.68 148.192 32.408C148.976 32.12 149.848 31.976 150.808 31.976C151.304 31.976 151.832 32.04 152.392 32.168C152.952 32.28 153.504 32.48 154.048 32.768C154.368 32.912 154.584 33.12 154.696 33.392C154.824 33.648 154.872 33.92 154.84 34.208C154.808 34.48 154.704 34.728 154.528 34.952C154.368 35.16 154.16 35.304 153.904 35.384C153.648 35.448 153.36 35.4 153.04 35.24C152.736 35.064 152.416 34.936 152.08 34.856C151.76 34.776 151.456 34.736 151.168 34.736C150.688 34.736 150.264 34.816 149.896 34.976C149.528 35.12 149.216 35.336 148.96 35.624C148.72 35.896 148.528 36.24 148.384 36.656C148.256 37.072 148.192 37.552 148.192 38.096C148.192 39.152 148.448 39.984 148.96 40.592C149.488 41.184 150.224 41.48 151.168 41.48C151.456 41.48 151.76 41.448 152.08 41.384C152.4 41.304 152.72 41.176 153.04 41C153.36 40.84 153.648 40.8 153.904 40.88C154.16 40.96 154.36 41.112 154.504 41.336C154.664 41.544 154.752 41.792 154.768 42.08C154.8 42.352 154.752 42.624 154.624 42.896C154.512 43.152 154.304 43.352 154 43.496C153.456 43.768 152.912 43.96 152.368 44.072C151.824 44.2 151.304 44.264 150.808 44.264ZM158.357 44.216C157.765 44.216 157.309 44.056 156.989 43.736C156.685 43.416 156.533 42.96 156.533 42.368V28.712C156.533 28.104 156.685 27.648 156.989 27.344C157.309 27.024 157.765 26.864 158.357 26.864C158.933 26.864 159.373 27.024 159.677 27.344C159.997 27.648 160.157 28.104 160.157 28.712V37.088H160.205L163.685 33.224C164.037 32.824 164.357 32.528 164.645 32.336C164.949 32.128 165.349 32.024 165.845 32.024C166.341 32.024 166.717 32.152 166.973 32.408C167.245 32.664 167.381 32.976 167.381 33.344C167.397 33.696 167.245 34.056 166.925 34.424L163.253 38.528V37.16L167.333 41.864C167.637 42.232 167.765 42.6 167.717 42.968C167.685 43.336 167.525 43.64 167.237 43.88C166.949 44.104 166.581 44.216 166.133 44.216C165.589 44.216 165.149 44.112 164.813 43.904C164.493 43.696 164.165 43.376 163.829 42.944L160.205 38.912H160.157V42.368C160.157 43.6 159.557 44.216 158.357 44.216ZM171.955 44.216C171.411 44.216 170.995 44.064 170.707 43.76C170.419 43.456 170.275 43.032 170.275 42.488V28.592C170.275 28.048 170.427 27.624 170.731 27.32C171.051 27.016 171.483 26.864 172.027 26.864C172.507 26.864 172.883 26.96 173.155 27.152C173.443 27.328 173.707 27.64 173.947 28.088L179.491 38.216H178.675L184.219 28.088C184.459 27.64 184.715 27.328 184.987 27.152C185.275 26.96 185.651 26.864 186.115 26.864C186.659 26.864 187.075 27.016 187.363 27.32C187.667 27.624 187.819 28.048 187.819 28.592V42.488C187.819 43.032 187.675 43.456 187.387 43.76C187.099 44.064 186.683 44.216 186.139 44.216C185.595 44.216 185.171 44.064 184.867 43.76C184.579 43.456 184.435 43.032 184.435 42.488V32.768H184.963L180.499 40.76C180.307 41.064 180.099 41.296 179.875 41.456C179.667 41.6 179.387 41.672 179.035 41.672C178.683 41.672 178.395 41.592 178.171 41.432C177.947 41.272 177.747 41.048 177.571 40.76L173.059 32.744H173.635V42.488C173.635 43.032 173.491 43.456 173.203 43.76C172.931 44.064 172.515 44.216 171.955 44.216ZM197.059 44.264C195.667 44.264 194.467 44.016 193.459 43.52C192.467 43.008 191.699 42.296 191.155 41.384C190.627 40.456 190.363 39.368 190.363 38.12C190.363 36.904 190.619 35.84 191.131 34.928C191.643 34 192.355 33.28 193.267 32.768C194.195 32.24 195.243 31.976 196.411 31.976C197.259 31.976 198.027 32.12 198.715 32.408C199.403 32.68 199.995 33.08 200.491 33.608C200.987 34.12 201.363 34.752 201.619 35.504C201.875 36.24 202.003 37.064 202.003 37.976C202.003 38.28 201.907 38.512 201.715 38.672C201.523 38.816 201.243 38.888 200.875 38.888H193.339V37.016H199.387L199.003 37.352C199.003 36.696 198.907 36.152 198.715 35.72C198.523 35.272 198.243 34.936 197.875 34.712C197.523 34.488 197.083 34.376 196.555 34.376C195.963 34.376 195.459 34.512 195.043 34.784C194.627 35.056 194.307 35.448 194.083 35.96C193.859 36.472 193.747 37.088 193.747 37.808V38C193.747 39.216 194.027 40.112 194.587 40.688C195.163 41.264 196.011 41.552 197.131 41.552C197.515 41.552 197.955 41.504 198.451 41.408C198.947 41.312 199.411 41.16 199.843 40.952C200.211 40.776 200.539 40.72 200.827 40.784C201.115 40.832 201.339 40.96 201.499 41.168C201.659 41.376 201.747 41.616 201.763 41.888C201.795 42.16 201.739 42.432 201.595 42.704C201.451 42.96 201.211 43.176 200.875 43.352C200.331 43.656 199.715 43.88 199.027 44.024C198.355 44.184 197.699 44.264 197.059 44.264ZM208.695 44.264C207.671 44.264 206.767 44.016 205.983 43.52C205.215 43.024 204.615 42.312 204.183 41.384C203.751 40.456 203.535 39.36 203.535 38.096C203.535 36.832 203.751 35.744 204.183 34.832C204.615 33.92 205.215 33.216 205.983 32.72C206.767 32.224 207.671 31.976 208.695 31.976C209.623 31.976 210.439 32.2 211.143 32.648C211.863 33.096 212.351 33.68 212.607 34.4H212.343V28.712C212.343 28.104 212.495 27.648 212.799 27.344C213.103 27.024 213.551 26.864 214.143 26.864C214.719 26.864 215.167 27.024 215.487 27.344C215.807 27.648 215.967 28.104 215.967 28.712V42.368C215.967 42.96 215.807 43.416 215.487 43.736C215.183 44.056 214.743 44.216 214.167 44.216C213.591 44.216 213.143 44.056 212.823 43.736C212.519 43.416 212.367 42.96 212.367 42.368V40.736L212.631 41.672C212.407 42.456 211.927 43.088 211.191 43.568C210.471 44.032 209.639 44.264 208.695 44.264ZM209.775 41.552C210.303 41.552 210.759 41.424 211.143 41.168C211.527 40.912 211.831 40.536 212.055 40.04C212.279 39.528 212.391 38.88 212.391 38.096C212.391 36.928 212.151 36.072 211.671 35.528C211.191 34.968 210.559 34.688 209.775 34.688C209.263 34.688 208.807 34.808 208.407 35.048C208.023 35.288 207.719 35.664 207.495 36.176C207.287 36.672 207.183 37.312 207.183 38.096C207.183 39.264 207.423 40.136 207.903 40.712C208.383 41.272 209.007 41.552 209.775 41.552ZM223.271 44.264C222.567 44.264 221.839 44.2 221.087 44.072C220.351 43.944 219.679 43.728 219.071 43.424C218.751 43.264 218.519 43.064 218.375 42.824C218.247 42.568 218.191 42.312 218.207 42.056C218.223 41.8 218.303 41.568 218.447 41.36C218.607 41.152 218.807 41.016 219.047 40.952C219.303 40.872 219.583 40.896 219.887 41.024C220.543 41.296 221.143 41.488 221.687 41.6C222.231 41.712 222.767 41.768 223.295 41.768C223.983 41.768 224.479 41.664 224.783 41.456C225.103 41.232 225.263 40.944 225.263 40.592C225.263 40.272 225.159 40.032 224.951 39.872C224.743 39.712 224.439 39.6 224.039 39.536L221.519 39.08C220.527 38.904 219.759 38.544 219.215 38C218.687 37.44 218.423 36.728 218.423 35.864C218.423 35.064 218.647 34.376 219.095 33.8C219.543 33.208 220.159 32.76 220.943 32.456C221.743 32.136 222.647 31.976 223.655 31.976C224.375 31.976 225.039 32.04 225.647 32.168C226.255 32.296 226.839 32.504 227.399 32.792C227.687 32.936 227.887 33.128 227.999 33.368C228.127 33.608 228.167 33.856 228.119 34.112C228.087 34.368 227.991 34.6 227.831 34.808C227.671 35.016 227.463 35.152 227.207 35.216C226.967 35.28 226.687 35.248 226.367 35.12C225.855 34.88 225.383 34.712 224.951 34.616C224.519 34.504 224.103 34.448 223.703 34.448C222.983 34.448 222.463 34.568 222.143 34.808C221.823 35.032 221.663 35.32 221.663 35.672C221.663 35.944 221.751 36.176 221.927 36.368C222.119 36.544 222.407 36.664 222.791 36.728L225.311 37.184C226.351 37.36 227.143 37.712 227.687 38.24C228.231 38.752 228.503 39.456 228.503 40.352C228.503 41.568 228.023 42.528 227.063 43.232C226.119 43.92 224.855 44.264 223.271 44.264Z" fill="#CADBBE"/>
<g filter="url(#filter0_d_113_4642)">
<circle cx="62" cy="37" r="27" fill="white"/>
<path fill-rule="evenodd" clip-rule="evenodd" d="M65.9581 29.1057C65.9581 28.9219 65.9581 23.7484 65.9581 23.5803C65.5199 19.3575 58.2499 19.5308 58.1142 23.7746C58.1142 25.261 58.0648 28.57 58.0586 30.0353C58.0578 30.5121 57.9465 30.9841 57.7309 31.4242C57.5154 31.8644 57.2 32.264 56.8027 32.6001C56.4054 32.9363 55.934 33.2025 55.4156 33.3833C54.8973 33.5642 54.342 33.6562 53.7818 33.6542C53.467 33.6542 46.9314 33.6962 46.4254 33.6542C45.3975 33.643 44.4065 33.9798 43.6704 34.5905C42.9343 35.2012 42.5134 36.0358 42.5003 36.9106C42.4872 37.7854 42.883 38.6288 43.6006 39.2552C44.3181 39.8817 45.2987 40.2399 46.3266 40.251H52.7018C60.8358 40.251 65.9396 37.8034 65.9396 31.8894L65.9581 29.1057Z" fill="#174D47" fill-opacity="0.74"/>
<path fill-rule="evenodd" clip-rule="evenodd" d="M57.9844 44.6677C57.9844 44.8515 58.0782 50.0648 58.0782 50.2329C58.5164 54.4347 65.7741 54.2719 65.9345 50.0386C65.9345 48.5522 65.9839 45.2432 65.9901 43.7831C65.9901 43.3059 66.1008 42.8333 66.316 42.3926C66.5311 41.9519 66.8464 41.5516 67.2438 41.2149C67.6412 40.8782 68.1128 40.6116 68.6316 40.4304C69.1504 40.2492 69.7061 40.157 70.2669 40.159C70.5816 40.159 77.1172 40.117 77.6233 40.159C78.1439 40.1815 78.6645 40.1143 79.1539 39.9615C79.6433 39.8087 80.0915 39.5734 80.4716 39.2698C80.8517 38.9662 81.1559 38.6004 81.3661 38.1944C81.5762 37.7884 81.6879 37.3505 81.6946 36.9069C81.7012 36.4633 81.6026 36.0231 81.4047 35.6126C81.2068 35.2022 80.9137 34.8299 80.5428 34.5182C80.1719 34.2064 79.7309 33.9615 79.2463 33.7981C78.7616 33.6348 78.2432 33.5563 77.722 33.5674H71.3346C63.2005 33.5622 58.0782 35.9989 58.0782 41.9024L57.9844 44.6677Z" fill="#95BB7C"/>
</g>
<defs>
<filter id="filter0_d_113_4642" x="25" y="0" width="74" height="74" filterUnits="userSpaceOnUse" color-interpolation-filters="sRGB">
<feFlood flood-opacity="0" result="BackgroundImageFix"/>
<feColorMatrix in="SourceAlpha" type="matrix" values="0 0 0 0 0 0 0 0 0 0 0 0 0 0 0 0 0 0 127 0" result="hardAlpha"/>
<feOffset/>
<feGaussianBlur stdDeviation="5"/>
<feComposite in2="hardAlpha" operator="out"/>
<feColorMatrix type="matrix" values="0 0 0 0 0 0 0 0 0 0 0 0 0 0 0 0 0 0 0.25 0"/>
<feBlend mode="normal" in2="BackgroundImageFix" result="effect1_dropShadow_113_4642"/>
<feBlend mode="normal" in="SourceGraphic" in2="effect1_dropShadow_113_4642" result="shape"/>
</filter>
</defs>
</svg>
